<svg xmlns="http://www.w3.org/2000/svg" xmlns:xlink="http://www.w3.org/1999/xlink" width="372" height="319" viewBox="0 0 372 319">
  <defs>
    <clipPath id="clip-path">
      <rect width="78" height="250" fill="none"/>
    </clipPath>
  </defs>
  <g id="BooksPublishedPerLanguage" transform="translate(0 -20)">
    <g id="scale" transform="translate(17 24)">
      <line id="Line_1" data-name="Line 1" x2="280.5" transform="translate(74 60)" fill="#3d1d20" stroke="#707070" stroke-linecap="round" stroke-width="1"/>
      <line id="Line_2" data-name="Line 2" y1="5" transform="translate(74 55)" fill="#3d1d20" stroke="#707070" stroke-linecap="round" stroke-width="1"/>
      <line id="Line_3" data-name="Line 3" y1="5" transform="translate(354 55)" fill="#3d1d20" stroke="#707070" stroke-linecap="round" stroke-width="1"/>
      <line id="Line_4" data-name="Line 4" y1="5" transform="translate(214 55)" fill="#3d1d20" stroke="#707070" stroke-linecap="round" stroke-width="1"/>
      <text id="_0" data-name="0" transform="translate(74 52)" fill="#303030" font-size="12" font-family="Lora-Regular, Lora"><tspan x="-7.453" y="0">0</tspan></text>
      <text id="_750_000" data-name="750,000" transform="translate(354 52)" fill="#303030" font-size="12" font-family="Lora-Regular, Lora"><tspan x="-44.531" y="0">750,000</tspan></text>
      <text id="_375_000" data-name="375,000" transform="translate(214 52)" fill="#303030" font-size="12" font-family="Lora-Regular, Lora"><tspan x="-43.664" y="0">375,000</tspan></text>
    </g>
    <g id="Repeat_Grid_1" data-name="Repeat Grid 1" transform="translate(0 89)" clip-path="url(#clip-path)">
      <g transform="translate(0 -65)">
        <text id="English" transform="translate(0 78)" fill="#3d1d20" font-size="12" font-family="Lora-Regular, Lora"><tspan x="0" y="0">English</tspan></text>
      </g>
      <g transform="translate(0 -39)">
        <text id="Mandarin" transform="translate(0 78)" fill="#3d1d20" font-size="12" font-family="Lora-Regular, Lora"><tspan x="0" y="0">Mandarin</tspan></text>
      </g>
      <g transform="translate(0 -13)">
        <text id="Japanese" transform="translate(0 78)" fill="#3d1d20" font-size="12" font-family="Lora-Regular, Lora"><tspan x="0" y="0">Japanese</tspan></text>
      </g>
      <g transform="translate(0 13)">
        <text id="Russian" transform="translate(0 78)" fill="#3d1d20" font-size="12" font-family="Lora-Regular, Lora"><tspan x="0" y="0">Russian</tspan></text>
      </g>
      <g transform="translate(0 39)">
        <text id="Spanish" transform="translate(0 78)" fill="#3d1d20" font-size="12" font-family="Lora-Regular, Lora"><tspan x="0" y="0">Spanish</tspan></text>
      </g>
      <g transform="translate(0 65)">
        <text id="French" transform="translate(0 78)" fill="#3d1d20" font-size="12" font-family="Lora-Regular, Lora"><tspan x="0" y="0">French</tspan></text>
      </g>
      <g transform="translate(0 91)">
        <text id="German" transform="translate(0 78)" fill="#3d1d20" font-size="12" font-family="Lora-Regular, Lora"><tspan x="0" y="0">German</tspan></text>
      </g>
      <g transform="translate(0 117)">
        <text id="Hindi" transform="translate(0 78)" fill="#3d1d20" font-size="12" font-family="Lora-Regular, Lora"><tspan x="0" y="0">Hindi</tspan></text>
      </g>
      <g transform="translate(0 143)">
        <text id="Turkish" transform="translate(0 78)" fill="#3d1d20" font-size="12" font-family="Lora-Regular, Lora"><tspan x="0" y="0">Turkish</tspan></text>
      </g>
      <g transform="translate(0 169)">
        <text id="Persian" transform="translate(0 78)" fill="#3d1d20" font-size="12" font-family="Lora-Regular, Lora"><tspan x="0" y="0">Persian</tspan></text>
      </g>
    </g>
    <rect id="Rectangle_2" data-name="Rectangle 2" width="275" height="16" transform="translate(91 89)" fill="#004d4d"/>
    <rect id="Rectangle_3" data-name="Rectangle 3" width="175" height="16" transform="translate(91 115)" fill="#004d4d"/>
    <rect id="Rectangle_4" data-name="Rectangle 4" width="52" height="16" transform="translate(91 141)" fill="#004d4d"/>
    <rect id="Rectangle_5" data-name="Rectangle 5" width="49" height="16" transform="translate(91 167)" fill="#004d4d"/>
    <rect id="Rectangle_6" data-name="Rectangle 6" width="44" height="16" transform="translate(91 193)" fill="#004d4d"/>
    <rect id="Rectangle_7" data-name="Rectangle 7" width="43" height="16" transform="translate(91 219)" fill="#004d4d"/>
    <rect id="Rectangle_8" data-name="Rectangle 8" width="38" height="16" transform="translate(91 245)" fill="#004d4d"/>
    <rect id="Rectangle_9" data-name="Rectangle 9" width="34" height="16" transform="translate(91 271)" fill="#004d4d"/>
    <rect id="Rectangle_10" data-name="Rectangle 10" width="28" height="16" transform="translate(91 297)" fill="#004d4d"/>
    <rect id="Rectangle_11" data-name="Rectangle 11" width="27" height="16" transform="translate(91 323)" fill="#004d4d"/>
    <text id="_736_809" data-name="736,809" transform="translate(96 102)" fill="#fff" font-size="12" font-family="Lora-Bold, Lora" font-weight="700"><tspan x="0" y="0">736,809</tspan></text>
    <text id="_468_084" data-name="468,084" transform="translate(96 128)" fill="#fff" font-size="12" font-family="Lora-Bold, Lora" font-weight="700"><tspan x="0" y="0">468,084</tspan></text>
    <text id="_139_078" data-name="139,078" transform="translate(96 154)" fill="#fff" font-size="12" font-family="Lora-Bold, Lora" font-weight="700"><tspan x="0" y="0">139,078</tspan></text>
    <text id="_118_139" data-name="118,139" transform="translate(155 206)" fill="#3d1d20" font-size="12" font-family="Lora-Regular, Lora"><tspan x="0" y="0">118,139</tspan></text>
    <text id="_116_359" data-name="116,359" transform="translate(154 232)" fill="#3d1d20" font-size="12" font-family="Lora-Regular, Lora"><tspan x="0" y="0">116,359</tspan></text>
    <text id="_101_656" data-name="101,656" transform="translate(149 258)" fill="#3d1d20" font-size="12" font-family="Lora-Regular, Lora"><tspan x="0" y="0">101,656</tspan></text>
    <text id="_90_000" data-name="90,000" transform="translate(147 284)" fill="#3d1d20" font-size="12" font-family="Lora-Regular, Lora"><tspan x="0" y="0">90,000</tspan></text>
    <text id="_75_667" data-name="75,667" transform="translate(137 310)" fill="#3d1d20" font-size="12" font-family="Lora-Regular, Lora"><tspan x="0" y="0">75,667</tspan></text>
    <text id="_72_871" data-name="72,871" transform="translate(134 336)" fill="#3d1d20" font-size="12" font-family="Lora-Regular, Lora"><tspan x="0" y="0">72,871</tspan></text>
    <text id="Books_Published_Per_Language_Per_Year" data-name="Books Published Per Language Per Year" transform="translate(188 38)" fill="#303030" font-size="18" font-family="Lora-Bold, Lora" font-weight="700"><tspan x="-169.66" y="0">Books Published Per Language Per Year</tspan></text>
    <text id="_132_078" data-name="132,078" transform="translate(160 180)" fill="#3d1d20" font-size="12" font-family="Lora-Regular, Lora"><tspan x="0" y="0">132,078</tspan></text>
  </g>
</svg>
