<svg xmlns="http://www.w3.org/2000/svg" width="60" height="91.439" viewBox="0 0 60 91.439">
  <path id="cornerdecoration" d="M1577.094,1401.571h0Zm23.059-20.074a10.435,10.435,0,0,0-.583-1.985,28.679,28.679,0,0,0-6.386-10.065c-1.236-1.583-4.692-4.651-7.58-9.5q-.313-.541-.583-1.125a2.761,2.761,0,0,1,1.249-3.318,1.989,1.989,0,0,1,2.707.777,1.288,1.288,0,0,1-.458,1.666.849.849,0,0,1-.833.014.518.518,0,0,1-.292-.4.381.381,0,0,1,.125-.347,1.148,1.148,0,0,1,.167-.111.122.122,0,0,0,.069-.139c-.042-.18-.264-.25-.43-.236a.821.821,0,0,0-.694.861,1.273,1.273,0,0,0,1.472,1.18,1.691,1.691,0,0,0,1.25-.736,1.906,1.906,0,0,0,.181-1.791,2.257,2.257,0,0,0-2.235-1.36,2.7,2.7,0,0,0-1.9.93,2.871,2.871,0,0,0-.68,2.277,9.654,9.654,0,0,1-.528-6.761,8.073,8.073,0,0,1,7.011-5.734c3.165-.264,6.608,1.569,7.246,4.567.75,2.86-1.027,5.956-3.429,6.233a3.264,3.264,0,0,1-3.818-2.388,2.907,2.907,0,0,1,.5-2.207,1.979,1.979,0,0,1,1.846-.875c.555.083,1.166.486,1.1,1.083a.108.108,0,0,1-.055.055c-.042.042-.1,0-.125-.028a1.209,1.209,0,0,0-1.4,0,1.379,1.379,0,0,0-.208,1.874,1.671,1.671,0,0,0,1.485.708,1.892,1.892,0,0,0,1.416-.819,2.418,2.418,0,0,0-.083-2.888,2.639,2.639,0,0,0-2.638-1.013,2.935,2.935,0,0,0-2.138,1.721,3.343,3.343,0,0,0,.1,3.1.308.308,0,0,0,.042.069c.014.014.014.042.028.056l.083.125a.424.424,0,0,0,.069.1c.055.083.125.153.18.236,0,.014.014.014.014.028a3.4,3.4,0,0,0,1.083.805,4.087,4.087,0,0,0,3.068.25c2.568-.639,4.109-4.29,2.8-7.274-1.3-3.1-5.3-4.512-8.663-3.707a8.852,8.852,0,0,0-6.455,7.441c-.4,3.443,1.138,6.511,2.6,8.829a78.757,78.757,0,0,0,6.705,8.3,43.078,43.078,0,0,1,3.526,4.345c-3.582-3.471-8.94-5.386-14.23-3.248a12.147,12.147,0,0,0-6.511,6.428,60.808,60.808,0,0,1,2.693-13.008c.652-2.943,3.4-9.468,4.151-18.325a24.665,24.665,0,0,0,.056-2.5c4.623-6.261,9.343-11.856,10.426-17.117,1.624-5.47-.958-8.607-.916-8.441-.014-.139,2.346,3.054.555,8.343-1.166,4.9-5.65,10.079-10.12,16.048-.056-.639-.125-1.277-.236-1.916,1.93-2.416,3.554-4.331,4.54-5.581a22,22,0,0,0,4.248-8.982c.916-4.373.222-8.9-3.04-12.2a10,10,0,0,0-4.97-2.693,6.884,6.884,0,0,0-6.455,1.652,6.158,6.158,0,0,0-1.6,3.012v.014a3.608,3.608,0,0,0,.764,3.054c.014.014.014.028.028.042a.649.649,0,0,0,.1.1l.125.125a2.9,2.9,0,0,0,1.666.764,2.726,2.726,0,0,0,2.027-.611,2.278,2.278,0,0,0,.736-2.527,1.837,1.837,0,0,0-1.333-1.194,1.708,1.708,0,0,0-1.43.305,1.285,1.285,0,0,0-.278,1.86.823.823,0,0,0,1.1.167.39.39,0,0,0,.167-.458.132.132,0,0,0-.153-.055.825.825,0,0,1-.194.028.356.356,0,0,1-.319-.167.531.531,0,0,1-.056-.5.85.85,0,0,1,.625-.541,1.287,1.287,0,0,1,1.471.916,1.982,1.982,0,0,1-1.471,2.4,2.564,2.564,0,0,1-2.318-.514,3.248,3.248,0,0,1-.764-3.11,5.672,5.672,0,0,1,1.472-2.776,6.43,6.43,0,0,1,6.025-1.527,9.354,9.354,0,0,1,4.734,2.568c3.137,3.165,3.8,7.5,2.915,11.772a21.6,21.6,0,0,1-4.165,8.788c-.93,1.18-2.457,2.985-4.276,5.261a14.514,14.514,0,0,0-3.665-7.3,13.1,13.1,0,0,0-14.271-3.374c-4.748,1.846-8.4,6.913-7.219,11.689.93,4.623,5.178,7.594,9.26,6.539a5.594,5.594,0,0,0,4.373-5.831,5.264,5.264,0,0,0-1.874-3.5,4.513,4.513,0,0,0-4.081-1,4.024,4.024,0,0,0-2.985,3.11,3.658,3.658,0,0,0,1.763,4.04,2.96,2.96,0,0,0,2.485.208,2.555,2.555,0,0,0,1.6-1.93,2.089,2.089,0,0,0-1.5-2.457,1.816,1.816,0,0,0-1.93.9c-.028.056-.069.153-.167.111a.166.166,0,0,1-.111-.056c-.472-.777.111-1.749.819-2.207a3.288,3.288,0,0,1,3.276-.042,4.633,4.633,0,0,1,1.083,6.747,6.106,6.106,0,0,1-3.637,1.8c-3.984.458-8.121-3.276-8.163-8.052-.139-4.873,4.359-9.176,9.287-10.106,5.081-1.013,10.356,1.819,12.869,5.942a15.137,15.137,0,0,1,1.957,5.747c-6.039,7.594-14.743,19.685-17.3,31.985a29.265,29.265,0,0,0,.028,13.119h-.153a10.449,10.449,0,0,0-2.068.208,51.941,51.941,0,0,0-3.457-3.9c-1.971-1.9-4.664-4.026-8.121-4.345a8.849,8.849,0,0,0-8.607,4.789c-1.485,3.124-.916,7.344,1.86,9.246,2.665,1.888,6.594,1.1,7.746-1.291a4.042,4.042,0,0,0,.181-3.512c-.014-.042-.028-.069-.042-.111a.744.744,0,0,0-.1-.18c-.014-.014-.014-.028-.028-.056a3,3,0,0,0-1.291-1.333,3.448,3.448,0,0,0-2.471-.333,2.954,2.954,0,0,0-2.124,1.749,2.643,2.643,0,0,0,.444,2.79,2.388,2.388,0,0,0,2.8.666,1.929,1.929,0,0,0,1.083-1.222,1.654,1.654,0,0,0-.389-1.6,1.366,1.366,0,0,0-1.874-.18,1.189,1.189,0,0,0-.292,1.36.105.105,0,0,1,0,.139.15.15,0,0,1-.069.042c-.6-.055-.875-.75-.833-1.3a1.937,1.937,0,0,1,1.235-1.624,3.029,3.029,0,0,1,3.068.417,3.182,3.182,0,0,1,.736,3.734c-.764,2.291-4.137,3.429-6.775,2.11-2.8-1.236-3.887-4.97-2.985-8.024a8.066,8.066,0,0,1,7.038-5.692,9.717,9.717,0,0,1,6.511,1.9,2.858,2.858,0,0,0-2.374.208,2.664,2.664,0,0,0-1.291,1.68,2.256,2.256,0,0,0,.875,2.471,1.856,1.856,0,0,0,1.777.194,1.734,1.734,0,0,0,.986-1.083,1.281,1.281,0,0,0-.861-1.68.833.833,0,0,0-.986.5.362.362,0,0,0,.139.458c.042.014.125.014.153-.042a1.294,1.294,0,0,1,.139-.139.412.412,0,0,1,.361-.056.508.508,0,0,1,.333.375.819.819,0,0,1-.194.805,1.279,1.279,0,0,1-1.721.111,1.98,1.98,0,0,1-.208-2.8,2.745,2.745,0,0,1,3.5-.555c.333.264.666.527.972.805a39.085,39.085,0,0,1,4.3,4.692c-4,1.1-6.886,4.234-6.886,8.121a8.3,8.3,0,0,0,.278,2.138,5.65,5.65,0,0,0,5.15,4.165.467.467,0,0,0,.139-.014h0a3.964,3.964,0,0,0,3.151-1.569,2.938,2.938,0,0,0,.417-2.721,2.635,2.635,0,0,0-2.193-1.777,2.411,2.411,0,0,0-2.54,1.374,1.932,1.932,0,0,0,0,1.638,1.656,1.656,0,0,0,1.36.93,1.362,1.362,0,0,0,1.513-1.124,1.2,1.2,0,0,0-.694-1.208c-.042-.014-.1-.042-.083-.1,0-.028.014-.042.028-.069a1.15,1.15,0,0,1,1.485.4,1.977,1.977,0,0,1,.181,2.027,2.854,2.854,0,0,1-2.5,1.694c-.069,0-.125.014-.194.014h-.139a1.661,1.661,0,0,1-.264-.014h-.069a5.272,5.272,0,0,1-4.29-3.79,7.293,7.293,0,0,1-.264-2.013c0-3.693,2.79-6.705,6.719-7.719,1.43,1.874,2.443,3.429,3.137,4.262,4.331,6.067,8.371,8.316,9.7,8.9a18.2,18.2,0,0,0,3.4,1.527.273.273,0,0,0-.1-.014,1.641,1.641,0,0,1,.194.056c.555.181,1.125.333,1.694.458a17.187,17.187,0,0,0,10.329-1.11c.264-.111.5-.236.75-.361a18.5,18.5,0,0,0,3.526-2.152C1597.807,1395.283,1601.847,1388.8,1600.153,1381.5Zm-35.372,9.162c-.43-.458-1.388-1.943-2.957-3.943a10.67,10.67,0,0,1,1.763-.153c.1,0,.18.014.278.014.222.777.472,1.569.764,2.332a24.478,24.478,0,0,0,2.388,4.609C1566.294,1392.687,1565.558,1391.729,1564.781,1390.66Zm14.341,10.967c-6.15-1.277-11.411-6.108-14.063-12.883a20.258,20.258,0,0,1-.708-2.138,12.782,12.782,0,0,1,2.277.375l.042.014h.014c6.08,1.5,12.55,6.8,15.9,14.979A17.916,17.916,0,0,1,1579.121,1401.627Zm14.438-3.693a12.666,12.666,0,0,0,3.026-5.844,9.832,9.832,0,0,0,.014-4.123,3.271,3.271,0,0,0,.375-.278,2.032,2.032,0,0,0,.611-1.93,1.669,1.669,0,0,0-1.86-1.388,1.475,1.475,0,0,0-1.18,1.263c0,.055-.014.139-.083.139a.117.117,0,0,1-.1,0,1.405,1.405,0,0,1-.042-1.9,2.421,2.421,0,0,1,2.346-.93,3.8,3.8,0,0,1,3.082,3.79A17.648,17.648,0,0,1,1593.559,1397.934Zm3.623-15.868a3.637,3.637,0,0,0-3.36.486,3.223,3.223,0,0,0-1.3,3.221,2.974,2.974,0,0,0,2.541,2.5,2.689,2.689,0,0,0,1.111-.111,9.38,9.38,0,0,1-.028,3.832,12.2,12.2,0,0,1-6.955,8.538,17.311,17.311,0,0,1-6.081,1.4c-3.4-8.427-10.023-13.882-16.34-15.437l-.042-.014h0a12.65,12.65,0,0,0-2.485-.375,24.806,24.806,0,0,1-.777-6.636,9.055,9.055,0,0,0,.18,1.041,5.969,5.969,0,0,0,3.776,4.165,4.437,4.437,0,0,0,3.374-.083c2.749-1.819,1.874-3.845,1.721-3.665-.472-.125-.666,1.4-2.346,2.388a3.741,3.741,0,0,1-2.776.083,5.15,5.15,0,0,1-3.165-3.471,13.54,13.54,0,0,1-.458-4.5c.111-.791.25-1.583.417-2.36,2.485-11.967,10.912-23.822,16.923-31.416.069.722.111,1.444.111,2.152-.042.056-.1.125-.139.18-2.457,3.318-4.942,6.289-6.886,9.371a18.2,18.2,0,0,0-2.582,9.121c.181,5.289,3.082,7.663,3.3,7.885a10.743,10.743,0,0,1-2.929-7.885,18.228,18.228,0,0,1,2.763-8.8c1.791-2.707,4.151-5.539,6.441-8.579-.055,1.18-.167,2.332-.319,3.415-1.347,8.219-3.776,14.049-4.054,15.6-2.763,8.829-2.693,14.993-2.291,18.186a9.117,9.117,0,0,0,.389,2.055,2.308,2.308,0,0,0,.111.333,9.764,9.764,0,0,0,4.567,5.414,8.247,8.247,0,0,0,6.691.625,5.24,5.24,0,0,1,2.8-.264,2.476,2.476,0,0,1,2.18,2.11,2.3,2.3,0,0,1-.042.611,1.68,1.68,0,0,1-1.083,1.36.972.972,0,0,1-.347.014.687.687,0,0,1-.389-.222.671.671,0,0,0,.361-.1.688.688,0,1,0-.708-1.18.664.664,0,0,0-.305.4,1.852,1.852,0,0,0-.1.25.846.846,0,0,0,.014.416,1.34,1.34,0,0,0,1.013.958,1.3,1.3,0,0,0,.611-.014,2.231,2.231,0,0,0,1.472-1.791,2.837,2.837,0,0,0,.056-.764,3.024,3.024,0,0,0-2.624-2.61,4.8,4.8,0,0,0-1.111-.1,6.873,6.873,0,0,0,1.166-1.027,6.669,6.669,0,0,0,1.069-8.357,5.654,5.654,0,0,0-6.511-2.4,4.818,4.818,0,0,0-3.137,4.248,4,4,0,0,0,1.471,3.1,2.106,2.106,0,0,0,2.679.278,1.741,1.741,0,0,0,.264-2.665,1.4,1.4,0,0,0-1.43-.319,1.167,1.167,0,0,0-.722.68,1.266,1.266,0,0,0,.43,1.416.941.941,0,0,1-1.235.569,3.927,3.927,0,0,1-1.347-3.054,4.611,4.611,0,0,1,3.082-3.97,5.3,5.3,0,0,1,6.025,2.374,6.145,6.145,0,0,1-1.138,7.677,7.269,7.269,0,0,1-8.857,1.083,8.978,8.978,0,0,1-4.512-8.94,11.088,11.088,0,0,1,6.775-8.621c7.677-3.137,15.84,3.11,17.214,9.759a14.176,14.176,0,0,1,.416,3A4.139,4.139,0,0,0,1597.182,1382.067Zm-23.1-16.59a.732.732,0,1,0,.527.847A.706.706,0,0,0,1574.082,1365.477Zm-.139-6.136a1.045,1.045,0,0,0-.43,2.041,1.023,1.023,0,0,0,1.18-.819A1.009,1.009,0,0,0,1573.943,1359.341Z" transform="translate(-1540.549 -1310.938)" fill="#303030"/>
</svg>
