<?xml version="1.0" encoding="utf-8"?>
<!-- Generator: Adobe Illustrator 22.0.1, SVG Export Plug-In . SVG Version: 6.00 Build 0)  -->
<svg version="1.1" id="Layer_1" xmlns="http://www.w3.org/2000/svg" xmlns:xlink="http://www.w3.org/1999/xlink" x="0px" y="0px"
	 viewBox="0 0 2000 2000" style="enable-background:new 0 0 2000 2000;" xml:space="preserve">
<path d="M1963.5,789.4c-0.3-12.3-1.5-24.6-2.8-36.8c-1.8-16.7-4.4-33.3-7.7-49.7c-9.1-46.2-23.9-90.5-43.8-133.2
	c-23.6-50.7-54.3-96.7-91.4-138.5c-45.3-51-97.8-92.9-157.7-125.4c-33-17.9-67.6-31.9-103.4-43.1c-29.6-9.2-59.7-16.8-90.2-22.2
	c-10.9-1.9-21.7-3.7-32.6-5.3c-8.2-1.2-16.5-2.2-24.8-3c-9.1-0.9-18.2-1.6-27.2-2.2c-9.9-0.7-19.8-1.4-29.7-1.6
	c-14.7-0.3-29.4-0.1-44.2-0.1c-4.8,0-9.6,0.1-14.4,0.4c-11.8,0.7-23.6,1.5-35.4,2.5c-10.5,0.9-21,1.8-31.5,3.2
	c-13.8,1.9-27.5,4.1-41.2,6.3c-21.6,3.6-43,8.4-64.2,14c-57,14.9-111.8,35.5-164.4,62c-54.5,27.5-105.3,60.7-151.8,100.2
	c-13.4,11.4-26.2,23.5-39,35.6c-16.1,15.1-31.5,30.9-46.3,47.4c-43.3,48.5-79.6,101.7-109.6,159.3c-1.2,2.4-2.6,4.8-4.2,7
	c-31.1,44.5-56.7,92-76.6,142.5c-0.6,1.6-1.4,3.2-2.2,5.3c-2.7,0-4.9,0-7.1,0c-133.6,0-267.2,0-400.8,0c-2.2,0-4.5-0.1-6.7,0
	c-4.1,0.3-8.3,0.4-12.4,1.2c-19.8,3.7-35.6,13.8-47.1,30.4c-9.1,13-12.9,27.6-12.9,43.4c0,332.2,0,664.3,0.1,996.5c0,4,0.3,8,0.7,12
	c3.4,27.9,24.3,53.8,55.4,61.2c6.7,1.6,13.6,2,20.5,2c343.2,0,686.4,0,1029.6,0c1.4,0,2.9,0.1,4.3,0c4.3-0.4,8.7-0.4,12.9-1.3
	c27-5.8,45.5-21.6,55.3-47.4c3.2-8.5,4.2-17.3,4.2-26.4c0-215.5,0-431,0-646.5c0-1.9,0-3.8,0-5.8c0-0.9,0.3-1.8,0.4-2.9
	c2.5-0.2,4.5,1.1,6.6,1.7c2.1,0.6,4.2,1.4,6.4,2.1c2.1,0.7,4.3,1.4,6.4,2c2.1,0.6,4.3,1.2,6.5,1.8c2.2,0.6,4.3,1.2,6.5,1.7
	c2,0.5,4,1,6.1,1.4c2.2,0.5,4.4,1,6.6,1.4c2.2,0.4,4.4,0.8,6.6,1.2c2.2,0.4,4.4,0.8,6.6,1.1c2.2,0.4,4.4,0.7,6.6,1
	c2.2,0.3,4.4,0.5,6.7,0.8c2.2,0.3,4.4,0.5,6.7,0.8c2.2,0.2,4.5,0.5,6.7,0.7c2.2,0.2,4.5,0.2,6.7,0.3c2.2,0.1,4.5,0.1,6.7,0.2
	c2.2,0.1,4.5,0.3,6.7,0.3c2.2,0.1,4.5,0,6.7,0c2.1,0,4.2-0.1,6.2-0.1c2.2-0.1,4.5-0.3,6.7-0.3c2.2-0.1,4.5-0.1,6.7-0.2
	c2.2-0.1,4.5-0.4,6.7-0.6c2.2-0.2,4.5-0.3,6.7-0.5c2.2-0.2,4.4-0.7,6.7-0.7c2.1-0.1,4.2-1.1,7-0.5c-1.5,1.7-2.6,3-3.8,4.3
	c-8.6,9.1-16.1,19.1-22.5,29.8c-13.9,23.3-20.6,48.7-23.2,75.5c-1.2,12.8-1.3,25.5-0.3,38.3c1.2,14.7,3.6,29.2,7.5,43.4
	c9.4,35,25.9,66.3,49,94.2c24.2,29.3,53.7,51.4,88.6,66.4c29.6,12.7,60.6,19.2,92.6,20.9c18.2,1,36.5,0.4,54.6-1.9
	c13.3-1.7,26.5-4.1,39.6-7.3c60-14.8,112.4-43.3,156.9-86.5c61.6-59.9,95.9-140,101.6-205.8c1-11,2.1-22,2.4-33
	c0.6-20.3,0.3-40.6-1.5-60.9c-1.3-13.5-2.9-27-5.3-40.4c-5.4-31-13.9-61.1-25.5-90.3c-0.6-1.6-1.2-3.3-1.8-5c1.1-1.7,2-3.3,3.1-5
	c7.5-11.9,14.4-24.2,20.6-36.8c16.6-34,28.2-69.6,36.5-106.4c5.1-22.5,8.7-45.2,10.8-68.2c1.5-16.4,2.6-32.9,2.6-49.3
	C1964.2,810.9,1963.8,800.1,1963.5,789.4z M582.3,808.5c6-14.6,12.6-29,19.7-43.2c28.8-57.5,66-109.1,110.8-155.2
	c2.5-2.6,5.2-4.7,8.2-6.5c18.2-10.9,37.7-18.1,58.5-21.9c14.2-2.6,28.6-3.5,43-2.6c33,2.2,63.3,12.2,89.5,33
	c24.7,19.6,41.6,44.5,49.1,75.4c6.3,26,5.1,51.7-5,76.7c-7.9,19.5-20.6,35.2-38.3,46.7c-3.1,2-6.1,3-9.8,3c-24-0.1-48-0.1-72,0
	c-3.4,0-6.1-0.9-8.8-2.9c-12.8-9.9-21.3-22.5-23.9-38.6c-2-12.2,0.2-23.6,7.4-33.8c2.3-3.3,5.1-6.1,8.4-8.5c6.3-4.4,13.3-5.4,20.6-4
	c4.8,0.9,9,3.4,11.9,7.5c1.9,2.7,3.8,5.6,5.6,8.4c3.2,4.9,7.1,6.1,12.3,3.7c3.6-1.7,6.2-4.5,8-8c2.6-5.3,3.5-10.9,2.9-16.8
	c-1.2-10.6-5.8-19.5-13.8-26.7c-8-7.2-17.3-11.5-27.9-12.9c-23.4-3.2-42.8,4.6-58.5,21.9c-11.8,13.1-18.3,28.7-20.1,46.3
	c-2.1,20.9,2.8,40.3,13.3,58.4c1,1.6,1.9,3.3,3.1,5.4c-4.5,0.7-190.9,0.7-195.4,0.1C580.5,811.6,581.6,810.1,582.3,808.5z
	 M1146.2,1820.4c0,6.6-0.2,13.1-2.1,19.5c-7.4,24.3-23.6,39.3-48.3,45c-4.2,1-8.5,1.2-12.9,1.2c-17.4-0.1-34.9,0-52.3,0H631.6
	c-149.8,0-299.5,0-449.3,0c-6.1,0-12.1-0.5-18.1-1.9c-22.8-5.6-42.8-24.8-46.8-52.1c-0.4-2.5-0.4-5.1-0.5-7.7c-0.1-1.8,0-3.5,0-5.3
	c0-288,0-576,0-864c0-5.6,0-11.2,1.2-16.7c5.6-27.6,28.5-46.5,52.8-49.5c4.3-0.5,8.6-0.7,12.9-0.7c82.7,0,165.4,0,248.2,0
	c215.7,0,431.4,0,647,0c6.3,0,12.4,0.4,18.6,1.7c23.7,5.3,43.5,25.2,47.6,50.3c0.5,3,0.7,6,0.9,9.1c0.1,1.6,0,3.2,0,4.8
	C1146.1,1242.8,1146.1,1531.6,1146.2,1820.4z M1181.3,816.4c-0.3,0.1-0.6,0.2-0.9,0.4c-2.6,1.6-5.1,1.8-8.2,0.7
	c-7.9-2.8-16.2-3.7-24.5-3.7c-61,0-121.9,0-182.9,0c-1.6,0-3.2,0-4.8,0c-0.6,0-1.2-0.2-2.2-0.4c0.7-1.1,1.1-1.9,1.7-2.7
	c12.7-16.7,20.8-35.5,25-56c2.4-12,3.3-24,2.7-36.3c-3.2-69.8-51.7-122.2-105.3-142c-13-4.8-26.2-8.1-40-9.7
	c-37.5-4.3-72.6,2.6-104.9,22.2c-1.4,0.9-2.9,1.7-4.3,2.6c-0.1-0.2-0.3-0.3-0.4-0.5c1.1-1.1,2.1-2.2,3.2-3.3
	c23.6-21.9,48.7-42,75.3-60.1c61.9-42.3,129.3-72.3,202-90.6c19.8-5,39.9-9,60.2-12c13.3-2,26.6-3.6,40-4.8
	c10.5-0.9,21-1.7,31.6-1.9c10.7-0.2,21.4-0.7,32.1-0.5c11,0.2,22.1,0.8,33.1,1.5c9.1,0.6,18.2,1.3,27.2,2.3
	c9.5,1.1,19.1,2.2,28.5,3.9c15.4,2.8,30.8,5.6,46.1,9c37.4,8.3,72.8,22,106.4,40.3c80.7,44,143.6,106.1,188.2,186.7
	c18.4,33.2,31.8,68.4,40.7,105.3c3.2,13.2,6.3,26.5,8.3,39.9c1.3,9,2.3,18.1,3.4,27.1c0.2,1.2,0,2.5,0,3.7c-2.1,0.6-3.3-0.6-4.7-1.3
	c-13.9-6.6-28-12.6-42.4-17.8c-23-8.4-46.6-14.7-70.7-19.3c-13.2-2.5-26.4-4.6-39.8-6.3c-7.9-1-15.9-1.5-23.9-2.3
	c-23.1-2.3-46.3-2.1-69.5-1.6c-8.3,0.2-16.6,0.9-24.9,1.5c-8.1,0.6-16.3,1.3-24.4,2.2c-8.1,0.9-16.2,2-24.2,3.3
	c-9.6,1.6-19.2,3.5-28.8,5.1c-2,0.3-4.2,0.4-6.2,0.2c-7.5-0.9-14.9-2-22.3-3c-0.5-0.1-0.9-0.1-1.4-0.1c-3.8,0-7.7,0.1-11.5,0.1
	C1235.2,798.4,1207.6,804.5,1181.3,816.4z M1217,857.7c-0.8-2-2.2-3.8-2.4-6.2c0.5-0.4,1-0.8,1.6-1c8.1-2.9,16.2-5.8,24.3-8.7
	c0.3-0.1,0.6-0.2,0.9-0.3c0.8-0.4,1.8-0.6,2.8-0.7c0.9-0.2,1.8-0.3,2.7-0.3c0.1,0,0.2,0,0.3,0c0.2,0,0.4,0,0.6,0
	c28.7,0.8,55.6,7.7,79.5,24.3c20.1,13.9,34.3,32.4,41.9,55.7c6.4,19.5,6.3,39-0.5,58.3c-2.2,6.2-5.3,12-9.5,17.1
	c-5.7,7-12.7,12.1-21.3,14.9c-1.3,0.4-2.8,0.8-4.2,0.7c-3.3-0.1-5.3-2.4-4.8-5.8c0.1-1.1,0.6-2.2,0.8-3.3
	c1.9-11.6,2.4-23.2,0.2-34.8c-3.5-18.7-13.1-33.1-29.6-42.6c-12.3-7.1-25.6-10.8-39.8-10.4c-11.1,0.3-21.8,3-31.9,7.9
	c-1.5,0.7-3,1.8-5.1,2c-0.1-1.1-0.4-2-0.4-2.9c0-9.9,0-19.8,0-29.7c0-0.2,0-0.5,0-0.7c0-0.1,0-0.2,0-0.3c-0.1-6.2-0.8-12.7-1.8-18.8
	C1220.4,867.2,1218.2,862.6,1217,857.7z M1281,1231.1c-26.9-4-49.8-10.8-57.5-14.8c-0.7-1.7-0.4-3.7-0.4-5.5c0-17.1,0-34.2,0-51.3
	v-65.1c1.1,0.3,1.9,0.3,2.5,0.6c4.2,2.3,8.3,4.8,12.6,7c1.9,1,2.8,2.5,3.7,4.2c3.3,6.1,6.4,12.2,9.8,18.1c16.3,28,36.8,52.6,61.1,74
	c14,12.3,28.9,23.3,44.9,32.7c0.8,0.5,1.6,1,2.4,1.5C1333.5,1235.5,1307.2,1235,1281,1231.1z M1374.5,1231.5
	c-1.9,0.2-3.8,0.5-5.7,0.8c-3,0.5-5.6-0.2-8.2-1.8c-13-7.5-25.5-16-37.1-25.5c-25.5-20.8-47.4-44.8-64.9-72.7
	c-4.9-7.8-9.3-16-13.9-24.1c-0.6-1.1-0.9-2.2-1.7-4c2.1,0.8,3.6,1.2,5,1.8c19.1,7.5,39,10,59.3,8.3c27-2.3,51.3-11.8,72.7-28.5
	c32.1-25.1,52-57.8,59-97.9c5.3-30.8,0.9-60.6-11.9-89c-16-35.4-41.5-61.8-75.8-80c-1.3-0.7-2.5-1.4-3.7-2.1
	c-0.1-0.1-0.1-0.3-0.2-0.6c3.9-1.4,8.1-1.5,12.1-2c8.1-1.1,16.2-1.9,24.3-2.7c4.3-0.4,8.6-0.8,12.9-1c19.8-1.2,39.6-1.7,59.5-0.9
	c13.1,0.5,26.2,1.4,39.2,2.8c32.5,3.5,64.5,9.3,95.7,19.1c22.3,7,43.9,15.7,64.8,26.2c1.3,0.6,2.5,1.4,3.8,2.1
	c0.3,0.2,0.4,0.5,0.8,0.8c0.1,1,0.2,2.1,0.2,3.2c-0.1,12.3,0.2,24.6-0.3,36.9c-0.5,12.1-1.7,24.2-3.4,36.3
	c-2.5,18.2-6.2,36.2-10.7,54.1c-23,91-85.2,161-154.1,200.3c-3.8,2.2-7.7,3.7-12,4.3c-20,2.9-38.8,9.5-56.4,19.2
	c-5,2.8-9.9,5.9-14.8,8.9c-1.8,1.1-3.6,2-5.7,2.5C1393.7,1228.4,1384.2,1230.3,1374.5,1231.5z M1667.7,996.9
	c5.8-20.2,10-40.7,12.7-61.5c1.9-14.3,3.3-28.6,3.8-43c0.2-5.9,0.6-11.8,0.9-17.7c1.8-0.6,2.8,0.7,4,1.4
	c17.5,10.6,34.3,22.4,50.2,35.3c52.1,42.2,93.6,92.9,123.9,152.7c5.3,10.4,9.8,21.2,14.6,31.8c0.5,1.2,0.9,2.4,1.4,3.8
	c-1.1,1.6-2.3,3.4-3.5,5c-20.7,28.1-44.6,53.1-71.7,75.2c-45.5,37-96.3,63.8-152.9,79.7c-4.1,1.2-8.3,2.2-12.5,3.2
	c-0.8-1.1-1.6-1.9-2.2-2.8c-15.1-22.8-35.8-38.9-60.2-50.6c-15.2-7.3-31.3-11.9-48-14.4c-1.8-0.3-3.8,0.1-5.6-0.9
	c0.6-1.8,2.1-2.2,3.2-3c10.5-7.1,20.7-14.6,30.3-22.7C1610.6,1122.5,1648,1065.5,1667.7,996.9z M1484.3,1270.2
	c-15.9,0.8-77.4-15.8-94.9-25.7c1.3-0.6,2.4-0.9,3.6-1.1c12.3-1.9,24.5-4.7,36.5-8c2.9-0.8,5.6-1,8.5-0.2c3.8,1.1,7.8,1.9,11.5,3.2
	c14.8,5.3,25.8,15,33.5,28.7C1483.6,1268.1,1483.9,1269.2,1484.3,1270.2z M1899.5,1163.2c4.3,17.9,7.4,36,9.5,54.3
	c2.3,21,3.5,42.1,2.9,63.2c-0.5,18.2-1.6,36.4-4.5,54.5c-2.5,16.2-6.6,31.9-11.8,47.4c-22.4,66.3-61.4,120.8-117.1,163.1
	c-31.8,24.2-67.3,41-105.6,52.3c-16.1,4.7-32.5,8.2-49.2,10.4c-8.7,1.1-17.5,2.1-26.3,2.3c-5,0.1-9.9,0.7-14.9,0.5
	c-9.1-0.3-18.2-0.8-27.3-1.4c-11.2-0.7-22.2-2.6-33.2-5c-41.8-9.2-79.1-27.4-110.3-56.9c-36.6-34.7-60.8-76.7-71.6-126.1
	c-4.6-21.1-6.1-42.4-4.6-63.9c2-28.1,8.9-54.9,23.8-79.2c6.7-11,14.5-21.1,23.4-30.3c0.7-0.7,1.4-1.4,2.1-2c0.2-0.2,0.5-0.3,1.1-0.7
	c0.8,0.3,1.9,0.5,2.9,0.9c23.4,10.2,47.7,17.4,72.7,22.3c6.7,1.3,13.6,2.2,20.3,3.3c0.9,0.2,1.9,0.3,2.8,0.6
	c0.7,0.3,1.5,0.8,1.8,1.4c2.4,5.1,4.3,10.3,5.3,15.5c-0.9,2.1-2.5,2.9-3.9,4c-8.1,6.3-15.7,13.1-22.4,20.9
	c-8.3,9.5-15,19.9-19.4,31.7c-5.9,15.9-6.9,32.1-2.9,48.6c1,4.3,2.7,8.5,4.4,12.7c3.7,9.2,8.2,18,14.2,26
	c6.2,8.3,13.7,15.2,22.7,20.4c14.7,8.6,30.5,14.1,47.5,15.6c23.9,2.2,46.6-2.5,67.2-15c30.5-18.4,50-45.2,58.8-79.7
	c3.4-13.3,4.6-26.8,3.7-40.5c-1.4-22.9-7.8-44.3-19-64.3c-0.9-1.5-1.7-3.1-2.9-5.2c99.2-26.2,179.1-80.1,240.5-162.2
	c0.7,1.4,1.3,2.5,1.7,3.6C1889.1,1125,1894.9,1143.9,1899.5,1163.2z M1961.9,825.2c-0.3,15.2-1.1,30.4-2.6,45.5
	c-2.5,27.1-7,53.9-13.6,80.3c-8.3,33.1-19.3,65.3-34.5,95.9c-5.8,11.6-12.1,22.9-19.1,33.8c-0.7,1.1-1.4,2.1-2.4,3.5
	c-2.7-4.6-4.2-9.3-6.3-13.7c-2.1-4.5-4.2-9-6.4-13.4c-2.2-4.4-4.4-8.9-6.8-13.2c-2.4-4.5-4.9-9-7.5-13.4c-2.5-4.3-5-8.6-7.6-12.8
	c-2.6-4.2-5.3-8.4-8-12.5c-2.7-4.1-5.5-8.2-8.4-12.3c-2.9-4-5.8-8.1-8.8-12c-3-4-6-7.9-9.1-11.7c-3.1-3.9-6.3-7.7-9.5-11.4
	c-3.3-3.9-6.7-7.7-10.2-11.5c-3.3-3.7-6.7-7.3-10.2-10.8c-3.5-3.6-7-7.1-10.5-10.5c-3.6-3.5-7.2-6.9-10.8-10.2
	c-3.7-3.3-7.4-6.6-11.1-9.9c-3.8-3.2-7.6-6.4-11.4-9.5c-3.9-3.1-7.8-6.2-11.7-9.2c-4.1-3.1-8.2-6.1-12.4-9.1
	c-4-2.9-8.1-5.7-12.3-8.4c-4.1-2.7-8.3-5.4-12.5-8c-4.2-2.6-8.5-5.2-12.8-7.8c-0.2-0.9-0.4-1.8-0.5-2.8c-0.2-3.8-0.5-7.7-0.6-11.5
	c-0.5-14.1-2.1-28.1-4.3-42c-5.1-33-13.5-65.1-25.7-96.2c-38.1-96.9-99.7-175.1-186-233.6c-34.6-23.5-72.2-41-111.9-54.2
	c-26.4-8.8-53.3-15.8-80.7-21c-13.3-2.5-26.8-4.6-40.3-6.2c-14.8-1.8-29.6-3-44.4-3.9c-19.2-1.1-38.4-1-57.6-0.5
	c-12.5,0.3-24.9,1.1-37.3,2.5c-10,1.1-20,2-30,3.3c-15,2-30,4.6-44.9,7.7c-37.3,7.8-73.7,18.6-109.2,32.5
	c-83.3,32.6-157.1,80-221.7,141.7c-24.7,23.6-47.4,48.9-68.3,76c-0.8,1-1.5,2-2.4,3.2c-0.7-1.7,0.6-2.7,1.1-3.7
	c13-23.7,27.2-46.7,42.5-69c31.5-45.6,67.7-87.1,108.3-124.8c15.8-14.7,31.7-29.3,48.5-42.9c55.1-44.5,115.4-80.4,180.3-108.6
	c50.6-22,102.9-38.7,156.8-50.3c18.8-4,37.6-7.4,56.6-10.1c11.9-1.7,23.8-2.9,35.7-4.2c14-1.5,28-2.3,42.1-3
	c21.1-1.1,42.2-1,63.3-0.4c12.8,0.3,25.5,1.5,38.3,2.4c8,0.6,15.9,1.3,23.9,2.2c9.8,1.2,19.7,2.5,29.5,4c15,2.3,29.9,5.1,44.8,8.4
	c45.5,10.1,90,23.5,132.6,42.7c55.7,25.1,105.9,58.8,150.8,100.2c51.7,47.7,93.7,102.7,125.3,165.5c23.5,46.7,40.5,95.6,50.7,146.9
	c3.3,16.6,5.9,33.4,7.8,50.2c1.3,12.4,2.3,24.8,2.9,37.3C1961.9,802.2,1962.1,813.7,1961.9,825.2z"/>
</svg>
