<svg xmlns="http://www.w3.org/2000/svg" width="450" height="133.758" viewBox="0 0 450 133.758">
  <path id="decorativedivider" d="M168.475,729.643c-17.542,1.8-27.029-6.671-27.883-7.317.831.692,9.879,9.763,28,8.609,9.417-.554,20.1-4.916,30.237-11.91,9.833-7.686,19.135-17.173,29.614-26.682,20.912-18.7,38.385-38.154,56.042-44.294,17.45-7.871,29.129-.9,28.644-.923.6.069-10.987-7.686-29.106-.3-18.327,5.7-36.515,25-57.335,43.6-10.41,9.417-19.9,19.273-29.129,26.775C187.794,724.265,177.569,728.812,168.475,729.643ZM155.9,726.458a2.387,2.387,0,1,0-3.116-1.523A2.451,2.451,0,0,0,155.9,726.458Zm20.266-.323a3.4,3.4,0,1,0-4.432-2.169A3.5,3.5,0,0,0,176.161,726.134Zm249.212-89.788a83.331,83.331,0,0,0-22.62-3.047c-25.551.046-51.149,10.872-74.161,25.321a40.947,40.947,0,0,0-25.459-8.448c-16.573.023-33.768,8.471-46.14,20.358-17.242,16.642-74.415,79.839-134.035,92.05a41.336,41.336,0,0,1-12.672-.762A17.211,17.211,0,0,1,98.1,751.178a11.74,11.74,0,0,1-.115-8.263c2.954-6.209,8.079-7.225,7.34-8.794.415-.6-6.9-2.655-11.933,7.132a16.305,16.305,0,0,0,1.616,13.064c2.77,5.24,9.117,9.348,15.511,10.064-2.4.185-4.8.3-7.178.3A80.283,80.283,0,0,1,81.365,761.7c-30.006-8.448-50.964-31.83-50.941-59.8a60.047,60.047,0,0,1,2.816-17.935c4.87-15.765,20.889-27.952,36.377-27.906.993,0,1.985.069,2.978.162a9.106,9.106,0,0,0,.092,3.439,10.191,10.191,0,0,0,9.394,7.8A11.132,11.132,0,0,0,92.629,661.9a12.563,12.563,0,0,0,.485-11.633,14.368,14.368,0,0,0-9.764-8.1,48.866,48.866,0,0,1,10.341.392c23.128,2.424,47.248,28.136,39.123,55.4-3.832,12.949-14.7,23.243-27.1,26.036C93.275,727.034,80.3,721.264,73.7,711.639c-6.924-9.556-6.371-22.712.669-30.583,6.44-8.31,17.934-10.779,25.782-6.463,8.079,3.9,11.933,12.926,10.156,19.758A15.789,15.789,0,0,1,97.8,706.238c-5.563.392-8.91-1.616-10.848-3.531-.392-1.292-.762-3.185,1.523-4.385,1.385,1.2,3.139,1.939,4.986,1.016a4.063,4.063,0,0,0,2.1-2.677,4.846,4.846,0,0,0-1.57-4.778,6,6,0,0,0-9,1.823,7.237,7.237,0,0,0,1.847,9.071c1.893,2.008,5.24,4.177,11.056,3.97a16.5,16.5,0,0,0,13.41-12.118c2.054-7.248-1.8-16.988-10.41-21.374-8.379-4.847-21.027-2.4-28.137,6.486a22.238,22.238,0,0,0-3.116,4.339c-.577-7.2-5.147-11.841-10.248-11.841h-.3c-3.508.162-7.5,2.285-8.171,6.094a3.758,3.758,0,0,0-.069.716,4.551,4.551,0,0,0,3.832,4.478,4.2,4.2,0,0,0,.485.046,3.192,3.192,0,0,0,1.731-.531,2.386,2.386,0,0,0,1.316-1.2,2.354,2.354,0,1,0-4.247-2.031,2.379,2.379,0,0,0-.208,1.246,2.547,2.547,0,0,1-1.016-2.031,2.507,2.507,0,0,1,.023-.416c.3-2.47,3.531-4.432,6.371-4.5h.231c4.109,0,8.379,4.108,8.379,11.425a21.525,21.525,0,0,1-.646,5.055,28.293,28.293,0,0,0,4.409,22.551c7.017,10.548,21.143,17.034,34.83,13.78,13.549-2.978,25.251-14.033,29.406-28.044,5.493-18.812-2.908-36.492-16.019-47.5a147.38,147.38,0,0,1,16.088,10.594c5.724,3.578,17.519,14.288,35.684,22.5,8.91,3.9,20.82,6.486,31.576,1.569,10.594-4.431,18.488-15.949,17.819-27.7-.346-11.448-8.356-22.943-19.342-24.028-10.479-1.5-20.681,6.094-20.658,14.657a13.821,13.821,0,0,0,2.216,8.609,11.694,11.694,0,0,0,4.8,4.385,11.45,11.45,0,0,0,11.033-.554,10.2,10.2,0,0,0,5.17-7.894,9.043,9.043,0,0,0-4.339-8.656,8.252,8.252,0,0,0-9.879.693,6.521,6.521,0,0,0-2.285,5.1,5.7,5.7,0,0,0,2.908,4.824,4.707,4.707,0,0,0,6.324-1.339c1.039-1.57.554-3.324-.462-4.778-.092-.092-.254-.277-.115-.438a.358.358,0,0,1,.185-.185c2.008-.416,3.624,1.547,4.062,3.393a6.741,6.741,0,0,1-2.331,6.6,10.407,10.407,0,0,1-14.749-1.315,13.774,13.774,0,0,1-1.777-10.248c1.385-8.656,13.018-14.726,23.151-11.264,10.433,3.347,16.157,16.111,14.426,27.236-1.639,11.518-11.587,20.543-22.2,22.8a35.937,35.937,0,0,1-17.981-1.27,9.889,9.889,0,0,0,7.594-3.116,9.252,9.252,0,0,0,2.516-6.809,7.776,7.776,0,0,0-5.4-7.2,6.43,6.43,0,0,0-6.024,1.2,5.818,5.818,0,0,0-2.1,4.524c0,2.424,1.916,4.847,4.547,4.593a2.808,2.808,0,0,0,2.7-2.654c0-.6-.3-1.292-.946-1.362a.409.409,0,0,0-.462.277,5.241,5.241,0,0,1-.323.6,1.376,1.376,0,0,1-1.108.554,1.843,1.843,0,0,1-1.477-.854,2.906,2.906,0,0,1-.208-2.839,4.382,4.382,0,0,1,5.517-2.147c3.647,1.27,4.87,5.586,3.578,8.956-1.731,4.478-6.671,6.324-11.01,5.378a76.081,76.081,0,0,1-8.84-3.947c-16.411-9-26.913-18.511-30.006-20.265-17.311-12.949-30.768-17.288-37.623-18.627a39.67,39.67,0,0,0-5.84-1.016c-25.528-3.278-46.256,12.695-55.742,28.021a67.259,67.259,0,0,0-3.878,7.248,39.307,39.307,0,0,0-3.578,8.056A62.123,62.123,0,0,0,28,701.875c0,29.268,21.9,53.5,52.718,62.136a83.321,83.321,0,0,0,22.62,3.047c25.551-.046,51.149-10.871,74.161-25.321a40.9,40.9,0,0,0,25.459,8.448c16.573-.023,33.768-8.494,46.14-20.335,17.242-16.642,74.392-79.793,133.989-92.05a41.663,41.663,0,0,1,12.718.762A17.208,17.208,0,0,1,407.993,649.2a11.539,11.539,0,0,1,.092,8.263c-2.955,6.209-8.079,7.225-7.34,8.794-.415.6,6.9,2.654,11.933-7.132a16.306,16.306,0,0,0-1.616-13.064c-2.793-5.24-9.14-9.371-15.557-10.064,2.4-.185,4.824-.3,7.225-.3a80.412,80.412,0,0,1,21.974,2.977c30.006,8.448,50.964,31.83,50.941,59.781a60.045,60.045,0,0,1-2.816,17.935c-4.87,15.742-20.889,27.928-36.354,27.906-.993,0-2.008-.07-2.978-.162a8.988,8.988,0,0,0-.092-3.416,10.192,10.192,0,0,0-9.394-7.8,11.091,11.091,0,0,0-10.548,5.563,12.564,12.564,0,0,0-.485,11.633,14.31,14.31,0,0,0,9.764,8.1,48.955,48.955,0,0,1-10.341-.392c-23.128-2.424-47.248-28.136-39.123-55.4,3.832-12.949,14.7-23.243,27.1-26.036,12.441-3.047,25.413,2.724,32.014,12.372,6.925,9.556,6.37,22.712-.669,30.583-6.44,8.309-17.934,10.779-25.782,6.463-8.079-3.9-11.933-12.926-10.156-19.758a15.789,15.789,0,0,1,12.51-11.887c5.563-.392,8.909,1.616,10.848,3.531.392,1.293.762,3.185-1.523,4.385-1.385-1.2-3.139-1.939-4.986-1.015a4.062,4.062,0,0,0-2.1,2.677,4.846,4.846,0,0,0,1.57,4.778,6.024,6.024,0,0,0,9.025-1.824,7.236,7.236,0,0,0-1.846-9.071c-1.893-2.008-5.24-4.178-11.056-3.97a16.469,16.469,0,0,0-13.41,12.118c-2.054,7.248,1.8,16.988,10.41,21.374,8.379,4.847,21.027,2.4,28.137-6.486a21.562,21.562,0,0,0,3.116-4.34c.577,7.178,5.147,11.818,10.225,11.841h.254c3.532-.138,7.548-2.285,8.217-6.094a3.852,3.852,0,0,0,.046-.716,4.534,4.534,0,0,0-3.832-4.478,3.442,3.442,0,0,0-.508-.046,3.235,3.235,0,0,0-1.777.554,2.386,2.386,0,0,0-1.293,1.177,2.364,2.364,0,0,0,4.27,2.031,2.463,2.463,0,0,0,.208-1.269,2.6,2.6,0,0,1,1.016,2.008,2.5,2.5,0,0,1-.023.416c-.3,2.447-3.531,4.409-6.37,4.478h-.231c-4.109,0-8.355-4.108-8.379-11.4a21.936,21.936,0,0,1,.623-4.963,28.239,28.239,0,0,0-4.386-22.643c-7.017-10.548-21.143-17.034-34.83-13.78-13.549,2.978-25.251,14.033-29.406,28.044-5.493,18.812,2.908,36.492,16.019,47.5a147.337,147.337,0,0,1-16.088-10.594c-5.724-3.577-17.519-14.287-35.684-22.481-8.91-3.878-20.82-6.486-31.576-1.57-10.594,4.432-18.488,15.949-17.819,27.7.346,11.448,8.356,22.943,19.342,24.028,10.479,1.5,20.681-6.094,20.658-14.657a13.82,13.82,0,0,0-2.216-8.609,11.693,11.693,0,0,0-4.8-4.385,11.45,11.45,0,0,0-11.033.554,10.2,10.2,0,0,0-5.17,7.894,9.042,9.042,0,0,0,4.339,8.656,8.251,8.251,0,0,0,9.879-.693,6.521,6.521,0,0,0,2.285-5.1,5.705,5.705,0,0,0-2.908-4.824,4.685,4.685,0,0,0-6.324,1.339c-1.039,1.57-.554,3.323.462,4.755.092.092.254.277.115.438a.357.357,0,0,1-.185.185c-2.008.416-3.6-1.547-4.062-3.393a6.741,6.741,0,0,1,2.331-6.6,10.407,10.407,0,0,1,14.749,1.315,13.668,13.668,0,0,1,1.777,10.248c-1.385,8.656-13.018,14.726-23.151,11.264-10.433-3.347-16.157-16.111-14.449-27.236,1.639-11.518,11.587-20.566,22.228-22.8A35.937,35.937,0,0,1,327,715.678a9.89,9.89,0,0,0-7.594,3.116,9.252,9.252,0,0,0-2.516,6.809,7.776,7.776,0,0,0,5.4,7.2,6.431,6.431,0,0,0,6.024-1.2,5.818,5.818,0,0,0,2.1-4.524c0-2.424-1.916-4.847-4.547-4.593a2.807,2.807,0,0,0-2.7,2.654c0,.6.3,1.292.946,1.362a.409.409,0,0,0,.462-.277,5.241,5.241,0,0,1,.323-.6,1.376,1.376,0,0,1,1.108-.554,1.843,1.843,0,0,1,1.477.854,2.905,2.905,0,0,1,.208,2.839,4.41,4.41,0,0,1-5.54,2.147c-3.647-1.27-4.87-5.586-3.578-8.956,1.731-4.478,6.671-6.324,11.01-5.378a74.376,74.376,0,0,1,8.84,3.947c16.411,9,26.913,18.511,30.006,20.266,17.311,12.949,30.791,17.288,37.646,18.627a39.9,39.9,0,0,0,5.817,1.015c25.482,3.324,46.233-12.649,55.719-27.975a67.816,67.816,0,0,0,3.9-7.271,42.224,42.224,0,0,0,3.578-8.01A62.337,62.337,0,0,0,478,698.529C478.092,669.238,456.188,645,425.374,636.347Zm-348.9,6.763c6.07-.208,12.418,2.723,13.941,9.232a8.28,8.28,0,0,1-2.377,8.286c-1.777,1.523-4.8,2.331-6.509.485a.406.406,0,0,1-.046-.323c-.023-.254.277-.323.439-.346,2.054-.739,3.808-2.123,3.878-4.455a5.8,5.8,0,0,0-5.378-5.886,7.017,7.017,0,0,0-6.371,2.747,11.354,11.354,0,0,0-.623.969,30.11,30.11,0,0,0-3.808-.231c-10.133.023-20.243,4.755-27.836,12.21C49.281,655.759,61.607,646.226,76.471,643.11ZM247.414,728.1c-11.956,11.494-28.714,19.688-44.455,19.665a38.557,38.557,0,0,1-23.266-7.409c37.185-23.913,67.283-56.873,78.985-68.068,11.956-11.518,28.714-19.689,44.455-19.666a38.558,38.558,0,0,1,23.266,7.409C289.215,683.941,259.116,716.9,247.414,728.1Zm182.23,29.175c-6.07.208-12.418-2.724-13.941-9.233a8.232,8.232,0,0,1,2.377-8.286c1.777-1.523,4.8-2.331,6.509-.485a.531.531,0,0,1,.046.323c.023.254-.277.323-.439.346-2.054.716-3.808,2.124-3.878,4.455a5.783,5.783,0,0,0,5.378,5.886,7.017,7.017,0,0,0,6.371-2.747,6.463,6.463,0,0,0,.623-.992,30.143,30.143,0,0,0,3.808.254c10.156-.023,20.266-4.755,27.836-12.21C456.834,744.6,444.508,754.156,429.644,757.271Zm-92-86.533c17.542-1.8,27.029,6.67,27.883,7.317-.831-.693-9.879-9.764-28-8.61-9.417.554-20.1,4.917-30.237,11.91-9.833,7.686-19.135,17.173-29.614,26.682-20.912,18.7-38.385,38.154-56.042,44.294-17.45,7.871-29.129.9-28.644.923-.6-.069,10.987,7.686,29.106.3,18.327-5.7,36.515-25,57.335-43.6,10.387-9.417,19.9-19.273,29.129-26.775C318.3,676.116,328.523,671.593,337.64,670.739Zm12.556,3.185a2.387,2.387,0,1,0,3.116,1.523A2.451,2.451,0,0,0,350.2,673.924Zm-20.266.323a3.4,3.4,0,1,0,4.432,2.17A3.5,3.5,0,0,0,329.931,674.247Z" transform="translate(-28 -633.3)" fill="#707070"/>
</svg>
