<?xml version="1.0" encoding="utf-8"?>
<!-- Generator: Adobe Illustrator 22.0.1, SVG Export Plug-In . SVG Version: 6.00 Build 0)  -->
<svg version="1.1" id="Layer_1" xmlns="http://www.w3.org/2000/svg" xmlns:xlink="http://www.w3.org/1999/xlink" x="0px" y="0px"
	 viewBox="0 0 2000 2000" style="enable-background:new 0 0 2000 2000;" xml:space="preserve">
<path d="M1804,36.2c-0.1,0-0.2,0-0.2,0C1803.8,36.2,1803.9,36.2,1804,36.2z M1922.9,58.5c-8.4-6.5-17-11.5-25.4-15.5
	c-1.8-0.9-3.5-1.8-5.4-2.5c-25.4-10.8-50.9-12.9-74.4-8c-4.1,0.9-8.2,2-12.2,3.3c-0.7,0.2-1.2,0.3-1.4,0.4c0.2,0,0.4-0.1,0.7-0.1
	c-8.5,2.8-16.7,6.5-24.5,11c-9.6,4.1-38.7,20.4-69.9,64.1c-5.1,5.9-12.3,17.2-22.6,30.7c-28.4-7.3-48.4-29-48.4-55.6
	c0-4.7,0.6-9.6,1.9-14.5c3.7-14.2,17.1-25.9,30.9-27.3c0.2,0,0.3,0,0.5,0c0.6,0,1.3-0.1,1.9-0.1c0.3,0,0.6,0,1,0
	c0.4,0,0.9,0.1,1.4,0.1c7.6,0.6,14.5,4.5,18,12.2c2.2,4.8,2,10.3-1.3,14.7c-2.5,3.1-7.2,5.5-10.7,2.9c-0.1-0.2-0.2-0.3-0.2-0.5
	c-0.1-0.4,0.4-0.6,0.6-0.7c3.2-1.9,5.7-4.8,5-8.7c-0.8-5.4-5.7-8.5-10.9-8.1c-4.3,0.3-7.9,3-9.8,6.7c-1.8,3.7-1.7,7.9,0,11.8
	c3.2,7.1,10.5,10.9,18.3,9.9c7.5-0.9,13.4-5.9,15.8-12.8c2.3-6.7,1.1-13.8-3-19.6c-4.8-6.8-14.3-11.6-22.7-11.3c0,0,0,0,0,0
	c-0.3,0-0.7-0.1-1-0.1c-16.5,0.1-32.6,13.2-37.1,30c-1.4,5.2-2,10.4-2,15.4c0,28,20.8,50.6,49.6,58.5c-8.3,10.6-18.5,22.3-31,33.8
	c-2.2,2-4.6,3.9-7,5.8c-8.1,4.5-19,3.9-25.2-4c-4.7-5.9-5-15.4,1.5-20.2c3.8-2.8,9.4-2.8,12.4,0.8c1.3,1.6,2,3.7,1.4,5.8
	c-0.4,1.2-1.2,2.3-2.4,2.7c-0.8,0.2-1.8,0.2-2.6-0.4c-0.4-0.3-0.7-0.7-1-1c-0.2-0.4-0.8-0.4-1.1-0.3c-1.2,0.6-1.4,2.2-1,3.3
	c0.9,2.9,4.1,4.3,7.1,3.6c5.4-1.1,7.8-7.2,6.2-12.1c-1.1-3.5-3.7-6.3-7.1-7.8c-4.2-1.8-8.9-1.2-12.8,1.4c-5.9,3.9-8,11.2-6.3,17.8
	c1.4,5.2,4.6,9.4,9.3,12.1c5.2,3,11.6,3.4,17.1,1.5c-13.3,9.1-29.4,15.6-46.9,13.7c-22.8-1.8-44.5-18.3-50.7-41
	c-6.5-22,1.3-48.9,21.5-57.8c19-9.5,43.4-1.3,48.8,15.2c4.9,12,0.7,21.7-5.3,26.9c-5.9,4.6-14.3,6.4-22.1,3
	c-4.8-2.1-8.4-6.3-8.9-11.7c-0.2-4,1.7-8.9,6-9.4c0.2,0,0.4,0.1,0.5,0.3c0.4,0.2,0.2,0.7,0,1c-1.1,3.5-1,7.4,2.1,9.8
	c4.2,3.4,9.9,2.5,13.5-1.3c3-3.1,3.9-7.5,2.8-11.5c-1.1-4-4-7-7.8-8.8c-7.1-3.2-15.1-1.1-20.2,4.8c-5,5.7-6,13.3-3.2,20.1
	c2.7,6.5,8.4,11,15.3,12.6c6.2,1.4,12.5,0.6,17.8-2.4c3.6-1.6,6.9-5.1,9.3-9.5c0.1-0.1,0.1-0.3,0.2-0.4c0.2-0.4,0.4-0.9,0.6-1.3
	c0.1-0.3,0.2-0.5,0.3-0.8c3-7.2,3.5-16.5-1.3-25.3c-8.3-17.2-36.6-22.9-55.8-9.3c-20,13.7-24.1,44-13.4,66.6
	c10.8,23.4,37.7,36.5,62,34.5c24.9-2.2,44.2-17.6,58.5-31.3c9.9-10,18.1-19.6,24.9-28.1c5,1,9.9,1.5,14.9,1.5c0,0,0.1,0,0.1,0
	c0.3,0,0.7,0,1,0c-7.8,30.7-6.9,62.8-0.2,94.5c18.5,88.6,81.1,175.7,124.6,230.4c-2,14.2-6.2,28.3-14.1,41.4
	c-18.2,29.7-56.1,50.2-92.7,42.8c-35.5-6.7-67.9-37.7-66.9-72.8c0.3-34.3,30.1-61.2,58.8-58c11.1,1.4,19.9,6.5,26.2,13
	c11.8,13.7,9,39.2-7.8,48.6c-7,4-16.6,4.1-23.6-0.3c-5.1-3.4-9.3-10.3-5.9-15.9c0.2-0.2,0.5-0.3,0.8-0.4c0.6-0.2,1,0.4,1.2,0.8
	c3.3,4.6,8.1,8,13.9,6.5c8-1.9,12.1-9.9,10.8-17.7c-1.1-6.5-5.7-11.6-11.5-13.9c-5.8-2.3-12.2-1.5-17.9,1.5
	c-10.4,5.8-15.1,17.4-12.7,29.1c2.3,11.3,10.7,19.6,21.5,22.4c10.5,2.7,21.2-0.2,29.4-7.2c7.7-6.5,12.6-15.4,13.5-25.1
	c2.1-14.5-7.7-35.7-31.5-42c-29.4-7.5-60,13.9-66.7,47.1c-8.5,34.4,17.8,70.9,52,84.2c34.8,14.6,78.1,3.1,102.8-24.3
	c14.6-15.1,22.6-33.7,26.4-52.6c13.2,16.3,24.1,29.3,30.8,37.9c14.4,18.3,25.2,40.6,30,63.3c6.4,30.8,1.5,62-21,84.8
	c-9.1,9.2-21.5,15.8-34.1,18.5c-15.9,3.3-32.1,0.4-43.4-11c-4.9-5-9-12.5-10.6-20c-1.6-7.5-1-16.5,5.5-22.4
	c4.6-3.7,10.5-5.4,16.7-3.7c7.3,2.1,13.1,9.6,10.6,17.3c-1.4,4.5-6,7.7-10.6,6.6c-2-0.5-3.8-1.9-4.5-3.9c-0.4-1.2-0.3-2.5,0.4-3.6
	c0.6-0.7,1.4-1.3,2.3-1.2c0.5,0,1,0.1,1.4,0.2c0.4,0.2,0.9-0.1,1.1-0.4c0.7-1.2-0.2-2.6-1.2-3.3c-2.4-1.9-5.8-1-7.9,1.2
	c-3.7,4.1-2.1,10.4,2,13.4c3,2.3,6.7,3,10.3,2.2c4.5-1,8-4.2,9.6-8.6c2.5-6.7-0.1-13.8-5.3-18.2c-4.1-3.4-9.2-4.9-14.6-4.4
	c-4.5,0.5-8.7,2.5-11.9,5.5c-0.3,0.3-0.6,0.6-0.9,0.9c-0.2,0.2-0.5,0.4-0.6,0.7c-0.1,0.1-0.1,0.2-0.2,0.3c-5.5,6.3-7,15.2-5.5,22
	c0,0,0,0,0,0.1c1.7,8.1,6,16.2,11.5,21.7c12.3,12.4,29.8,15.4,46.5,11.9c13.3-2.8,26.2-9.7,35.8-19.4c23.5-23.8,28.5-56.4,21.9-87.9
	c-4.8-23.2-15.9-46-30.6-64.7c-7.1-9-18.8-22.8-32.7-40.2c0.8-4.6,1.4-9.2,1.7-13.8c32.2,43,64.5,80.3,72.9,115.6
	c12.8,38.1-4.2,61.1-4,60.1c-0.3,1.2,18.3-21.4,6.6-60.8c-7.8-37.9-41.8-78.2-75.1-123.3c0.2-6.2,0-12.2-0.4-18
	c-5.4-63.7-25.2-110.8-29.9-132c-12.2-38.6-17.3-70-19.4-93.7c8.6,20.3,25.5,37.5,46.9,46.2c38.1,15.4,76.7,1.5,102.5-23.4
	c-6.7,9.4-15,19.9-25.4,31.3c-4.2,6.1-25.9,26.2-48.3,59.8c-10.5,16.7-21.6,38.8-18.7,63.6c3,24.2,21.3,47.8,46.5,53.6
	c24.2,5.9,53.1-4.3,62.4-26.7c9.4-21.6-1.7-47.8-20.2-52.4c-8.2-2.5-16-1.3-22.1,1.8c-2.9,1.3-5.6,3.4-7.8,5.8
	c0,0.1-0.1,0.1-0.1,0.2c-0.5,0.5-0.9,1.1-1.3,1.7c-0.2,0.2-0.3,0.5-0.5,0.7c-0.2,0.3-0.4,0.6-0.6,0.9c-0.1,0.1-0.1,0.3-0.2,0.4
	c-0.1,0.2-0.2,0.3-0.3,0.5c-3.9,6.9-3.9,15-0.7,22.3c2.9,6.4,8.5,11.1,15.4,12.4c7.2,1.4,14.5-1.2,19-7.3c4.7-6.3,5.1-14.5,0.6-20.8
	c-2.5-3.4-6.1-5.6-10.2-5.9c-4.1-0.3-8.3,1.5-10.7,5.1c-3,4.2-2.7,10.1,1.5,13.5c3.1,2.5,6.8,1.8,10.1,0c0.2-0.2,0.6-0.5,0.9-0.2
	c0.2,0.1,0.3,0.2,0.4,0.4c0.5,4.3-4,7.2-7.9,7.8c-5.4,0.7-10.3-1.9-13.3-6.3c-3.5-4.9-4.4-10.6-3.6-15.9
	c2.6-10.7,13.1-19.5,27.5-17.1c17.3,2,30,24.3,24.7,44.9c-4.6,21.6-29.4,34.7-52.2,32.9c-23.5-1.4-44.1-19.4-50.5-41.3
	c-5.4-16.7-2.3-33.9,3.8-48.7c-0.7,5.8,0.9,11.9,4.9,16.4c3.6,4.1,8.4,6.4,13.7,6.7c6.8,0.3,13.5-3.2,16.1-9.8
	c1.8-4.4,1.3-9-1.3-12.9c-2.1-3-5.4-5-9-5.3c-5.1-0.5-10.6,3-10.6,8.6c0,3,1.9,5.9,5,6.2c1.2,0.1,2.8-0.4,3.1-1.7
	c0.1-0.4-0.1-0.9-0.5-1c-0.4-0.2-0.8-0.5-1.2-0.8c-0.8-0.6-1-1.6-0.9-2.5c0.1-1.3,1-2.3,2.1-2.9c1.9-1.1,4.1-0.8,6,0.1
	c4.2,2.3,5.3,7.8,3.3,12c-3.4,7.4-12.7,9-19.5,5.6c-8.9-4.5-11.8-15-9.1-23.9c1.4-2.8,2.8-5.5,4.2-8.1c20.7-34.9,45.7-57,54.6-68.4
	c28.9-31.3,41.1-57.8,46-72.5c1.8-4.7,3.2-9.5,4.2-14.3C1982.1,128.2,1953,81.5,1922.9,58.5z M1966.9,143.3
	c-0.8,12.8-8.3,25.4-22.2,27.3c-6.5,0.9-12.9-1.3-16.9-6.7c-2.8-4-3.9-10.5,0.3-13.7c0.2-0.1,0.5-0.1,0.7,0c0.5,0,0.6,0.6,0.6,1
	c1.1,4.4,3.7,8.4,8.5,9.1c6.6,1,12.1-3.7,13.4-10c1.2-5.2-0.7-10.4-4.4-13.9c-0.8-0.8-1.7-1.4-2.7-2c2.1-9.7,2-19.8-0.1-29.7
	c-3.2-15.3-10.9-30.1-21.8-42.1C1943.5,79.8,1963.2,109.3,1966.9,143.3z M1818.4,35.8c8.1-1.7,16.5-2.5,25-2.4
	c-24.2,58.9-70.7,97-114.5,107.9l-0.1,0l-0.3,0.1c-5.4,1.4-10.9,2.3-16.4,2.7c1.5-5.2,3.1-10.3,5.1-15.5
	C1736.2,79.9,1774.1,45.1,1818.4,35.8z M1706.5,144.2c-4.2,0-8.5-0.3-12.7-1c11.3-14.4,18.2-25.1,21.3-28.4
	c5.6-7.7,10.9-14.5,16.1-20.6c-6.8,10.2-12.6,21.3-17.2,33.2c-2.2,5.5-4,11.1-5.5,16.8C1707.8,144.2,1707.1,144.2,1706.5,144.2z
	 M1964.5,179.5c-9.9,47.9-68.7,92.9-124,70.3c-26.3-10.7-45.6-35.6-48.8-62.1c-3.8-26.6,11-52.6,32.5-64.3
	c21.4-12.5,48.8-8.6,63.8,7.8c16,15.2,18.8,39.7,8.2,55.3c-9.8,16.1-29.5,22.3-43.4,17.1c-14.4-5-21.7-18.3-22.2-28.6
	c0.4-11.7,5.2-18.3,9.7-22c2.8-0.5,6.8-0.9,8.8,4.1c-2.8,2.7-4.7,6.1-3.1,10.2c1.2,2.4,2.6,4.2,5.2,4.9c3.7,1.2,7.5,0.4,10.3-2.3
	c5.9-5.7,4.1-14.8-1.9-19.2c-6.3-4.2-14.2-3.1-19.4,2c-4.6,3.5-9.8,10.1-10.6,22.3c0.2,10.7,7.4,24.9,22.6,30.6
	c14.7,5.8,35.9-0.2,46.9-17.3c11.8-16.5,9.4-43.5-7.7-60.2c-2.5-2.8-5.3-5.3-8.4-7.4c2.9,0.1,5.5-0.2,8-0.7
	c11-2.3,18.3-10,18.9-18.8c0.1-1.8,0-3.7-0.4-5.5c-1.2-5.7-4.7-11.3-10.6-12.9c-1.5-0.4-3-0.4-4.4-0.1c-3.4,0.7-6.3,3.3-7.3,7
	c-0.3,1-0.3,2.1-0.1,3c0.1,0.6,0.4,1.2,0.7,1.8c0.3,1.2,1.1,2.3,2.2,2.9c2.3,1.4,5.4,0.7,6.8-1.7c1.4-2.3,0.7-5.4-1.7-6.8
	c-0.8-0.5-1.8-0.7-2.6-0.7c0.8-0.8,1.8-1.4,2.8-1.6c0.8-0.2,1.7-0.2,2.5,0.1c3.8,0.9,6.8,5.1,7.8,9.8c0.3,1.5,0.4,3,0.3,4.4
	c-0.4,6.7-6,13.1-15.7,15.2c-5.6,1.2-12.4,0.8-20.2-1.9c-15.1-5.2-33.1-4.1-48.2,4.5c-14.9,7.9-27,22.2-32.9,39
	c-0.2,0.6-0.5,1.4-0.8,2.4c-1.5,4.8-2.4,9.7-2.8,14.8c-2.9,23-3.4,67.4,16.5,131c2,11.3,19.5,53.2,29.2,112.4
	c1.1,7.8,1.9,16.1,2.3,24.6c-16.5-21.9-33.5-42.3-46.4-61.8c-12.7-21.9-20.1-44.2-19.9-63.5c-0.1-37.1,19.6-55.2,21.1-56.8
	c-1.6,1.6-22.5,18.6-23.8,56.8c-0.8,19.8,6.1,43.1,18.6,65.7c14,22.2,31.9,43.6,49.6,67.5c0.3,0.4,0.7,0.9,1,1.3
	c0,5.1-0.3,10.3-0.8,15.5c-43.3-54.7-103.9-140.1-121.9-226.3c-1.2-5.7-2.1-11.4-3-17c-0.5-9.1-0.1-20.8,3.3-32.4
	c3.5-12.3,13-21.9,22.8-25c9.8-3.5,17.2-0.5,20,0.6c12.1,7.1,13.4,18,16.9,17.2c1.1,1.3,7.4-13.3-12.4-26.4
	c-2.1-0.8-12.2-5.2-24.3-0.5c-11.7,3.8-24.1,15.6-27.2,30c-0.6,2.6-1,5.1-1.3,7.5c-0.1-16.2,1.6-32.2,5.6-47.8
	c6-0.3,12-1.3,17.9-2.7h0l0.3-0.1c45.4-11.1,93.2-50.5,117.7-111.2c14.3,0.6,29,3.9,43.8,10.1c25.4,10.7,44.7,35.5,50.1,61.5
	c1.9,9.2,2.1,18.6,0.2,27.6c-2.5-0.8-5.2-1.1-8-0.8c-9.5,1.2-16.6,8.5-18.3,18c-1.7,9.2,2.2,17.9,9.4,23.2
	c7.1,5.1,15.9,6.2,24.2,3.5c9-3,15.9-9.9,19-18.7C1967.2,165,1966.3,172.2,1964.5,179.5z M1782.1,296.2c2.7-0.6,4.4-3.3,3.8-6.2
	c-0.6-2.9-3.3-4.7-6-4.1c-2.7,0.6-4.4,3.3-3.8,6.2C1776.7,294.9,1779.4,296.8,1782.1,296.2z M1778,325.7c-3.8,0.8-6.3,4.8-5.4,8.8
	c0.8,4.1,4.7,6.7,8.5,5.9c3.9-0.8,6.3-4.8,5.4-8.8C1785.7,327.5,1781.9,324.9,1778,325.7z"/>
<path d="M223.3,296.2c2.7,0.6,5.4-1.3,6-4.1c0.6-2.8-1.1-5.6-3.8-6.2c-2.7-0.6-5.4,1.3-6,4.1C218.9,292.9,220.7,295.6,223.3,296.2z
	 M224.3,340.4c3.8,0.8,7.7-1.9,8.5-5.9c0.8-4.1-1.6-8-5.5-8.8c-3.9-0.8-7.7,1.9-8.5,5.9C218,335.6,220.5,339.6,224.3,340.4z
	 M201.6,36.2c0,0-0.1,0-0.2,0C201.5,36.2,201.6,36.2,201.6,36.2z M446,104.5c-19.2-13.7-47.5-7.9-55.8,9.3c-4.8,8.8-4.3,18-1.3,25.3
	c0.1,0.3,0.2,0.6,0.3,0.8c0.2,0.4,0.4,0.9,0.6,1.3c0.1,0.1,0.1,0.3,0.2,0.4c2.4,4.5,5.8,7.9,9.3,9.5c5.3,3,11.6,3.8,17.8,2.4
	c6.9-1.5,12.6-6,15.3-12.6c2.8-6.7,1.8-14.4-3.2-20.1c-5.1-5.9-13.1-8-20.3-4.8c-3.8,1.8-6.7,4.8-7.8,8.8c-1.1,4-0.2,8.4,2.8,11.5
	c3.6,3.8,9.3,4.7,13.5,1.3c3.1-2.5,3.2-6.3,2.1-9.8c-0.1-0.2-0.3-0.7,0-1c0.1-0.1,0.3-0.2,0.5-0.3c4.3,0.4,6.3,5.4,6,9.4
	c-0.4,5.4-4,9.6-8.9,11.7c-7.7,3.4-16.2,1.6-22.1-3c-5.9-5.1-10.1-14.9-5.3-26.9c5.5-16.5,29.8-24.7,48.8-15.2
	c20.2,8.9,28,35.8,21.5,57.8c-6.2,22.7-28,39.2-50.7,41c-17.5,1.9-33.6-4.6-46.9-13.7c5.5,1.9,11.8,1.6,17.1-1.5
	c4.7-2.7,8-6.9,9.3-12.1c1.7-6.6-0.3-13.9-6.3-17.8c-3.9-2.6-8.6-3.2-12.8-1.4c-3.4,1.5-6,4.2-7.1,7.8c-1.6,4.9,0.8,11,6.2,12.1
	c2.9,0.6,6.2-0.7,7.1-3.6c0.4-1.2,0.2-2.8-1-3.3c-0.4-0.1-0.9-0.1-1.1,0.3c-0.3,0.3-0.6,0.7-1.1,1c-0.7,0.6-1.7,0.6-2.6,0.4
	c-1.3-0.4-2.1-1.4-2.4-2.7c-0.7-2.1,0-4.2,1.3-5.8c3.1-3.6,8.7-3.6,12.4-0.8c6.5,4.8,6.3,14.3,1.5,20.2c-6.2,7.8-17.2,8.5-25.2,4
	c-2.5-1.9-4.8-3.8-7-5.8c-12.5-11.5-22.7-23.2-31-33.8c28.8-7.9,49.6-30.5,49.6-58.5c0-5-0.7-10.1-2-15.4
	c-4.4-16.8-20.5-29.9-37.1-30c-0.3,0-0.6,0-1,0.1h0c-8.4-0.3-17.9,4.5-22.7,11.3c-4.1,5.7-5.4,12.9-3,19.6
	c2.4,6.9,8.3,11.9,15.8,12.8c7.8,0.9,15.1-2.8,18.3-9.9c1.6-3.9,1.8-8.1,0-11.8c-1.9-3.7-5.5-6.4-9.8-6.7
	c-5.2-0.4-10.1,2.7-10.9,8.1c-0.6,3.9,1.8,6.8,5,8.7c0.3,0.1,0.7,0.3,0.6,0.7c0,0.2,0,0.3-0.2,0.5c-3.5,2.5-8.2,0.2-10.7-2.9
	c-3.3-4.3-3.5-9.9-1.3-14.7c3.5-7.8,10.5-11.7,18-12.2c0.5,0,0.9-0.1,1.4-0.1c0.3,0,0.6,0,0.9,0c0.6,0,1.2,0,1.9,0.1
	c0.2,0,0.3,0,0.5,0c13.7,1.4,27.2,13.1,30.9,27.3c1.3,4.9,1.9,9.8,1.9,14.5c0,26.6-20.1,48.3-48.4,55.6
	c-10.3-13.5-17.5-24.7-22.6-30.7c-31.2-43.7-60.3-59.9-69.9-64.1c-7.8-4.6-16-8.2-24.5-11c0.3,0.1,0.6,0.1,0.7,0.1
	c-0.2,0-0.7-0.2-1.5-0.4c-4-1.3-8.1-2.4-12.2-3.3c-23.6-4.9-49-2.8-74.4,8c-1.8,0.8-3.6,1.6-5.4,2.5c-8.4,4-17,9-25.4,15.5
	c-30.1,23-59.2,69.7-46.9,122.3c0.9,4.8,2.3,9.6,4.2,14.3c4.9,14.7,17.1,41.2,46,72.5c8.8,11.4,33.8,33.5,54.5,68.4
	c1.5,2.6,2.9,5.3,4.2,8.1c2.7,8.8-0.1,19.4-9.1,23.9c-6.8,3.4-16.1,1.7-19.5-5.6c-2-4.2-0.8-9.7,3.3-12c1.8-1,4.1-1.2,6-0.1
	c1.1,0.6,2,1.6,2.1,2.9c0,0.9-0.1,1.8-0.9,2.5c-0.4,0.3-0.8,0.6-1.2,0.8c-0.4,0.1-0.6,0.7-0.5,1c0.3,1.3,1.9,1.8,3.1,1.7
	c3.1-0.3,5-3.2,5-6.2c0-5.6-5.5-9.1-10.5-8.6c-3.7,0.3-6.9,2.3-9,5.3c-2.6,3.8-3,8.5-1.2,12.9c2.6,6.6,9.3,10.1,16.1,9.8
	c5.3-0.3,10.1-2.6,13.7-6.7c4-4.5,5.7-10.7,4.9-16.4c6.2,14.8,9.3,32,3.8,48.7c-6.4,21.9-27,39.8-50.5,41.3
	C77.4,441.1,52.6,428,48,406.4c-5.4-20.6,7.4-42.9,24.7-44.9c14.4-2.3,24.8,6.5,27.5,17.1c0.9,5.3-0.1,11.1-3.6,15.9
	c-3.1,4.3-7.9,6.9-13.3,6.3c-4-0.6-8.4-3.5-7.9-7.8c0.1-0.2,0.2-0.3,0.4-0.4c0.3-0.3,0.7,0,0.9,0.2c3.2,1.8,7,2.5,10,0
	c4.2-3.4,4.5-9.2,1.5-13.5c-2.4-3.6-6.6-5.3-10.7-5.1c-4.1,0.2-7.7,2.5-10.2,5.9c-4.5,6.3-4.1,14.6,0.6,20.8
	c4.5,6.1,11.8,8.6,19,7.3c7-1.3,12.5-6,15.4-12.4c3.3-7.2,3.3-15.4-0.6-22.2c-0.1-0.2-0.2-0.4-0.3-0.6c-0.1-0.1-0.1-0.3-0.2-0.4
	c-0.2-0.3-0.4-0.6-0.6-0.8c-0.2-0.2-0.3-0.5-0.5-0.7c-0.4-0.6-0.9-1.1-1.4-1.7c0,0-0.1-0.1-0.1-0.1c-2.2-2.4-4.8-4.5-7.8-5.8
	c-6.1-3.1-13.8-4.3-22.1-1.8C50.1,366.2,39,392.4,48.5,414c9.4,22.3,38.2,32.5,62.4,26.7c25.2-5.8,43.4-29.5,46.4-53.6
	c2.9-24.8-8.2-46.9-18.7-63.6c-22.4-33.6-44.1-53.7-48.3-59.8c-10.4-11.3-18.7-21.8-25.3-31.3c25.8,25,64.4,38.8,102.5,23.4
	c21.3-8.7,38.3-26,46.9-46.3c-2,23.7-7.2,55.1-19.4,93.7c-4.7,21.2-24.5,68.2-29.9,132c-0.4,5.8-0.6,11.8-0.4,18
	c-33.3,45.1-67.3,85.4-75.1,123.3c-11.7,39.4,6.9,62,6.7,60.8c0.1,1.1-16.9-22-4-60.1c8.4-35.3,40.7-72.6,72.9-115.6
	c0.4,4.6,0.9,9.2,1.7,13.8c-13.9,17.4-25.6,31.2-32.7,40.2c-14.7,18.7-25.7,41.5-30.6,64.7c-6.6,31.5-1.6,64.1,21.9,87.9
	c9.6,9.7,22.5,16.6,35.8,19.4c16.7,3.5,34.3,0.5,46.6-11.9c5.4-5.5,9.8-13.5,11.5-21.7c0,0,0,0,0-0.1c1.5-6.9,0-15.7-5.5-22
	c-0.1-0.1-0.1-0.2-0.2-0.3c-0.2-0.2-0.4-0.5-0.7-0.7c-0.3-0.3-0.6-0.6-0.9-0.9c-3.2-3-7.4-5-12-5.5c-5.4-0.5-10.5,1-14.6,4.4
	c-5.2,4.4-7.8,11.5-5.3,18.2c1.6,4.4,5.1,7.6,9.6,8.6c3.6,0.8,7.3,0.1,10.2-2.2c4.1-3,5.8-9.4,2-13.4c-2-2.2-5.4-3.1-7.8-1.2
	c-1,0.7-1.8,2.1-1.1,3.3c0.2,0.3,0.7,0.6,1.1,0.4c0.4-0.1,0.9-0.2,1.4-0.2c1-0.1,1.8,0.5,2.4,1.2c0.8,1,0.8,2.4,0.4,3.6
	c-0.7,2.1-2.5,3.4-4.5,3.9c-4.6,1.1-9.2-2.1-10.6-6.6c-2.5-7.7,3.3-15.2,10.6-17.3c6.1-1.7,12.1,0,16.7,3.7c6.5,6,7,15,5.5,22.4
	c-1.6,7.5-5.6,15-10.6,20c-11.3,11.4-27.5,14.3-43.4,11c-12.7-2.6-25-9.2-34.1-18.5c-22.5-22.8-27.4-54-21-84.8
	c4.7-22.7,15.6-45,30-63.3c6.7-8.5,17.7-21.5,30.8-37.9c3.9,18.9,11.8,37.5,26.4,52.6c24.7,27.3,68,38.9,102.8,24.3
	c34.2-13.3,60.5-49.8,52-84.2c-6.7-33.3-37.3-54.7-66.7-47.1c-23.7,6.3-33.6,27.5-31.5,42c0.9,9.7,5.8,18.6,13.5,25.1
	c8.2,7,18.9,9.8,29.4,7.2c10.8-2.8,19.2-11.1,21.5-22.4c2.5-11.7-2.3-23.3-12.7-29.1c-5.7-3-12.1-3.8-17.9-1.5
	c-5.9,2.3-10.5,7.4-11.5,13.9c-1.4,7.8,2.8,15.7,10.8,17.7c5.8,1.5,10.6-1.9,13.9-6.5c0.1-0.4,0.6-1.1,1.2-0.8
	c0.3,0,0.5,0.1,0.7,0.4c3.4,5.6-0.8,12.6-5.9,15.9c-7,4.4-16.6,4.3-23.6,0.3c-16.8-9.5-19.6-35-7.8-48.6c6.3-6.5,15.2-11.6,26.2-13
	c28.7-3.3,58.5,23.6,58.8,58c1,35.1-31.4,66.1-66.9,72.8c-36.6,7.3-74.5-13.1-92.7-42.8c-7.9-13.1-12.1-27.2-14.1-41.4
	c43.5-54.7,106.1-141.8,124.6-230.4c6.6-31.8,7.5-63.8-0.3-94.5c0.3,0,0.7,0,1.1,0c0,0,0.1,0,0.1,0c5,0,9.9-0.5,14.9-1.5
	c6.8,8.5,15.1,18.1,25,28.1c14.2,13.7,33.6,29.1,58.4,31.3c24.3,2,51.2-11.1,62-34.5C470,148.5,465.9,118.2,446,104.5z M187,35.8
	c44.3,9.2,82.1,44,101.2,92.8c2,5.1,3.7,10.3,5.1,15.5c-5.5-0.4-11-1.3-16.4-2.7l-0.3-0.1l-0.1,0c-43.9-10.8-90.4-49-114.6-107.9
	C170.6,33.3,178.9,34.2,187,35.8z M83,62.4c-10.9,12-18.6,26.8-21.8,42.1c-2.1,9.9-2.2,20-0.1,29.7c-0.9,0.6-1.8,1.2-2.7,2
	c-3.7,3.5-5.6,8.7-4.4,13.9c1.3,6.3,6.8,11,13.4,10c4.8-0.6,7.4-4.6,8.5-9.1c0-0.4,0.1-1,0.6-1c0.2-0.1,0.4-0.1,0.7,0
	c4.2,3.2,3.2,9.7,0.3,13.7c-3.9,5.4-10.4,7.6-16.9,6.7c-13.9-1.8-21.3-14.5-22.2-27.3C42.2,109.3,61.9,79.8,83,62.4z M300,195.3
	c-0.3-2.5-0.8-5-1.3-7.5c-3.1-14.4-15.5-26.2-27.2-30c-12-4.7-22.1-0.3-24.3,0.5c-19.8,13.1-13.5,27.7-12.4,26.4
	c3.5,0.8,4.8-10.1,16.9-17.2c2.8-1.1,10.2-4.1,20-0.6c9.8,3.1,19.3,12.6,22.8,25c3.4,11.6,3.8,23.2,3.3,32.4
	c-0.8,5.7-1.8,11.4-2.9,17C276.9,327.6,216.3,413,173,467.7c-0.5-5.2-0.8-10.4-0.8-15.5c0.3-0.4,0.6-0.9,1-1.3
	c17.6-23.9,35.6-45.3,49.6-67.5c12.5-22.7,19.4-45.9,18.6-65.7c-1.3-38.1-22.2-55.2-23.8-56.8c1.5,1.6,21.2,19.7,21.1,56.8
	c0.1,19.2-7.3,41.6-19.9,63.5c-12.9,19.5-29.9,39.9-46.4,61.8c0.3-8.5,1.2-16.8,2.3-24.6c9.7-59.2,27.2-101.2,29.2-112.4
	c19.9-63.6,19.4-108,16.5-131c-0.4-5.1-1.4-10.1-2.8-14.9c-0.3-1-0.5-1.7-0.7-2.3c-5.8-16.9-17.9-31.2-32.9-39.1
	c-15-8.6-33-9.7-48.2-4.5c-7.8,2.7-14.7,3.1-20.2,1.9c-9.7-2-15.3-8.4-15.7-15.2c-0.1-1.4,0-2.9,0.3-4.4c1-4.7,3.9-8.9,7.7-9.8
	c0.9-0.2,1.7-0.2,2.5-0.1c1.1,0.2,2.1,0.8,2.8,1.6c-0.9,0-1.8,0.2-2.6,0.7c-2.3,1.4-3.1,4.5-1.7,6.8c1.4,2.3,4.4,3.1,6.8,1.7
	c1.1-0.7,1.9-1.8,2.2-2.9c0.3-0.6,0.5-1.2,0.6-1.8c0.2-1,0.2-2-0.1-3c-1-3.6-3.9-6.2-7.3-7c-1.4-0.3-2.9-0.3-4.3,0.1
	c-5.9,1.6-9.4,7.2-10.6,12.9c-0.4,1.8-0.5,3.7-0.4,5.5c0.6,8.9,7.9,16.6,18.9,18.8c2.5,0.5,5.2,0.8,8,0.7c-3.1,2.1-5.9,4.6-8.4,7.4
	c-17.1,16.7-19.6,43.7-7.7,60.2c11,17.1,32.1,23.1,46.9,17.3c15.1-5.7,22.3-19.8,22.6-30.6c-0.8-12.2-6-18.7-10.6-22.3
	c-5.2-5.1-13.1-6.2-19.4-2c-6.1,4.4-7.8,13.5-1.9,19.2c2.8,2.7,6.7,3.5,10.3,2.3c2.6-0.8,3.9-2.5,5.2-4.9c1.6-4-0.3-7.5-3.2-10.2
	c2-5,6.1-4.6,8.9-4.1c4.4,3.7,9.3,10.2,9.7,22c-0.5,10.3-7.9,23.7-22.3,28.6c-13.9,5.1-33.6-1.1-43.4-17.1
	c-10.6-15.5-7.9-40.1,8.1-55.3c15-16.4,42.4-20.3,63.8-7.8c21.5,11.8,36.3,37.7,32.5,64.3c-3.2,26.5-22.5,51.4-48.8,62.1
	c-55.3,22.7-114.1-22.4-124-70.3c-1.8-7.3-2.7-14.5-3-21.6c3.1,8.8,10,15.7,19,18.7c8.2,2.8,17.1,1.7,24.2-3.5
	c7.2-5.3,11.1-14.1,9.4-23.2c-1.7-9.5-8.7-16.8-18.3-18c-2.8-0.3-5.5,0-8,0.8c-1.8-9-1.7-18.4,0.2-27.6
	c5.4-26.1,24.7-50.8,50.1-61.5c14.8-6.3,29.5-9.5,43.8-10.1c24.5,60.7,72.2,100,117.7,111.2l0.3,0.1h0c5.9,1.5,11.9,2.4,17.9,2.7
	C298.4,163.1,300.1,179.1,300,195.3z M299,144.2c-0.7,0-1.3,0-2-0.1c-1.6-5.6-3.4-11.3-5.6-16.8c-4.7-12-10.5-23.1-17.2-33.2
	c5.2,6.1,10.6,12.9,16.1,20.6c3.1,3.3,10,14,21.3,28.4C307.4,143.9,303.2,144.2,299,144.2z"/>
<path d="M1803.8,1963.8c0,0,0.1,0,0.2,0C1803.9,1963.8,1803.8,1963.8,1803.8,1963.8z M1969.9,1819.2c-0.9-4.8-2.3-9.6-4.2-14.3
	c-4.9-14.7-17.1-41.2-46-72.5c-8.9-11.4-33.8-33.5-54.6-68.4c-1.5-2.6-2.9-5.3-4.2-8.1c-2.7-8.8,0.1-19.4,9-23.9
	c6.8-3.4,16.1-1.7,19.5,5.6c2,4.2,0.8,9.7-3.3,12c-1.9,1-4.1,1.2-6,0.1c-1.1-0.6-2-1.6-2.1-2.9c-0.1-0.9,0.1-1.8,0.9-2.5
	c0.4-0.3,0.8-0.6,1.2-0.8c0.4-0.1,0.6-0.7,0.5-1c-0.3-1.3-1.9-1.8-3.1-1.7c-3.1,0.3-5,3.2-5,6.2c0,5.6,5.5,9.1,10.6,8.5
	c3.7-0.3,6.9-2.3,9-5.3c2.6-3.8,3-8.5,1.3-12.9c-2.6-6.6-9.4-10.1-16.1-9.8c-5.3,0.3-10.1,2.6-13.7,6.7c-4,4.5-5.7,10.7-4.9,16.4
	c-6.2-14.8-9.3-32-3.8-48.7c6.4-21.9,27-39.9,50.5-41.3c22.8-1.9,47.6,11.3,52.2,32.9c5.4,20.6-7.4,42.9-24.7,44.9
	c-14.4,2.3-24.8-6.5-27.5-17.2c-0.9-5.3,0.1-11.1,3.6-15.9c3-4.3,7.9-6.9,13.3-6.3c4,0.6,8.4,3.5,7.9,7.8c-0.1,0.2-0.2,0.3-0.4,0.4
	c-0.3,0.3-0.7,0-0.9-0.2c-3.2-1.8-7-2.5-10.1,0c-4.2,3.4-4.4,9.2-1.5,13.5c2.4,3.6,6.6,5.3,10.7,5.1c4.1-0.2,7.7-2.5,10.2-5.9
	c4.5-6.3,4.1-14.6-0.6-20.8c-4.5-6.1-11.8-8.6-19-7.3c-7,1.3-12.5,6-15.4,12.4c-3.3,7.2-3.3,15.4,0.7,22.3c0.1,0.2,0.2,0.4,0.3,0.5
	c0.1,0.1,0.1,0.3,0.2,0.4c0.2,0.3,0.4,0.6,0.6,0.9c0.1,0.2,0.3,0.5,0.5,0.7c0.4,0.6,0.9,1.1,1.3,1.7c0,0.1,0.1,0.1,0.1,0.2
	c2.2,2.4,4.9,4.5,7.8,5.8c6.1,3.1,13.8,4.3,22.1,1.8c18.5-4.6,29.6-30.9,20.2-52.4c-9.4-22.3-38.2-32.5-62.4-26.7
	c-25.2,5.8-43.4,29.4-46.5,53.6c-2.9,24.8,8.2,46.9,18.7,63.6c22.4,33.6,44.1,53.7,48.3,59.8c10.4,11.3,18.7,21.8,25.4,31.3
	c-25.8-25-64.4-38.8-102.5-23.4c-21.3,8.7-38.3,26-46.9,46.3c2.1-23.7,7.2-55.1,19.4-93.7c4.7-21.2,24.5-68.2,29.9-132
	c0.4-5.8,0.6-11.8,0.4-18c33.3-45.1,67.3-85.4,75.1-123.3c11.7-39.4-6.9-62-6.6-60.8c-0.1-1,16.9,22,4,60.1
	c-8.4,35.3-40.7,72.6-72.9,115.6c-0.4-4.6-0.9-9.2-1.7-13.8c13.9-17.4,25.6-31.2,32.7-40.2c14.7-18.7,25.8-41.4,30.6-64.7
	c6.6-31.5,1.6-64.1-21.9-87.9c-9.6-9.7-22.5-16.6-35.8-19.4c-16.7-3.5-34.3-0.5-46.5,11.9c-5.5,5.5-9.8,13.5-11.5,21.7
	c0,0,0,0.1,0,0.1c-1.5,6.9,0,15.7,5.5,22c0.1,0.1,0.1,0.2,0.2,0.3c0.2,0.2,0.4,0.5,0.7,0.7c0.3,0.3,0.6,0.6,0.9,0.9
	c3.2,3,7.4,5,12,5.5c5.4,0.5,10.5-1,14.6-4.4c5.2-4.4,7.8-11.5,5.3-18.2c-1.6-4.4-5.1-7.6-9.6-8.6c-3.6-0.8-7.3-0.1-10.3,2.2
	c-4.1,3-5.7,9.4-2,13.4c2,2.2,5.4,3.1,7.9,1.2c1-0.8,1.8-2.1,1.2-3.3c-0.2-0.3-0.7-0.6-1.1-0.4c-0.4,0.1-0.9,0.2-1.4,0.2
	c-1,0.1-1.8-0.5-2.3-1.2c-0.8-1-0.8-2.4-0.4-3.6c0.7-2.1,2.5-3.4,4.5-3.9c4.6-1.1,9.2,2.1,10.6,6.6c2.5,7.7-3.3,15.2-10.6,17.3
	c-6.1,1.7-12.1,0-16.7-3.7c-6.5-6-7-15-5.5-22.4c1.5-7.5,5.6-15,10.6-20c11.3-11.4,27.5-14.3,43.4-11c12.7,2.6,25,9.2,34.1,18.5
	c22.6,22.8,27.4,54,21,84.8c-4.7,22.7-15.6,45-30,63.3c-6.7,8.5-17.7,21.5-30.8,37.9c-3.9-18.9-11.8-37.5-26.4-52.6
	c-24.7-27.3-68-38.9-102.8-24.3c-34.2,13.3-60.5,49.8-52,84.2c6.7,33.3,37.3,54.7,66.7,47.1c23.8-6.3,33.5-27.5,31.5-42
	c-0.9-9.7-5.8-18.6-13.5-25.2c-8.2-7-18.9-9.9-29.4-7.2c-10.8,2.8-19.2,11.1-21.5,22.4c-2.5,11.7,2.3,23.3,12.7,29.1
	c5.7,3,12.1,3.8,17.9,1.5c5.8-2.3,10.4-7.4,11.5-13.9c1.4-7.8-2.8-15.7-10.8-17.7c-5.9-1.5-10.6,1.9-13.9,6.5
	c-0.2,0.4-0.5,1.1-1.2,0.8c-0.2,0-0.5-0.1-0.8-0.4c-3.4-5.6,0.8-12.6,5.9-15.9c7-4.4,16.6-4.3,23.6-0.3c16.8,9.5,19.6,35,7.8,48.6
	c-6.3,6.5-15.2,11.6-26.2,13c-28.7,3.3-58.5-23.6-58.8-58c-1-35.1,31.4-66.1,66.9-72.8c36.6-7.3,74.6,13.1,92.7,42.8
	c7.9,13.1,12.1,27.3,14.1,41.4c-43.5,54.7-106.2,141.8-124.6,230.4c-6.6,31.8-7.5,63.8,0.2,94.5c-0.3,0-0.7,0-1,0c0,0-0.1,0-0.1,0
	c-5,0-9.9,0.5-14.9,1.5c-6.8-8.5-15.1-18.1-24.9-28.1c-14.2-13.7-33.6-29-58.5-31.3c-24.3-2-51.2,11.1-62,34.5
	c-10.7,22.5-6.6,52.9,13.4,66.6c19.2,13.6,47.5,7.9,55.8-9.3c4.8-8.8,4.3-18.1,1.3-25.3c-0.1-0.3-0.2-0.5-0.3-0.8
	c-0.2-0.5-0.4-0.9-0.7-1.3c-0.1-0.1-0.1-0.2-0.2-0.4c-2.4-4.5-5.7-7.9-9.3-9.6c-5.3-3-11.6-3.8-17.8-2.4c-6.9,1.6-12.6,6-15.3,12.6
	c-2.8,6.7-1.8,14.4,3.2,20.1c5.2,5.9,13.1,8,20.2,4.8c3.8-1.8,6.7-4.8,7.8-8.8c1.1-4,0.2-8.4-2.8-11.5c-3.6-3.8-9.3-4.7-13.5-1.3
	c-3.1,2.5-3.2,6.3-2.1,9.8c0.2,0.2,0.3,0.7,0,1c-0.1,0.1-0.2,0.2-0.5,0.3c-4.3-0.4-6.3-5.4-6-9.4c0.4-5.4,4-9.6,8.9-11.7
	c7.7-3.4,16.2-1.6,22.1,3c5.9,5.1,10.2,14.8,5.3,26.9c-5.5,16.5-29.8,24.7-48.8,15.2c-20.2-8.9-28-35.8-21.5-57.8
	c6.2-22.7,27.9-39.2,50.7-41c17.5-1.9,33.6,4.6,46.9,13.7c-5.5-1.9-11.8-1.6-17.1,1.5c-4.7,2.7-8,6.9-9.3,12.1
	c-1.7,6.6,0.4,13.9,6.3,17.8c3.9,2.6,8.6,3.2,12.8,1.4c3.4-1.5,6-4.2,7.1-7.8c1.6-4.9-0.8-11-6.2-12.1c-2.9-0.6-6.2,0.7-7.1,3.6
	c-0.4,1.2-0.2,2.8,1,3.3c0.3,0.1,0.9,0.1,1.1-0.3c0.3-0.3,0.6-0.7,1-1c0.7-0.6,1.7-0.6,2.6-0.4c1.2,0.4,2.1,1.4,2.4,2.7
	c0.7,2.1,0,4.2-1.4,5.8c-3.1,3.6-8.7,3.6-12.4,0.8c-6.5-4.8-6.2-14.3-1.5-20.2c6.2-7.8,17.1-8.5,25.2-4c2.4,1.9,4.8,3.8,7,5.8
	c12.5,11.5,22.7,23.2,31,33.8c-28.8,7.9-49.6,30.5-49.6,58.5c0,5,0.6,10.1,2,15.4c4.5,16.8,20.5,29.9,37.1,30c0.3,0,0.7,0,1-0.1
	c0,0,0,0,0,0c8.3,0.3,17.9-4.5,22.7-11.3c4.1-5.7,5.4-12.9,3-19.6c-2.4-6.9-8.3-11.9-15.8-12.8c-7.8-0.9-15.1,2.8-18.3,9.9
	c-1.7,3.9-1.8,8.1,0,11.8c1.8,3.7,5.5,6.4,9.8,6.7c5.2,0.4,10.1-2.7,10.9-8.1c0.6-3.9-1.8-6.8-5-8.7c-0.3-0.1-0.7-0.3-0.6-0.7
	c0-0.2,0.1-0.3,0.2-0.5c3.5-2.5,8.2-0.2,10.7,2.9c3.3,4.3,3.4,9.9,1.3,14.6c-3.5,7.8-10.5,11.7-18,12.2c-0.5,0-0.9,0.1-1.4,0.1
	c-0.3,0-0.6,0-1,0c-0.6,0-1.3,0-1.9-0.1c-0.2,0-0.3,0-0.5,0c-13.7-1.4-27.2-13.1-30.9-27.3c-1.4-4.9-1.9-9.8-1.9-14.5
	c0-26.6,20.1-48.3,48.4-55.6c10.3,13.5,17.6,24.7,22.6,30.7c31.2,43.7,60.3,59.9,69.9,64.1c7.8,4.5,16,8.2,24.5,11
	c-0.3-0.1-0.5-0.1-0.7-0.1c0.2,0,0.7,0.2,1.4,0.4c4,1.3,8.1,2.4,12.2,3.3c23.6,4.9,49,2.8,74.4-8c1.9-0.8,3.6-1.7,5.4-2.6
	c8.4-3.9,17-9,25.4-15.5C1953,1918.5,1982.1,1871.8,1969.9,1819.2z M1715.1,1885.2c-3.1-3.3-10-14-21.3-28.4
	c4.2-0.7,8.4-1.1,12.7-1.1c0.7,0,1.3,0.1,2,0.1c1.6,5.6,3.4,11.3,5.5,16.8c4.7,12,10.5,23.1,17.2,33.2
	C1726,1899.8,1720.7,1892.9,1715.1,1885.2z M1818.4,1964.2c-44.3-9.2-82.2-44-101.3-92.8c-2-5.1-3.7-10.2-5.1-15.4
	c5.5,0.4,11,1.3,16.4,2.7l0.3,0.1l0.1,0c43.8,10.8,90.4,49,114.5,107.9C1834.9,1966.7,1826.5,1965.8,1818.4,1964.2z M1922.4,1937.6
	c10.9-12,18.6-26.8,21.8-42.1c2.1-9.9,2.2-20,0.1-29.7c0.9-0.6,1.8-1.2,2.7-2c3.7-3.5,5.6-8.7,4.4-13.9c-1.3-6.3-6.8-11-13.4-10
	c-4.9,0.7-7.4,4.6-8.5,9.1c0,0.4-0.1,1-0.6,1c-0.2,0.1-0.4,0.1-0.7,0c-4.2-3.2-3.2-9.7-0.3-13.7c3.9-5.4,10.4-7.6,16.9-6.7
	c13.9,1.8,21.4,14.5,22.2,27.3C1963.2,1890.7,1943.5,1920.1,1922.4,1937.6z M1948.5,1823.3c-8.2-2.8-17.1-1.7-24.2,3.5
	c-7.3,5.3-11.1,14.1-9.4,23.2c1.7,9.5,8.8,16.8,18.3,18c2.8,0.3,5.5,0,8-0.8c1.9,9,1.7,18.3-0.2,27.6c-5.4,26.1-24.7,50.8-50.1,61.5
	c-14.8,6.3-29.5,9.5-43.8,10.1c-24.5-60.7-72.2-100-117.7-111.2l-0.3-0.1h0c-5.9-1.5-11.9-2.4-17.9-2.7c-4.1-15.6-5.8-31.6-5.6-47.8
	c0.3,2.5,0.7,5,1.3,7.5c3.1,14.4,15.5,26.2,27.2,30c12,4.7,22.2,0.3,24.3-0.6c19.8-13.1,13.5-27.7,12.4-26.4
	c-3.4-0.9-4.8,10.1-16.9,17.2c-2.8,1.1-10.2,4.1-20,0.6c-9.8-3.1-19.3-12.7-22.8-25c-3.4-11.6-3.8-23.2-3.3-32.4
	c0.8-5.7,1.8-11.4,3-17c17.9-86.2,78.6-171.6,121.9-226.3c0.5,5.2,0.8,10.4,0.8,15.5c-0.3,0.4-0.7,0.9-1,1.3
	c-17.7,23.9-35.6,45.3-49.6,67.5c-12.5,22.7-19.4,45.9-18.6,65.7c1.3,38.1,22.2,55.2,23.8,56.8c-1.5-1.6-21.2-19.7-21.1-56.8
	c-0.1-19.2,7.3-41.6,19.9-63.4c12.9-19.5,29.9-39.9,46.4-61.8c-0.4,8.5-1.2,16.8-2.3,24.6c-9.7,59.2-27.2,101.2-29.2,112.4
	c-19.9,63.6-19.4,108-16.5,131c0.4,5.1,1.3,10.1,2.8,14.8c0.3,1,0.5,1.8,0.8,2.4c5.8,16.8,17.9,31.1,32.9,39
	c15.1,8.6,33.1,9.7,48.2,4.5c7.8-2.7,14.7-3.1,20.2-1.9c9.7,2,15.3,8.5,15.7,15.2c0.1,1.4,0,2.9-0.3,4.4c-1,4.7-3.9,8.9-7.8,9.8
	c-0.8,0.2-1.7,0.2-2.5,0.1c-1.1-0.2-2.1-0.8-2.8-1.6c0.9,0,1.8-0.2,2.6-0.7c2.3-1.4,3.1-4.4,1.7-6.8c-1.4-2.3-4.5-3.1-6.8-1.7
	c-1.2,0.7-1.9,1.8-2.2,2.9c-0.3,0.6-0.5,1.2-0.7,1.8c-0.2,1-0.2,2,0.1,3c1,3.6,3.9,6.2,7.3,6.9c1.4,0.3,2.9,0.3,4.4-0.1
	c5.9-1.6,9.4-7.2,10.6-12.9c0.4-1.8,0.5-3.7,0.4-5.5c-0.6-8.9-7.9-16.6-18.9-18.8c-2.5-0.5-5.2-0.8-8-0.7c3.1-2.2,5.9-4.6,8.4-7.4
	c17.1-16.7,19.6-43.7,7.7-60.2c-11-17.1-32.2-23.1-46.9-17.3c-15.1,5.7-22.4,19.8-22.6,30.6c0.8,12.2,6,18.8,10.6,22.3
	c5.2,5.1,13.1,6.2,19.3,2c6.1-4.4,7.8-13.5,1.9-19.2c-2.8-2.7-6.7-3.5-10.3-2.3c-2.6,0.8-4,2.5-5.2,4.9c-1.6,4,0.3,7.5,3.1,10.2
	c-2,5.1-6.1,4.7-8.9,4.1c-4.4-3.7-9.3-10.2-9.7-22c0.5-10.3,7.9-23.7,22.2-28.6c13.9-5.1,33.6,1.1,43.4,17.1
	c10.6,15.5,7.9,40.1-8.2,55.3c-15,16.4-42.4,20.2-63.8,7.8c-21.5-11.8-36.3-37.7-32.5-64.4c3.3-26.5,22.5-51.4,48.8-62.1
	c55.3-22.6,114.1,22.4,124,70.3c1.8,7.3,2.8,14.5,3,21.6C1964.4,1833.2,1957.4,1826.3,1948.5,1823.3z M1782.1,1703.8
	c-2.7-0.6-5.4,1.3-6,4.1c-0.6,2.8,1.1,5.6,3.8,6.2c2.7,0.6,5.4-1.3,6-4.2C1786.5,1707.1,1784.8,1704.4,1782.1,1703.8z
	 M1781.1,1659.6c-3.8-0.8-7.7,1.8-8.5,5.9c-0.8,4.1,1.6,8,5.4,8.8c3.8,0.8,7.7-1.9,8.5-5.9
	C1787.4,1664.3,1784.9,1660.4,1781.1,1659.6z"/>
<path d="M223.3,1703.8c-2.7,0.6-4.4,3.3-3.8,6.2c0.6,2.9,3.3,4.7,6,4.2c2.7-0.6,4.4-3.3,3.8-6.2
	C228.7,1705.1,226,1703.2,223.3,1703.8z M227.4,1674.3c3.9-0.8,6.3-4.8,5.5-8.8c-0.9-4.1-4.7-6.7-8.5-5.9c-3.8,0.8-6.3,4.7-5.5,8.8
	C219.7,1672.5,223.5,1675.1,227.4,1674.3z M201.4,1963.8c0.1,0,0.2,0,0.2,0C201.6,1963.8,201.5,1963.8,201.4,1963.8z M459.4,1828.9
	c-10.8-23.4-37.7-36.5-62-34.5c-24.9,2.2-44.2,17.6-58.4,31.3c-9.9,10-18.1,19.6-25,28.1c-5-1-9.9-1.5-14.9-1.5c0,0-0.1,0-0.1,0
	c-0.4,0-0.7,0-1.1,0c7.8-30.7,6.9-62.7,0.3-94.5c-18.5-88.6-81.1-175.7-124.6-230.4c2-14.2,6.2-28.3,14.1-41.4
	c18.2-29.7,56.1-50.2,92.7-42.8c35.5,6.7,68,37.7,66.9,72.8c-0.3,34.3-30.1,61.2-58.8,58c-11-1.4-19.9-6.5-26.2-13
	c-11.8-13.6-9-39.2,7.8-48.6c7-4,16.6-4.1,23.6,0.3c5.1,3.3,9.3,10.3,5.9,15.9c-0.2,0.2-0.5,0.3-0.7,0.4c-0.6,0.2-1-0.4-1.2-0.8
	c-3.3-4.6-8.1-8-13.9-6.5c-8,1.9-12.2,9.9-10.8,17.7c1,6.5,5.6,11.6,11.5,13.9c5.8,2.3,12.2,1.5,17.9-1.5
	c10.4-5.8,15.1-17.4,12.7-29.1c-2.3-11.3-10.7-19.6-21.5-22.4c-10.5-2.7-21.2,0.2-29.4,7.2c-7.7,6.5-12.6,15.4-13.5,25.2
	c-2.1,14.5,7.7,35.7,31.5,42c29.4,7.5,60-13.9,66.7-47.1c8.5-34.4-17.8-70.9-52-84.2c-34.8-14.6-78-3.1-102.8,24.3
	c-14.6,15.1-22.6,33.7-26.4,52.6c-13.2-16.3-24.1-29.3-30.8-37.9c-14.4-18.3-25.2-40.6-30-63.3c-6.4-30.8-1.5-62,21-84.8
	c9.1-9.2,21.5-15.8,34.1-18.5c15.9-3.3,32.1-0.4,43.4,11c5,5,9,12.5,10.6,20c1.5,7.5,1,16.5-5.5,22.4c-4.6,3.7-10.5,5.4-16.7,3.7
	c-7.3-2.1-13-9.6-10.6-17.3c1.4-4.5,5.9-7.7,10.6-6.6c2,0.5,3.8,1.9,4.5,3.9c0.4,1.2,0.4,2.5-0.4,3.6c-0.6,0.7-1.4,1.3-2.4,1.2
	c-0.5,0-1-0.1-1.4-0.2c-0.4-0.2-0.9,0.1-1.1,0.4c-0.7,1.2,0.2,2.5,1.1,3.3c2.4,1.9,5.8,1,7.8-1.2c3.8-4.1,2.1-10.4-2-13.4
	c-2.9-2.3-6.6-3-10.2-2.2c-4.5,1-8,4.2-9.6,8.6c-2.5,6.7,0,13.7,5.3,18.2c4.1,3.4,9.2,4.9,14.6,4.4c4.6-0.5,8.8-2.5,12-5.5
	c0.3-0.3,0.5-0.6,0.8-0.8c0.2-0.2,0.5-0.5,0.7-0.7c0.1-0.1,0.1-0.2,0.2-0.3c5.5-6.4,7-15.1,5.5-22c0,0,0-0.1,0-0.1
	c-1.7-8.1-6-16.2-11.5-21.7c-12.3-12.4-29.8-15.4-46.6-11.9c-13.3,2.8-26.2,9.7-35.8,19.4c-23.5,23.8-28.5,56.4-21.9,87.9
	c4.9,23.2,15.9,46,30.6,64.7c7.1,9,18.8,22.8,32.7,40.2c-0.8,4.6-1.4,9.2-1.7,13.8c-32.2-43-64.5-80.3-72.9-115.6
	c-12.8-38.1,4.2-61.1,4-60.1c0.3-1.2-18.3,21.4-6.7,60.8c7.8,37.9,41.8,78.2,75.1,123.3c-0.2,6.2,0,12.2,0.4,18
	c5.4,63.7,25.2,110.8,29.9,132c12.2,38.6,17.3,70,19.4,93.7c-8.6-20.3-25.5-37.5-46.9-46.3c-38.1-15.4-76.7-1.5-102.5,23.4
	c6.7-9.4,15-19.9,25.3-31.3c4.3-6.1,26-26.2,48.3-59.8c10.5-16.7,21.6-38.8,18.7-63.6c-3-24.2-21.3-47.8-46.4-53.6
	c-24.2-5.9-53.1,4.3-62.4,26.7c-9.5,21.6,1.7,47.8,20.2,52.4c8.2,2.5,16,1.3,22.1-1.8c3-1.3,5.7-3.4,7.8-5.9c0.1,0,0.1-0.1,0.1-0.1
	c0.5-0.5,0.9-1.1,1.4-1.7c0.2-0.2,0.3-0.5,0.5-0.7c0.2-0.3,0.4-0.6,0.6-0.8c0.1-0.1,0.1-0.3,0.2-0.4c0.1-0.2,0.2-0.4,0.3-0.6
	c3.9-6.9,3.9-15,0.6-22.2c-2.9-6.4-8.4-11.1-15.4-12.4c-7.2-1.4-14.5,1.2-19,7.3c-4.7,6.3-5.1,14.5-0.6,20.8
	c2.5,3.4,6.1,5.6,10.2,5.9c4.1,0.3,8.2-1.5,10.7-5.1c3-4.2,2.7-10.1-1.5-13.5c-3.1-2.5-6.8-1.8-10,0c-0.2,0.2-0.6,0.5-0.9,0.2
	c-0.1-0.1-0.3-0.2-0.4-0.4c-0.4-4.3,4-7.2,7.9-7.8c5.4-0.7,10.2,2,13.3,6.3c3.5,4.8,4.4,10.6,3.6,15.9
	c-2.6,10.7-13.1,19.5-27.5,17.2c-17.3-2-30-24.3-24.7-44.9c4.6-21.6,29.4-34.7,52.2-32.9c23.5,1.4,44.1,19.4,50.5,41.3
	c5.5,16.7,2.3,33.9-3.8,48.7c0.7-5.7-0.9-11.9-4.9-16.4c-3.6-4.1-8.4-6.4-13.7-6.7c-6.8-0.3-13.5,3.2-16.1,9.8
	c-1.8,4.3-1.4,9,1.2,12.9c2.1,3,5.4,5,9,5.3c5.1,0.5,10.6-3,10.5-8.5c0-3-1.9-5.9-5-6.2c-1.2-0.1-2.7,0.4-3.1,1.7
	c-0.1,0.4,0.1,0.9,0.5,1c0.3,0.2,0.8,0.5,1.2,0.8c0.8,0.6,1,1.6,0.9,2.5c-0.1,1.3-1,2.3-2.1,2.9c-1.9,1.1-4.2,0.8-6-0.1
	c-4.2-2.3-5.3-7.8-3.3-12c3.4-7.3,12.7-9,19.5-5.6c9,4.5,11.8,15,9.1,23.9c-1.3,2.8-2.8,5.5-4.2,8.1c-20.7,34.9-45.7,57-54.5,68.4
	c-28.9,31.3-41.1,57.7-46,72.5c-1.8,4.7-3.3,9.5-4.2,14.3c-12.2,52.6,16.8,99.3,46.9,122.3c8.4,6.5,17,11.5,25.4,15.5
	c1.8,0.9,3.6,1.8,5.4,2.6c25.4,10.8,50.9,12.9,74.4,8c4.1-0.9,8.2-2,12.2-3.3c0.7-0.2,1.2-0.3,1.5-0.4c-0.1,0-0.4,0.1-0.7,0.1
	c8.5-2.8,16.7-6.5,24.5-11c9.7-4.2,38.7-20.4,69.9-64.1c5.1-5.9,12.3-17.2,22.6-30.7c28.4,7.3,48.5,29,48.4,55.6
	c0,4.7-0.6,9.6-1.9,14.5c-3.7,14.2-17.1,25.9-30.9,27.3c-0.2,0-0.4,0-0.5,0c-0.6,0-1.3,0.1-1.9,0.1c-0.3,0-0.6,0-1,0
	c-0.5,0-0.9,0-1.4-0.1c-7.6-0.6-14.5-4.4-18-12.2c-2.2-4.8-2-10.3,1.3-14.6c2.5-3.1,7.2-5.5,10.7-2.9c0.1,0.2,0.2,0.3,0.2,0.5
	c0.1,0.4-0.3,0.6-0.6,0.7c-3.2,1.9-5.7,4.8-5,8.7c0.8,5.4,5.8,8.5,10.9,8.1c4.3-0.3,7.9-3,9.8-6.7c1.8-3.7,1.7-7.9,0-11.8
	c-3.2-7.1-10.5-10.9-18.3-9.9c-7.5,0.9-13.4,5.9-15.8,12.8c-2.3,6.7-1.1,13.8,3,19.6c4.8,6.8,14.3,11.6,22.7,11.3h0
	c0.3,0,0.7,0.1,1,0.1c16.6-0.1,32.7-13.2,37.1-30c1.4-5.2,2-10.4,2-15.4c0-28-20.8-50.6-49.6-58.5c8.3-10.6,18.4-22.3,31-33.8
	c2.2-2,4.6-3.9,7-5.8c8.1-4.5,19-3.8,25.2,4c4.7,5.9,5,15.4-1.5,20.2c-3.7,2.8-9.3,2.8-12.4-0.8c-1.3-1.6-2-3.8-1.3-5.8
	c0.4-1.2,1.2-2.3,2.4-2.7c0.8-0.2,1.8-0.2,2.6,0.4c0.4,0.3,0.7,0.7,1.1,1c0.2,0.4,0.8,0.4,1.1,0.3c1.2-0.6,1.4-2.2,1-3.3
	c-0.9-2.9-4.1-4.3-7.1-3.6c-5.4,1.1-7.8,7.2-6.2,12.1c1.1,3.5,3.7,6.3,7.1,7.8c4.2,1.8,8.9,1.2,12.8-1.4c6-3.9,8-11.2,6.3-17.8
	c-1.3-5.2-4.6-9.4-9.3-12.1c-5.3-3-11.6-3.4-17.1-1.5c13.3-9.1,29.4-15.6,46.9-13.7c22.7,1.8,44.5,18.3,50.7,41
	c6.5,22-1.3,48.9-21.5,57.8c-19,9.5-43.4,1.3-48.8-15.2c-4.9-12-0.7-21.7,5.3-26.9c5.9-4.6,14.4-6.5,22.1-3
	c4.9,2.1,8.4,6.3,8.9,11.7c0.2,4-1.7,8.9-6,9.4c-0.2,0-0.4-0.1-0.5-0.3c-0.3-0.2-0.2-0.7,0-1c1.1-3.5,1-7.4-2.1-9.8
	c-4.2-3.4-9.9-2.5-13.5,1.3c-3,3.1-3.9,7.5-2.8,11.5c1.1,4,4,7,7.8,8.8c7.1,3.2,15.1,1.1,20.3-4.8c5-5.6,6-13.3,3.2-20.1
	c-2.7-6.5-8.4-11-15.3-12.6c-6.1-1.4-12.5-0.6-17.8,2.4c-3.6,1.6-6.9,5.1-9.3,9.6c-0.1,0.1-0.1,0.2-0.2,0.4
	c-0.2,0.4-0.4,0.9-0.6,1.3c-0.1,0.3-0.2,0.5-0.3,0.8c-3,7.2-3.5,16.5,1.3,25.3c8.3,17.2,36.6,22.9,55.8,9.3
	C465.9,1881.8,470,1851.5,459.4,1828.9z M38.5,1856.7c0.9-12.8,8.3-25.4,22.2-27.3c6.5-0.9,12.9,1.3,16.9,6.7
	c2.8,4,3.9,10.5-0.3,13.7c-0.3,0.1-0.5,0.1-0.7,0c-0.5,0-0.6-0.6-0.6-1c-1.1-4.4-3.7-8.4-8.5-9.1c-6.6-1-12.1,3.8-13.4,10
	c-1.2,5.2,0.7,10.4,4.4,13.9c0.8,0.8,1.7,1.4,2.7,2c-2.1,9.7-2,19.8,0.1,29.7c3.2,15.3,10.9,30.1,21.8,42.1
	C61.9,1920.1,42.2,1890.7,38.5,1856.7z M114.6,1956.4c-25.4-10.8-44.7-35.5-50.1-61.5c-1.9-9.2-2.1-18.6-0.2-27.6
	c2.5,0.8,5.3,1.1,8,0.8c9.5-1.2,16.6-8.5,18.3-18c1.7-9.2-2.2-17.9-9.4-23.2c-7.1-5.2-16-6.2-24.2-3.5c-9,3-15.9,9.9-19,18.7
	c0.2-7.1,1.2-14.3,3-21.6c9.9-47.9,68.7-92.9,124-70.3c26.3,10.7,45.6,35.6,48.8,62.1c3.8,26.6-11,52.6-32.5,64.4
	c-21.4,12.5-48.8,8.6-63.8-7.8c-16.1-15.2-18.8-39.7-8.1-55.3c9.8-16.1,29.5-22.3,43.4-17.1c14.4,4.9,21.7,18.3,22.3,28.6
	c-0.4,11.7-5.3,18.3-9.7,22c-2.8,0.5-6.8,0.9-8.9-4.1c2.8-2.7,4.7-6.1,3.2-10.2c-1.2-2.4-2.6-4.2-5.2-4.9c-3.7-1.2-7.5-0.4-10.3,2.3
	c-5.8,5.7-4.1,14.8,1.9,19.2c6.2,4.2,14.1,3.1,19.3-2c4.6-3.5,9.8-10.1,10.6-22.3c-0.2-10.7-7.5-24.9-22.6-30.6
	c-14.7-5.8-35.9,0.2-46.9,17.3c-11.9,16.5-9.4,43.5,7.7,60.2c2.5,2.8,5.3,5.3,8.4,7.4c-2.8-0.1-5.5,0.2-8,0.7
	c-11,2.3-18.3,9.9-18.9,18.8c-0.1,1.8,0,3.7,0.4,5.5c1.2,5.7,4.7,11.3,10.6,12.9c1.5,0.4,3,0.4,4.3,0.1c3.5-0.7,6.3-3.3,7.3-6.9
	c0.2-1,0.2-2.1,0.1-3c-0.1-0.6-0.3-1.2-0.6-1.8c-0.3-1.2-1.1-2.3-2.2-2.9c-2.3-1.4-5.4-0.7-6.8,1.7c-1.4,2.4-0.7,5.4,1.7,6.8
	c0.8,0.5,1.8,0.7,2.6,0.7c-0.8,0.8-1.8,1.4-2.8,1.6c-0.8,0.2-1.7,0.2-2.5-0.1c-3.8-1-6.8-5.1-7.7-9.8c-0.3-1.5-0.4-3-0.3-4.4
	c0.4-6.7,6.1-13.1,15.7-15.2c5.6-1.1,12.4-0.8,20.2,1.9c15.1,5.2,33.1,4.1,48.2-4.5c15-7.9,27.1-22.2,32.9-39.1
	c0.2-0.5,0.4-1.3,0.7-2.3c1.5-4.8,2.4-9.8,2.8-14.9c2.9-23,3.3-67.4-16.5-131c-2-11.3-19.5-53.2-29.2-112.4
	c-1.1-7.8-2-16.1-2.3-24.6c16.5,21.9,33.5,42.3,46.4,61.8c12.7,21.9,20,44.2,19.9,63.4c0.1,37.1-19.6,55.1-21.1,56.8
	c1.6-1.6,22.5-18.6,23.8-56.8c0.8-19.8-6.1-43.1-18.6-65.7c-14-22.2-31.9-43.6-49.6-67.5c-0.3-0.4-0.7-0.9-1-1.3
	c0-5.1,0.3-10.3,0.8-15.5c43.3,54.7,103.9,140.1,121.9,226.3c1.2,5.7,2.1,11.4,2.9,17.1c0.5,9.1,0.1,20.8-3.3,32.4
	c-3.5,12.3-13.1,21.9-22.8,25c-9.8,3.5-17.2,0.5-20-0.6c-12.1-7.1-13.4-18-16.9-17.2c-1.1-1.3-7.4,13.3,12.4,26.4
	c2.1,0.8,12.2,5.2,24.3,0.6c11.7-3.8,24.1-15.6,27.2-30c0.6-2.5,1-5.1,1.3-7.5c0.1,16.2-1.6,32.2-5.6,47.8c-6,0.3-12,1.2-17.9,2.7h0
	l-0.3,0.1c-45.4,11.1-93.2,50.5-117.7,111.2C144.1,1965.9,129.3,1962.6,114.6,1956.4z M187,1964.2c-8.1,1.7-16.5,2.5-25,2.4
	c24.2-58.9,70.7-97,114.6-107.9l0.1,0l0.3-0.1c5.5-1.4,11-2.3,16.4-2.7c-1.5,5.2-3.1,10.3-5.1,15.4
	C269.2,1920.1,231.3,1954.9,187,1964.2z M290.3,1885.2c-5.5,7.7-10.9,14.5-16.1,20.6c6.7-10.2,12.5-21.3,17.2-33.2
	c2.2-5.5,4-11.2,5.6-16.8c0.7,0,1.3-0.1,2-0.1c4.2,0,8.4,0.3,12.7,1.1C300.3,1871.2,293.4,1881.9,290.3,1885.2z"/>
<polygon points="1830.9,1313.3 1830.9,686.5 1834.6,686.5 1834.6,1313.8 1830.9,1313.8 "/>
<polygon points="1845.4,1314.4 1845.5,685.8 1854.2,683.5 1854.1,1316.5 1845.4,1314.4 "/>
<polygon points="170.8,1312.6 170.8,686.5 174.5,686.5 174.5,1312.6 170.8,1312.6 "/>
<polygon points="151.3,1317.7 151.3,683.1 160,686.5 160,1314.4 151.3,1317.7 "/>
<polygon points="460.4,164.4 460.4,160.7 1544.2,160.7 1544.2,164.4 460.4,164.4 "/>
<polygon points="463.7,149.9 463.7,141.2 1540.8,141.2 1540.8,149.9 463.7,149.9 "/>
<polygon points="463.7,1857.5 463.7,1853.8 1540.8,1853.8 1540.8,1857.5 463.7,1857.5 "/>
<polygon points="460.4,1877.1 462.1,1868.3 1543.5,1868.3 1545.4,1877.1 460.4,1877.1 "/>
</svg>
