<svg xmlns="http://www.w3.org/2000/svg" width="305" height="345" viewBox="0 0 305 345">
  <g id="decorativeframe" transform="translate(-32.41 -29.996)">
    <path id="Path_7" data-name="Path 7" d="M1586.911,31.09h0Zm20.961,3.931a24.421,24.421,0,0,0-4.478-2.733,9.324,9.324,0,0,0-.952-.441,21.84,21.84,0,0,0-13.116-1.41c-.723.159-1.446.353-2.151.582-.123.035-.211.053-.247.071.035,0,.071-.018.124-.018a23.121,23.121,0,0,0-4.319,1.939c-1.693.723-6.823,3.6-12.323,11.3-.9,1.04-2.168,3.032-3.984,5.412-5.007-1.287-8.532-5.112-8.532-9.8a9.985,9.985,0,0,1,.335-2.556,6.673,6.673,0,0,1,5.447-4.813h.088c.106,0,.229-.018.335-.018h.176c.071,0,.159.018.247.018A3.667,3.667,0,0,1,1567.7,34.7a2.5,2.5,0,0,1-.229,2.591c-.441.547-1.269.97-1.886.511-.018-.035-.035-.053-.035-.088-.018-.071.071-.106.106-.123a1.5,1.5,0,0,0,.881-1.534,1.729,1.729,0,0,0-1.922-1.428,2.128,2.128,0,0,0-1.728,1.181,2.453,2.453,0,0,0,0,2.08,3.039,3.039,0,0,0,3.226,1.745,3.347,3.347,0,0,0,2.785-2.257,3.789,3.789,0,0,0-.529-3.455,5.01,5.01,0,0,0-4-1.992h0c-.053,0-.123-.018-.176-.018a7.192,7.192,0,0,0-6.54,5.289,10.441,10.441,0,0,0-.353,2.715c0,4.936,3.667,8.92,8.744,10.313a49.616,49.616,0,0,1-5.465,5.959c-.388.353-.811.688-1.234,1.022a3.465,3.465,0,0,1-4.443-.705,2.515,2.515,0,0,1,.264-3.561,1.622,1.622,0,0,1,2.186.141,1.13,1.13,0,0,1,.247,1.022.716.716,0,0,1-.423.476.54.54,0,0,1-.458-.071,1.657,1.657,0,0,1-.176-.176c-.035-.071-.141-.071-.194-.053a.472.472,0,0,0-.176.582,1.032,1.032,0,0,0,1.252.635,1.627,1.627,0,0,0,1.093-2.133A2.246,2.246,0,0,0,1557.259,52a2.357,2.357,0,0,0-2.257.247,2.864,2.864,0,0,0-1.11,3.138,3.442,3.442,0,0,0,1.64,2.133,3.69,3.69,0,0,0,3.015.264,12.339,12.339,0,0,1-8.268,2.415,10.243,10.243,0,0,1-8.938-7.228c-1.146-3.878.229-8.621,3.79-10.19,3.349-1.675,7.651-.229,8.6,2.68a4.029,4.029,0,0,1-.934,4.742,3.84,3.84,0,0,1-3.9.529,2.522,2.522,0,0,1-1.569-2.063c-.035-.705.3-1.569,1.058-1.657a.1.1,0,0,1,.088.053c.071.035.035.123,0,.176a1.5,1.5,0,0,0,.37,1.728,1.735,1.735,0,0,0,2.38-.229,2.1,2.1,0,0,0,.494-2.027,2.45,2.45,0,0,0-1.375-1.551,3.027,3.027,0,0,0-3.561.846,3.351,3.351,0,0,0-.564,3.543,3.791,3.791,0,0,0,2.7,2.221,4.378,4.378,0,0,0,3.138-.423,3.766,3.766,0,0,0,1.64-1.675c.018-.018.018-.053.035-.071.035-.071.071-.159.106-.229.018-.053.035-.088.053-.141a5.133,5.133,0,0,0-.229-4.46c-1.463-3.032-6.452-4.037-9.837-1.64-3.526,2.415-4.249,7.757-2.362,11.741a11.237,11.237,0,0,0,10.93,6.082c4.39-.388,7.792-3.1,10.313-5.518a62.287,62.287,0,0,0,4.39-4.954,13.279,13.279,0,0,0,2.627.264h.194a36.666,36.666,0,0,0-.035,16.659c3.261,15.619,14.3,30.974,21.966,40.617a19.113,19.113,0,0,1-2.486,7.3c-3.208,5.236-9.89,8.85-16.342,7.545-6.258-1.181-11.97-6.646-11.794-12.834.053-6.047,5.306-10.789,10.366-10.225a7.7,7.7,0,0,1,4.619,2.292c2.08,2.415,1.587,6.911-1.375,8.568a4.175,4.175,0,0,1-4.16-.053c-.9-.6-1.64-1.816-1.04-2.8a.354.354,0,0,1,.141-.071c.106-.035.176.071.212.141a2.319,2.319,0,0,0,2.45,1.146,2.658,2.658,0,0,0,1.9-3.12,3.244,3.244,0,0,0-2.027-2.45,3.759,3.759,0,0,0-3.156.264,4.67,4.67,0,0,0-2.239,5.13,5.111,5.111,0,0,0,3.79,3.949,5.73,5.73,0,0,0,5.183-1.269,6.608,6.608,0,0,0,2.38-4.425,7.085,7.085,0,0,0-5.553-7.4c-5.183-1.322-10.578,2.45-11.759,8.3-1.5,6.064,3.138,12.5,9.167,14.844,6.135,2.574,13.768.546,18.123-4.284a18.292,18.292,0,0,0,4.654-9.273c2.327,2.874,4.249,5.165,5.43,6.681a27.656,27.656,0,0,1,5.289,11.159c1.128,5.43.265,10.93-3.7,14.949a12.223,12.223,0,0,1-6.011,3.261,8.166,8.166,0,0,1-7.651-1.939,7.5,7.5,0,0,1-1.869-3.526,4.062,4.062,0,0,1,.969-3.949,3.245,3.245,0,0,1,2.944-.652,2.517,2.517,0,0,1,1.869,3.05,1.634,1.634,0,0,1-1.869,1.163,1.115,1.115,0,0,1-.793-.688.735.735,0,0,1,.07-.635.494.494,0,0,1,.406-.212,1.04,1.04,0,0,1,.247.035.167.167,0,0,0,.194-.071c.123-.212-.035-.458-.212-.582a1.05,1.05,0,0,0-1.393.212,1.63,1.63,0,0,0,.353,2.362,2.169,2.169,0,0,0,1.816.388,2.333,2.333,0,0,0,1.692-1.516,2.893,2.893,0,0,0-.934-3.208,3.461,3.461,0,0,0-2.574-.776,3.681,3.681,0,0,0-2.1.97l-.159.159c-.035.035-.088.071-.106.123-.018.018-.018.035-.035.053a4.594,4.594,0,0,0-.969,3.878V140a7.9,7.9,0,0,0,2.027,3.826,8.753,8.753,0,0,0,8.2,2.1,12.7,12.7,0,0,0,6.311-3.42c4.143-4.2,5.024-9.943,3.861-15.5a28.043,28.043,0,0,0-5.395-11.406c-1.252-1.587-3.314-4.019-5.765-7.087a22.913,22.913,0,0,0,.3-2.433c5.677,7.581,11.371,14.156,12.852,20.379,2.257,6.717-.74,10.771-.705,10.6-.053.212,3.226-3.773,1.163-10.718-1.375-6.681-7.369-13.786-13.239-21.737a31.322,31.322,0,0,0-.071-3.173c-.952-11.23-4.443-19.533-5.271-23.27a77.221,77.221,0,0,1-3.42-16.518,15.335,15.335,0,0,0,8.268,8.145c6.717,2.715,13.521.264,18.07-4.125a58.955,58.955,0,0,1-4.478,5.518c-.74,1.075-4.566,4.619-8.515,10.542-1.851,2.944-3.808,6.84-3.3,11.212a11.217,11.217,0,0,0,8.2,9.449c4.266,1.04,9.361-.758,11-4.707,1.657-3.808-.3-8.427-3.561-9.238a5.2,5.2,0,0,0-3.9.317,4.31,4.31,0,0,0-1.375,1.022c0,.018-.018.018-.018.035a1.928,1.928,0,0,0-.229.3c-.035.035-.053.088-.088.123l-.106.159c-.018.018-.018.053-.035.071-.018.035-.035.053-.053.088a4.349,4.349,0,0,0-.123,3.931,3.759,3.759,0,0,0,2.715,2.186,3.318,3.318,0,0,0,3.35-1.287,3.071,3.071,0,0,0,.106-3.667,2.457,2.457,0,0,0-1.8-1.04,2.082,2.082,0,0,0-1.886.9,1.736,1.736,0,0,0,.265,2.38,1.536,1.536,0,0,0,1.78,0c.035-.035.106-.088.159-.035a.138.138,0,0,1,.071.071c.088.758-.705,1.269-1.393,1.375a2.444,2.444,0,0,1-2.345-1.111,3.787,3.787,0,0,1-.635-2.8,4.111,4.111,0,0,1,4.848-3.015c3.05.353,5.289,4.284,4.354,7.915-.811,3.808-5.183,6.117-9.2,5.8a10.251,10.251,0,0,1-8.9-7.281,12.455,12.455,0,0,1,.67-8.585,3.693,3.693,0,0,0,.864,2.891,3.423,3.423,0,0,0,2.415,1.181,2.851,2.851,0,0,0,2.838-1.728,2.377,2.377,0,0,0-.229-2.274,2.178,2.178,0,0,0-1.587-.934A1.64,1.64,0,0,0,1599,86.939a1.043,1.043,0,0,0,.881,1.093c.212.018.494-.071.547-.3a.145.145,0,0,0-.088-.176,1.463,1.463,0,0,1-.212-.141.468.468,0,0,1-.159-.441.657.657,0,0,1,.37-.511,1.124,1.124,0,0,1,1.058.018,1.618,1.618,0,0,1,.582,2.115,2.511,2.511,0,0,1-3.437.987,3.508,3.508,0,0,1-1.6-4.213q.37-.74.74-1.428c3.649-6.153,8.057-10.049,9.625-12.058,5.095-5.518,7.246-10.19,8.109-12.781a16.42,16.42,0,0,0,.74-2.521C1618.308,47.309,1613.178,39.076,1607.872,35.021Zm7.757,14.949c-.141,2.257-1.463,4.478-3.914,4.813a3.089,3.089,0,0,1-2.979-1.181,1.8,1.8,0,0,1,.053-2.415.151.151,0,0,1,.123,0c.088,0,.106.106.106.176a1.915,1.915,0,0,0,1.5,1.6,2.119,2.119,0,0,0,2.362-1.763,2.581,2.581,0,0,0-.776-2.45,2.38,2.38,0,0,0-.476-.353,12.485,12.485,0,0,0-.018-5.236,16.083,16.083,0,0,0-3.843-7.422A22.035,22.035,0,0,1,1615.629,49.971Zm-26.179-18.951a20.315,20.315,0,0,1,4.407-.423c-4.266,10.384-12.464,17.1-20.185,19.022h-.018l-.053.018a16.219,16.219,0,0,1-2.891.476c.264-.917.547-1.816.9-2.733C1574.958,38.794,1581.64,32.659,1589.449,31.019Zm-19.727,19.11a13.691,13.691,0,0,1-2.239-.176c1.992-2.539,3.208-4.425,3.755-5.007.987-1.357,1.922-2.556,2.838-3.632a30.13,30.13,0,0,0-3.032,5.853,25.287,25.287,0,0,0-.969,2.962Zm45.483,6.223c-1.745,8.444-12.111,16.377-21.86,12.393a14.046,14.046,0,0,1-8.6-10.948,11.375,11.375,0,0,1,5.73-11.335,9.206,9.206,0,0,1,11.247,1.375c2.821,2.68,3.314,7,1.446,9.749a6.683,6.683,0,0,1-7.651,3.015,5.847,5.847,0,0,1-3.914-5.042,4.96,4.96,0,0,1,1.71-3.878,1.205,1.205,0,0,1,1.551.723,1.6,1.6,0,0,0-.546,1.8,1.437,1.437,0,0,0,.917.864,1.768,1.768,0,0,0,1.816-.405,2.223,2.223,0,0,0-.335-3.385,2.7,2.7,0,0,0-3.42.353,5.073,5.073,0,0,0-1.869,3.931,6.109,6.109,0,0,0,3.984,5.395,7.18,7.18,0,0,0,8.268-3.05c2.08-2.909,1.657-7.669-1.358-10.613a8.021,8.021,0,0,0-1.481-1.3,6.006,6.006,0,0,0,1.41-.123,3.874,3.874,0,0,0,3.332-3.314,3.6,3.6,0,0,0-.071-.97,2.833,2.833,0,0,0-1.869-2.274,1.654,1.654,0,0,0-.776-.018,1.7,1.7,0,0,0-1.287,1.234,1.079,1.079,0,0,0-.018.529,1.176,1.176,0,0,0,.123.317.812.812,0,0,0,.388.511.874.874,0,1,0,.9-1.5.9.9,0,0,0-.458-.123,1,1,0,0,1,.494-.282.753.753,0,0,1,.441.018,2.164,2.164,0,0,1,1.375,1.728,2.924,2.924,0,0,1,.053.776,3.162,3.162,0,0,1-2.768,2.68,6.644,6.644,0,0,1-3.561-.335,10.473,10.473,0,0,0-8.5.793,12.539,12.539,0,0,0-5.8,6.875c-.035.106-.088.247-.141.423a11.772,11.772,0,0,0-.494,2.609c-.511,4.055-.6,11.882,2.909,23.094.353,1.992,3.438,9.379,5.148,19.815.194,1.375.335,2.838.405,4.337-2.909-3.861-5.906-7.457-8.18-10.895-2.239-3.861-3.543-7.792-3.508-11.194-.018-6.54,3.455-9.731,3.72-10.013-.282.282-3.967,3.279-4.2,10.013-.141,3.491,1.075,7.6,3.279,11.582,2.468,3.914,5.624,7.686,8.744,11.9.053.071.123.159.176.229,0,.9-.053,1.816-.141,2.733-7.633-9.643-18.317-24.7-21.49-39.895-.212-1-.37-2.01-.529-3a17.236,17.236,0,0,1,.582-5.712,6.539,6.539,0,0,1,4.02-4.407,4.75,4.75,0,0,1,3.526.106c2.133,1.252,2.362,3.173,2.979,3.032.194.229,1.3-2.345-2.186-4.654a5.745,5.745,0,0,0-4.284-.088,7.579,7.579,0,0,0-4.8,5.289,13,13,0,0,0-.229,1.322,32.993,32.993,0,0,1,.987-8.427,17.5,17.5,0,0,0,3.156-.476h0l.053-.018c8-1.957,16.43-8.9,20.749-19.6a22.373,22.373,0,0,1,7.722,1.781,15.522,15.522,0,0,1,8.832,10.842,11.91,11.91,0,0,1,.035,4.866,3.414,3.414,0,0,0-1.41-.141,3.777,3.777,0,0,0-3.226,3.173,4.112,4.112,0,0,0,1.657,4.09,4.713,4.713,0,0,0,4.266.617,5.322,5.322,0,0,0,3.349-3.3A19.193,19.193,0,0,1,1615.206,56.352ZM1583.05,76.925a.906.906,0,0,0,.67-1.093.9.9,0,0,0-1.058-.723.93.93,0,0,0,.388,1.816Zm-.723,5.2a1.326,1.326,0,0,0,.546,2.591,1.326,1.326,0,0,0-.546-2.591Z" transform="translate(-1279.25 0)" fill="#707070"/>
    <path id="Path_8" data-name="Path 8" d="M66.062,76.925a.93.93,0,1,0-.67-1.093A.92.92,0,0,0,66.062,76.925Zm.176,7.792a1.324,1.324,0,1,0-.97-1.551A1.315,1.315,0,0,0,66.238,84.717Zm-4-53.628h0ZM105.322,43.13c-3.385-2.415-8.374-1.393-9.837,1.64a5.131,5.131,0,0,0-.229,4.46,1.216,1.216,0,0,0,.053.141c.035.071.071.159.106.229.018.018.018.053.035.071a3.764,3.764,0,0,0,1.64,1.675,4.378,4.378,0,0,0,3.138.423,3.713,3.713,0,0,0,2.7-2.221A3.357,3.357,0,0,0,102.36,46a3.047,3.047,0,0,0-3.579-.846,2.45,2.45,0,0,0-1.375,1.551,2.1,2.1,0,0,0,.494,2.027,1.735,1.735,0,0,0,2.38.229,1.51,1.51,0,0,0,.37-1.728c-.018-.035-.053-.123,0-.176a.386.386,0,0,1,.088-.053c.758.071,1.111.952,1.058,1.657a2.46,2.46,0,0,1-1.569,2.063,3.846,3.846,0,0,1-3.9-.529,4.075,4.075,0,0,1-.934-4.742c.97-2.909,5.253-4.354,8.6-2.68,3.561,1.569,4.936,6.311,3.79,10.19A10.263,10.263,0,0,1,98.852,60.2a12.339,12.339,0,0,1-8.268-2.415,3.629,3.629,0,0,0,3.015-.264,3.383,3.383,0,0,0,1.64-2.133,2.837,2.837,0,0,0-1.111-3.138A2.356,2.356,0,0,0,91.871,52a2.2,2.2,0,0,0-1.252,1.375,1.627,1.627,0,0,0,1.093,2.133,1.058,1.058,0,0,0,1.252-.635.46.46,0,0,0-.176-.582c-.071-.018-.159-.018-.194.053a.964.964,0,0,1-.194.176.522.522,0,0,1-.458.071.614.614,0,0,1-.423-.476,1.075,1.075,0,0,1,.229-1.022,1.624,1.624,0,0,1,2.186-.141,2.5,2.5,0,0,1,.264,3.561,3.489,3.489,0,0,1-4.443.705c-.441-.335-.846-.67-1.234-1.022a49.622,49.622,0,0,1-5.465-5.959c5.077-1.393,8.744-5.377,8.744-10.313a11.368,11.368,0,0,0-.353-2.715,7.157,7.157,0,0,0-6.54-5.289.661.661,0,0,0-.176.018h0a5.01,5.01,0,0,0-4,1.992,3.73,3.73,0,0,0-.529,3.455,3.347,3.347,0,0,0,2.785,2.257,3.062,3.062,0,0,0,3.226-1.745,2.519,2.519,0,0,0,0-2.08,2.128,2.128,0,0,0-1.728-1.181,1.729,1.729,0,0,0-1.922,1.428,1.521,1.521,0,0,0,.881,1.534c.053.018.123.053.106.123a.1.1,0,0,1-.035.088,1.461,1.461,0,0,1-1.886-.511A2.5,2.5,0,0,1,81.4,34.7a3.625,3.625,0,0,1,3.173-2.151c.088,0,.159-.018.247-.018h.159a2.248,2.248,0,0,1,.335.018H85.4a6.7,6.7,0,0,1,5.447,4.813,9.988,9.988,0,0,1,.335,2.556c0,4.689-3.543,8.515-8.532,9.8-1.816-2.38-3.085-4.354-3.984-5.412-5.5-7.7-10.63-10.56-12.323-11.3a22.038,22.038,0,0,0-4.319-1.939.4.4,0,0,0,.123.018c-.035,0-.123-.035-.264-.071-.705-.229-1.428-.423-2.151-.582a21.827,21.827,0,0,0-13.116,1.41c-.317.141-.635.282-.952.441a24.425,24.425,0,0,0-4.478,2.733c-5.306,4.055-10.436,12.287-8.268,21.56a13.248,13.248,0,0,0,.74,2.521c.864,2.591,3.015,7.263,8.109,12.781,1.551,2.01,5.959,5.906,9.608,12.058q.4.688.74,1.428a3.5,3.5,0,0,1-1.6,4.213,2.526,2.526,0,0,1-3.438-.987,1.636,1.636,0,0,1,.582-2.115,1.076,1.076,0,0,1,1.058-.018.658.658,0,0,1,.37.511.533.533,0,0,1-.159.441,1.471,1.471,0,0,1-.212.141.155.155,0,0,0-.088.176c.053.229.335.317.547.3a1.043,1.043,0,0,0,.881-1.093A1.633,1.633,0,0,0,48.2,85.423a2.146,2.146,0,0,0-1.587.934,2.37,2.37,0,0,0-.212,2.274,2.851,2.851,0,0,0,2.838,1.728,3.422,3.422,0,0,0,2.415-1.181,3.646,3.646,0,0,0,.864-2.891,12.258,12.258,0,0,1,.67,8.585,10.276,10.276,0,0,1-8.9,7.281c-3.949.317-8.321-1.992-9.132-5.8-.952-3.632,1.3-7.563,4.354-7.915a4.149,4.149,0,0,1,4.848,3.015,3.692,3.692,0,0,1-.635,2.8,2.53,2.53,0,0,1-2.345,1.111c-.705-.106-1.481-.617-1.393-1.375a.138.138,0,0,1,.071-.071c.053-.053.123,0,.159.035a1.508,1.508,0,0,0,1.763,0,1.734,1.734,0,0,0,.264-2.38,2.121,2.121,0,0,0-1.886-.9,2.4,2.4,0,0,0-1.8,1.04,3.07,3.07,0,0,0,.106,3.667,3.351,3.351,0,0,0,3.35,1.287,3.727,3.727,0,0,0,2.715-2.186,4.259,4.259,0,0,0-.106-3.914l-.053-.106c-.018-.018-.018-.053-.035-.071a.978.978,0,0,0-.106-.141c-.035-.035-.053-.088-.088-.123a3.692,3.692,0,0,0-.247-.3l-.018-.018A4.127,4.127,0,0,0,42.7,88.79a5.19,5.19,0,0,0-3.9-.317c-3.279.793-5.236,5.412-3.561,9.22,1.657,3.931,6.734,5.729,11,4.707a11.219,11.219,0,0,0,8.18-9.449c.511-4.372-1.446-8.268-3.3-11.212-3.949-5.923-7.774-9.467-8.515-10.542a51.992,51.992,0,0,1-4.46-5.518c4.548,4.407,11.353,6.84,18.07,4.125a15.425,15.425,0,0,0,8.268-8.162,76.146,76.146,0,0,1-3.42,16.518c-.829,3.737-4.319,12.023-5.271,23.27a31.3,31.3,0,0,0-.071,3.173c-5.87,7.951-11.864,15.055-13.239,21.737-2.063,6.946,1.216,10.93,1.181,10.718.018.194-2.979-3.878-.705-10.6,1.481-6.223,7.175-12.8,12.852-20.379.071.811.159,1.622.3,2.433-2.45,3.067-4.513,5.5-5.765,7.087A28.272,28.272,0,0,0,44.96,127.01c-1.164,5.553-.282,11.3,3.861,15.5a12.7,12.7,0,0,0,6.311,3.42,8.786,8.786,0,0,0,8.215-2.1A7.965,7.965,0,0,0,65.374,140v-.018a4.58,4.58,0,0,0-.97-3.878c-.018-.018-.018-.035-.035-.053a.814.814,0,0,0-.123-.123l-.159-.159a3.679,3.679,0,0,0-2.115-.97,3.461,3.461,0,0,0-2.574.776,2.893,2.893,0,0,0-.934,3.208,2.333,2.333,0,0,0,1.692,1.516,2.118,2.118,0,0,0,1.8-.388,1.618,1.618,0,0,0,.353-2.362,1.025,1.025,0,0,0-1.375-.212.46.46,0,0,0-.194.582.167.167,0,0,0,.194.071,1.041,1.041,0,0,1,.247-.035.5.5,0,0,1,.423.212.675.675,0,0,1,.071.635,1.079,1.079,0,0,1-.793.688,1.634,1.634,0,0,1-1.869-1.164,2.517,2.517,0,0,1,1.869-3.05,3.257,3.257,0,0,1,2.944.652,4.125,4.125,0,0,1,.97,3.949,7.347,7.347,0,0,1-1.869,3.526,8.166,8.166,0,0,1-7.651,1.939,11.88,11.88,0,0,1-6.012-3.261c-3.967-4.019-4.83-9.52-3.7-14.949a27.427,27.427,0,0,1,5.289-11.159c1.181-1.5,3.12-3.79,5.43-6.681a18.431,18.431,0,0,0,4.654,9.273c4.354,4.813,11.988,6.858,18.123,4.284,6.029-2.345,10.666-8.779,9.167-14.844-1.181-5.87-6.576-9.643-11.759-8.3a7.1,7.1,0,0,0-5.553,7.4,6.608,6.608,0,0,0,2.38,4.425,5.78,5.78,0,0,0,5.183,1.269,5.111,5.111,0,0,0,3.79-3.949,4.645,4.645,0,0,0-2.239-5.13,3.759,3.759,0,0,0-3.156-.264,3.177,3.177,0,0,0-2.027,2.45,2.652,2.652,0,0,0,1.9,3.12,2.319,2.319,0,0,0,2.45-1.146c.018-.071.106-.194.212-.141a.133.133,0,0,1,.123.071c.6.987-.141,2.221-1.04,2.8a4.175,4.175,0,0,1-4.16.053c-2.962-1.675-3.455-6.17-1.375-8.568a7.753,7.753,0,0,1,4.619-2.292c5.06-.582,10.313,4.16,10.366,10.225.176,6.188-5.536,11.653-11.794,12.834-6.452,1.287-13.134-2.309-16.342-7.545a19.116,19.116,0,0,1-2.486-7.3c7.669-9.643,18.7-25,21.966-40.617a36.908,36.908,0,0,0-.053-16.659h.212a13.277,13.277,0,0,0,2.627-.264,62.813,62.813,0,0,0,4.407,4.954c2.5,2.415,5.923,5.13,10.3,5.518a11.237,11.237,0,0,0,10.93-6.082C109.553,50.887,108.83,45.546,105.322,43.13ZM59.663,31.019c7.81,1.622,14.473,7.757,17.841,16.36a26.043,26.043,0,0,1,.9,2.733,16.218,16.218,0,0,1-2.891-.476l-.053-.018h-.018C67.7,47.714,59.5,40.98,55.238,30.6A21.41,21.41,0,0,1,59.663,31.019ZM41.328,35.709a16.083,16.083,0,0,0-3.843,7.422,12.482,12.482,0,0,0-.018,5.236,4.131,4.131,0,0,0-.476.353,2.581,2.581,0,0,0-.776,2.45,2.119,2.119,0,0,0,2.362,1.763,1.875,1.875,0,0,0,1.5-1.6c0-.071.018-.176.106-.176a.149.149,0,0,1,.123,0,1.785,1.785,0,0,1,.053,2.415,3.075,3.075,0,0,1-2.979,1.181c-2.45-.317-3.755-2.556-3.914-4.813A22.366,22.366,0,0,1,41.328,35.709ZM79.584,59.138c-.053-.441-.141-.881-.229-1.322a7.579,7.579,0,0,0-4.8-5.289,5.77,5.77,0,0,0-4.284.088c-3.491,2.309-2.38,4.883-2.186,4.654.617.141.846-1.781,2.979-3.032a4.751,4.751,0,0,1,3.526-.106,6.5,6.5,0,0,1,4.019,4.407A17.189,17.189,0,0,1,79.2,64.25c-.141,1-.317,2.01-.511,3-3.173,15.214-13.856,30.269-21.49,39.912-.088-.917-.141-1.833-.141-2.733a2,2,0,0,1,.176-.229c3.1-4.213,6.276-7.986,8.744-11.9,2.2-4,3.42-8.092,3.279-11.582-.229-6.717-3.914-9.731-4.2-10.013.264.282,3.737,3.473,3.72,10.013.018,3.385-1.287,7.334-3.508,11.194C62.995,95.348,60,98.944,57.089,102.8a41.643,41.643,0,0,1,.405-4.337c1.71-10.436,4.8-17.841,5.148-19.815,3.508-11.212,3.42-19.039,2.909-23.094a13.043,13.043,0,0,0-.494-2.627c-.053-.176-.088-.3-.123-.405a12.378,12.378,0,0,0-5.8-6.893,10.461,10.461,0,0,0-8.5-.793,6.656,6.656,0,0,1-3.561.335,3.128,3.128,0,0,1-2.768-2.68,2.925,2.925,0,0,1,.053-.776,2.147,2.147,0,0,1,1.357-1.728,1.252,1.252,0,0,1,.441-.018.873.873,0,0,1,.494.282.854.854,0,0,0-.458.123.874.874,0,1,0,.9,1.5.914.914,0,0,0,.388-.511,1.12,1.12,0,0,0,.106-.317,1.076,1.076,0,0,0-.018-.529,1.754,1.754,0,0,0-1.287-1.234,1.577,1.577,0,0,0-.758.018,2.834,2.834,0,0,0-1.869,2.274,3.6,3.6,0,0,0-.071.97,3.84,3.84,0,0,0,3.332,3.314,6.092,6.092,0,0,0,1.41.123,8.019,8.019,0,0,0-1.481,1.3c-3.015,2.944-3.455,7.7-1.357,10.613a7.172,7.172,0,0,0,8.268,3.05,6.147,6.147,0,0,0,3.984-5.395,5.106,5.106,0,0,0-1.869-3.931,2.7,2.7,0,0,0-3.42-.353,2.211,2.211,0,0,0-.335,3.385,1.776,1.776,0,0,0,1.816.405,1.527,1.527,0,0,0,.917-.864,1.589,1.589,0,0,0-.564-1.8,1.224,1.224,0,0,1,1.569-.723,4.987,4.987,0,0,1,1.71,3.878A5.848,5.848,0,0,1,53.633,60.6a6.73,6.73,0,0,1-7.651-3.015c-1.869-2.733-1.393-7.069,1.428-9.749a9.206,9.206,0,0,1,11.247-1.375A11.39,11.39,0,0,1,64.387,57.8a14.046,14.046,0,0,1-8.6,10.948c-9.749,4-20.115-3.949-21.86-12.393a19.209,19.209,0,0,1-.529-3.808,5.322,5.322,0,0,0,3.35,3.3,4.618,4.618,0,0,0,4.266-.617,4.125,4.125,0,0,0,1.657-4.09,3.758,3.758,0,0,0-3.226-3.173,3.414,3.414,0,0,0-1.41.141,12.226,12.226,0,0,1,.035-4.866A15.487,15.487,0,0,1,46.9,32.394a21.979,21.979,0,0,1,7.722-1.781c4.319,10.7,12.728,17.629,20.749,19.6l.053.018h0a16.067,16.067,0,0,0,3.156.476A32.245,32.245,0,0,1,79.584,59.138Zm-.176-9.008a2.362,2.362,0,0,1-.353-.018,30.688,30.688,0,0,0-.987-2.962A31.084,31.084,0,0,0,75.035,41.3c.917,1.075,1.869,2.274,2.838,3.632.547.582,1.763,2.468,3.755,5.007A11.821,11.821,0,0,1,79.407,50.129Z" transform="translate(0 0)" fill="#707070"/>
    <path id="Path_9" data-name="Path 9" d="M1586.958,1426.032h0Zm29.282-25.492a13.247,13.247,0,0,0-.74-2.521c-.864-2.592-3.015-7.263-8.109-12.781-1.569-2.01-5.959-5.906-9.625-12.058q-.4-.687-.74-1.428a3.507,3.507,0,0,1,1.587-4.213,2.526,2.526,0,0,1,3.438.987,1.636,1.636,0,0,1-.582,2.115,1.077,1.077,0,0,1-1.058.018.658.658,0,0,1-.37-.511.483.483,0,0,1,.159-.441,1.468,1.468,0,0,1,.212-.141.155.155,0,0,0,.088-.176c-.053-.229-.335-.317-.547-.3a1.043,1.043,0,0,0-.881,1.093,1.617,1.617,0,0,0,1.869,1.5,2.147,2.147,0,0,0,1.587-.934,2.421,2.421,0,0,0,.229-2.274,2.867,2.867,0,0,0-2.838-1.728,3.422,3.422,0,0,0-2.415,1.181,3.646,3.646,0,0,0-.864,2.891,12.259,12.259,0,0,1-.67-8.585,10.251,10.251,0,0,1,8.9-7.281c4.019-.335,8.391,1.992,9.2,5.8.952,3.632-1.3,7.563-4.354,7.915a4.146,4.146,0,0,1-4.848-3.032,3.692,3.692,0,0,1,.635-2.8,2.513,2.513,0,0,1,2.345-1.111c.705.106,1.481.617,1.393,1.375a.138.138,0,0,1-.07.07c-.053.053-.124,0-.159-.035a1.536,1.536,0,0,0-1.781,0,1.752,1.752,0,0,0-.265,2.38,2.121,2.121,0,0,0,1.886.9,2.4,2.4,0,0,0,1.8-1.04,3.07,3.07,0,0,0-.106-3.667,3.351,3.351,0,0,0-3.35-1.287,3.727,3.727,0,0,0-2.715,2.186,4.245,4.245,0,0,0,.123,3.931.388.388,0,0,0,.053.088c.018.018.018.053.035.071l.106.159a.53.53,0,0,0,.088.123c.07.106.159.194.229.3,0,.018.018.018.018.035a4.313,4.313,0,0,0,1.375,1.023,5.19,5.19,0,0,0,3.9.317c3.261-.811,5.218-5.447,3.561-9.238-1.657-3.931-6.734-5.729-11-4.707a11.241,11.241,0,0,0-8.2,9.449c-.511,4.372,1.446,8.268,3.3,11.212,3.949,5.923,7.774,9.467,8.515,10.542a54.707,54.707,0,0,1,4.478,5.518c-4.548-4.407-11.353-6.84-18.07-4.125a15.425,15.425,0,0,0-8.268,8.162,77.221,77.221,0,0,1,3.42-16.518c.828-3.737,4.319-12.023,5.271-23.27a31.321,31.321,0,0,0,.071-3.173c5.87-7.951,11.864-15.055,13.24-21.737,2.063-6.946-1.217-10.93-1.164-10.719-.018-.176,2.979,3.878.705,10.6-1.481,6.223-7.175,12.8-12.852,20.379-.071-.811-.159-1.622-.3-2.433,2.45-3.068,4.513-5.5,5.765-7.087a27.936,27.936,0,0,0,5.394-11.406c1.164-5.553.282-11.3-3.861-15.5a12.7,12.7,0,0,0-6.311-3.42,8.741,8.741,0,0,0-8.2,2.1,7.819,7.819,0,0,0-2.027,3.825v.018a4.581,4.581,0,0,0,.969,3.879c.018.018.018.035.035.053a.815.815,0,0,0,.123.123l.159.159a3.68,3.68,0,0,0,2.115.97,3.461,3.461,0,0,0,2.574-.776,2.893,2.893,0,0,0,.934-3.208,2.333,2.333,0,0,0-1.693-1.516,2.169,2.169,0,0,0-1.816.388,1.632,1.632,0,0,0-.353,2.362,1.045,1.045,0,0,0,1.393.212.5.5,0,0,0,.212-.582.167.167,0,0,0-.194-.07,1.044,1.044,0,0,1-.247.035.451.451,0,0,1-.406-.211.675.675,0,0,1-.071-.635,1.079,1.079,0,0,1,.793-.687,1.634,1.634,0,0,1,1.869,1.164,2.517,2.517,0,0,1-1.869,3.05,3.256,3.256,0,0,1-2.944-.652,4.125,4.125,0,0,1-.97-3.949,7.2,7.2,0,0,1,1.869-3.526,8.166,8.166,0,0,1,7.651-1.939,11.879,11.879,0,0,1,6.011,3.261c3.984,4.019,4.83,9.52,3.7,14.949a27.428,27.428,0,0,1-5.289,11.159c-1.181,1.5-3.12,3.79-5.43,6.681a18.431,18.431,0,0,0-4.654-9.273c-4.354-4.813-11.988-6.858-18.123-4.284-6.029,2.345-10.666,8.779-9.167,14.844,1.181,5.87,6.576,9.643,11.759,8.3a7.1,7.1,0,0,0,5.553-7.4,6.685,6.685,0,0,0-2.38-4.443,5.731,5.731,0,0,0-5.183-1.269,5.111,5.111,0,0,0-3.79,3.949,4.646,4.646,0,0,0,2.239,5.13,3.759,3.759,0,0,0,3.156.265,3.245,3.245,0,0,0,2.027-2.451,2.652,2.652,0,0,0-1.9-3.12,2.307,2.307,0,0,0-2.45,1.146c-.035.071-.088.194-.212.141a.211.211,0,0,1-.141-.071c-.6-.987.141-2.221,1.04-2.8a4.175,4.175,0,0,1,4.161-.053c2.962,1.675,3.455,6.17,1.375,8.568a7.753,7.753,0,0,1-4.619,2.292c-5.06.582-10.313-4.161-10.366-10.225-.176-6.188,5.536-11.653,11.794-12.834,6.452-1.287,13.151,2.309,16.342,7.545a19.219,19.219,0,0,1,2.486,7.3c-7.669,9.643-18.722,25-21.966,40.617a37.163,37.163,0,0,0,.035,16.66h-.194a13.271,13.271,0,0,0-2.627.264,65.98,65.98,0,0,0-4.39-4.954c-2.5-2.415-5.923-5.112-10.313-5.518a11.236,11.236,0,0,0-10.93,6.082c-1.886,3.967-1.164,9.326,2.362,11.741,3.385,2.4,8.374,1.393,9.837-1.64a5.133,5.133,0,0,0,.229-4.46c-.018-.053-.035-.088-.053-.141a.948.948,0,0,0-.123-.229c-.018-.018-.018-.035-.035-.07a3.814,3.814,0,0,0-1.64-1.693,4.378,4.378,0,0,0-3.138-.423,3.751,3.751,0,0,0-2.7,2.221,3.356,3.356,0,0,0,.564,3.543,3.033,3.033,0,0,0,3.561.846,2.45,2.45,0,0,0,1.375-1.551,2.1,2.1,0,0,0-.494-2.027,1.735,1.735,0,0,0-2.38-.229,1.51,1.51,0,0,0-.37,1.728.134.134,0,0,1,0,.176.189.189,0,0,1-.088.053c-.758-.07-1.111-.952-1.058-1.657a2.46,2.46,0,0,1,1.569-2.062,3.846,3.846,0,0,1,3.9.529,4.041,4.041,0,0,1,.934,4.742c-.97,2.909-5.254,4.354-8.6,2.68-3.561-1.569-4.936-6.311-3.79-10.19a10.243,10.243,0,0,1,8.938-7.228,12.338,12.338,0,0,1,8.268,2.415,3.629,3.629,0,0,0-3.015.264,3.384,3.384,0,0,0-1.64,2.133,2.864,2.864,0,0,0,1.111,3.138,2.357,2.357,0,0,0,2.256.247,2.2,2.2,0,0,0,1.252-1.375,1.627,1.627,0,0,0-1.093-2.133,1.058,1.058,0,0,0-1.252.635.459.459,0,0,0,.176.582c.053.018.159.018.194-.053a1.655,1.655,0,0,1,.176-.176.522.522,0,0,1,.458-.07.645.645,0,0,1,.423.476,1.04,1.04,0,0,1-.247,1.022,1.624,1.624,0,0,1-2.186.141,2.515,2.515,0,0,1-.264-3.561,3.485,3.485,0,0,1,4.443-.705c.423.335.846.67,1.234,1.022a49.611,49.611,0,0,1,5.465,5.959c-5.077,1.393-8.744,5.377-8.744,10.313a10.539,10.539,0,0,0,.353,2.715,7.175,7.175,0,0,0,6.54,5.289.6.6,0,0,0,.176-.018h0a5.034,5.034,0,0,0,4-1.992,3.73,3.73,0,0,0,.529-3.455,3.346,3.346,0,0,0-2.785-2.256,3.062,3.062,0,0,0-3.226,1.745,2.453,2.453,0,0,0,0,2.08,2.1,2.1,0,0,0,1.728,1.181,1.729,1.729,0,0,0,1.922-1.428,1.521,1.521,0,0,0-.881-1.534c-.053-.018-.123-.053-.106-.123,0-.035.018-.053.035-.088a1.461,1.461,0,0,1,1.886.511,2.511,2.511,0,0,1,.229,2.574,3.625,3.625,0,0,1-3.173,2.151c-.088,0-.159.018-.247.018h-.176a2.124,2.124,0,0,1-.335-.018h-.088a6.7,6.7,0,0,1-5.447-4.813,9.266,9.266,0,0,1-.335-2.556c0-4.689,3.543-8.515,8.532-9.8,1.816,2.38,3.1,4.354,3.984,5.412,5.5,7.7,10.63,10.56,12.323,11.3a23.126,23.126,0,0,0,4.319,1.939.345.345,0,0,0-.123-.018,2.1,2.1,0,0,1,.247.071c.705.229,1.428.423,2.151.582a21.826,21.826,0,0,0,13.116-1.41c.335-.141.635-.3.952-.458a23.487,23.487,0,0,0,4.478-2.733C1613.26,1418.046,1618.39,1409.813,1616.239,1400.54Zm-44.919,11.635c-.547-.582-1.763-2.468-3.755-5.007a13.547,13.547,0,0,1,2.239-.194c.123,0,.229.018.353.018.282.987.6,1.992.97,2.962a31.086,31.086,0,0,0,3.032,5.853C1573.242,1414.749,1572.308,1413.533,1571.32,1412.175Zm18.211,13.927c-7.81-1.622-14.491-7.757-17.858-16.36a25.758,25.758,0,0,1-.9-2.715,16.23,16.23,0,0,1,2.891.476l.053.018h.018c7.722,1.9,15.937,8.638,20.185,19.022A22.749,22.749,0,0,1,1589.531,1426.1Zm18.334-4.689a16.082,16.082,0,0,0,3.843-7.422,12.485,12.485,0,0,0,.018-5.236,4.152,4.152,0,0,0,.476-.353,2.581,2.581,0,0,0,.776-2.45,2.119,2.119,0,0,0-2.362-1.763,1.874,1.874,0,0,0-1.5,1.6c0,.07-.018.176-.106.176a.149.149,0,0,1-.123,0,1.785,1.785,0,0,1-.053-2.415,3.075,3.075,0,0,1,2.979-1.181c2.45.317,3.773,2.556,3.914,4.813A22.411,22.411,0,0,1,1607.865,1421.413Zm4.6-20.15a4.618,4.618,0,0,0-4.266.617,4.092,4.092,0,0,0-1.657,4.09,3.776,3.776,0,0,0,3.226,3.173,3.414,3.414,0,0,0,1.41-.141,11.912,11.912,0,0,1-.035,4.866,15.487,15.487,0,0,1-8.832,10.842,21.98,21.98,0,0,1-7.722,1.781c-4.319-10.7-12.728-17.629-20.749-19.6l-.053-.018h0a16.068,16.068,0,0,0-3.156-.476,31.5,31.5,0,0,1-.987-8.427,11.512,11.512,0,0,0,.229,1.322,7.579,7.579,0,0,0,4.8,5.289,5.635,5.635,0,0,0,4.284-.106c3.49-2.309,2.38-4.883,2.186-4.654-.6-.159-.846,1.78-2.979,3.032a4.75,4.75,0,0,1-3.526.106,6.54,6.54,0,0,1-4.02-4.407,17.19,17.19,0,0,1-.582-5.712c.141-1,.317-2.01.529-3,3.156-15.2,13.856-30.251,21.49-39.895.088.917.141,1.833.141,2.733-.053.071-.123.159-.176.229-3.12,4.213-6.276,7.986-8.744,11.9-2.2,4-3.42,8.092-3.279,11.582.229,6.717,3.914,9.731,4.2,10.013-.264-.282-3.737-3.473-3.72-10.013-.018-3.385,1.287-7.334,3.508-11.177,2.274-3.438,5.271-7.034,8.18-10.895-.07,1.5-.211,2.962-.405,4.337-1.71,10.437-4.8,17.841-5.148,19.815-3.508,11.212-3.42,19.039-2.909,23.094a11.581,11.581,0,0,0,.494,2.609,2.932,2.932,0,0,0,.141.423,12.4,12.4,0,0,0,5.8,6.875,10.473,10.473,0,0,0,8.5.793,6.655,6.655,0,0,1,3.561-.335,3.145,3.145,0,0,1,2.768,2.68,2.924,2.924,0,0,1-.053.776,2.134,2.134,0,0,1-1.375,1.728,1.235,1.235,0,0,1-.441.018.872.872,0,0,1-.494-.282.854.854,0,0,0,.458-.123.874.874,0,1,0-.9-1.5.843.843,0,0,0-.388.511,2.346,2.346,0,0,0-.123.317,1.074,1.074,0,0,0,.018.529,1.7,1.7,0,0,0,1.287,1.216,1.655,1.655,0,0,0,.776-.018,2.834,2.834,0,0,0,1.869-2.274,3.6,3.6,0,0,0,.07-.97,3.84,3.84,0,0,0-3.332-3.314,6.09,6.09,0,0,0-1.41-.123,8.724,8.724,0,0,0,1.481-1.3c3.015-2.944,3.455-7.7,1.358-10.613a7.18,7.18,0,0,0-8.268-3.05,6.118,6.118,0,0,0-3.984,5.395,5.074,5.074,0,0,0,1.869,3.931,2.675,2.675,0,0,0,3.4.353,2.211,2.211,0,0,0,.335-3.385,1.776,1.776,0,0,0-1.816-.405,1.482,1.482,0,0,0-.917.864,1.607,1.607,0,0,0,.547,1.8,1.194,1.194,0,0,1-1.569.723,4.987,4.987,0,0,1-1.71-3.878,5.855,5.855,0,0,1,3.914-5.042,6.73,6.73,0,0,1,7.651,3.015c1.869,2.733,1.393,7.069-1.446,9.749a9.231,9.231,0,0,1-11.247,1.375,11.4,11.4,0,0,1-5.729-11.353,14.08,14.08,0,0,1,8.6-10.948c9.749-3.984,20.115,3.949,21.86,12.393a17.991,17.991,0,0,1,.529,3.808A5.256,5.256,0,0,0,1612.467,1401.263Zm-29.335-21.067a.93.93,0,1,0,.67,1.075A.9.9,0,0,0,1583.132,1380.2Zm-.176-7.792a1.326,1.326,0,0,0-.546,2.592,1.3,1.3,0,0,0,1.5-1.04A1.282,1.282,0,0,0,1582.956,1372.4Z" transform="translate(-1279.332 -1052.218)" fill="#707070"/>
    <path id="Path_10" data-name="Path 10" d="M66.255,1380.443a.906.906,0,0,0-.67,1.093.922.922,0,0,0,1.058.74.939.939,0,0,0-.388-1.833Zm.723-5.2a1.324,1.324,0,1,0-1.5-1.04A1.277,1.277,0,0,0,66.978,1375.243Zm-4.584,51.036h0Zm45.483-23.782a11.237,11.237,0,0,0-10.93-6.082c-4.39.388-7.792,3.1-10.3,5.518-1.745,1.763-3.191,3.455-4.407,4.954a13.279,13.279,0,0,0-2.627-.264h-.212a36.908,36.908,0,0,0,.053-16.66c-3.261-15.619-14.3-30.974-21.966-40.617a19.116,19.116,0,0,1,2.486-7.3c3.208-5.236,9.89-8.85,16.342-7.545,6.258,1.181,11.988,6.646,11.794,12.834-.053,6.047-5.306,10.789-10.366,10.225a7.753,7.753,0,0,1-4.619-2.292c-2.08-2.4-1.587-6.911,1.375-8.568a4.174,4.174,0,0,1,4.16.053c.9.582,1.64,1.816,1.04,2.8a.447.447,0,0,1-.123.071c-.106.035-.176-.071-.212-.141a2.318,2.318,0,0,0-2.45-1.146,2.643,2.643,0,0,0-1.9,3.12,3.177,3.177,0,0,0,2.027,2.45,3.758,3.758,0,0,0,3.156-.264,4.669,4.669,0,0,0,2.239-5.13,5.11,5.11,0,0,0-3.79-3.949,5.73,5.73,0,0,0-5.183,1.269,6.609,6.609,0,0,0-2.38,4.443,7.085,7.085,0,0,0,5.553,7.4c5.183,1.322,10.577-2.45,11.759-8.3,1.5-6.064-3.138-12.5-9.167-14.844-6.135-2.574-13.751-.547-18.123,4.284a18.291,18.291,0,0,0-4.654,9.273c-2.327-2.874-4.249-5.165-5.43-6.681a27.657,27.657,0,0,1-5.289-11.159c-1.128-5.43-.264-10.93,3.7-14.949a12.224,12.224,0,0,1,6.012-3.261,8.166,8.166,0,0,1,7.651,1.939,7.347,7.347,0,0,1,1.869,3.526,4.1,4.1,0,0,1-.97,3.949,3.245,3.245,0,0,1-2.944.652,2.53,2.53,0,0,1-1.869-3.05,1.625,1.625,0,0,1,1.869-1.163,1.115,1.115,0,0,1,.793.688.68.68,0,0,1-.071.635.5.5,0,0,1-.423.212,1.037,1.037,0,0,1-.247-.035.167.167,0,0,0-.194.071c-.123.212.035.441.194.582a1.026,1.026,0,0,0,1.375-.212,1.616,1.616,0,0,0-.353-2.362,2.118,2.118,0,0,0-1.8-.388,2.332,2.332,0,0,0-1.692,1.516,2.873,2.873,0,0,0,.934,3.208,3.461,3.461,0,0,0,2.574.776,3.679,3.679,0,0,0,2.115-.97,1.06,1.06,0,0,1,.141-.141l.123-.123c.018-.018.018-.035.035-.053a4.594,4.594,0,0,0,.97-3.878v-.018a7.9,7.9,0,0,0-2.027-3.825,8.774,8.774,0,0,0-8.215-2.1,12.7,12.7,0,0,0-6.311,3.42c-4.143,4.2-5.024,9.943-3.861,15.5a28.272,28.272,0,0,0,5.395,11.406c1.252,1.587,3.314,4.019,5.765,7.087a22.915,22.915,0,0,0-.3,2.433c-5.677-7.58-11.371-14.156-12.852-20.379-2.257-6.717.74-10.771.705-10.6.053-.212-3.226,3.773-1.181,10.719,1.375,6.681,7.369,13.786,13.239,21.737a31.305,31.305,0,0,0,.071,3.173c.952,11.23,4.443,19.533,5.271,23.27a77.227,77.227,0,0,1,3.42,16.518,15.425,15.425,0,0,0-8.268-8.162c-6.717-2.715-13.522-.264-18.07,4.125a61.44,61.44,0,0,1,4.46-5.518,95.338,95.338,0,0,0,8.515-10.542c1.851-2.944,3.808-6.84,3.3-11.212A11.222,11.222,0,0,0,46.4,1355c-4.266-1.04-9.361.758-11,4.707-1.675,3.808.3,8.427,3.561,9.238a5.2,5.2,0,0,0,3.9-.317,3.8,3.8,0,0,0,1.375-1.04.017.017,0,0,0,.018-.018c.088-.088.159-.194.247-.3.035-.035.053-.088.088-.123a.98.98,0,0,1,.106-.141c.018-.018.018-.053.035-.071l.053-.106a4.26,4.26,0,0,0,.106-3.914,3.727,3.727,0,0,0-2.715-2.186,3.318,3.318,0,0,0-3.35,1.287,3.071,3.071,0,0,0-.106,3.667,2.456,2.456,0,0,0,1.8,1.04,2.1,2.1,0,0,0,1.886-.9,1.736,1.736,0,0,0-.264-2.38,1.508,1.508,0,0,0-1.763,0c-.035.035-.106.088-.159.035-.018-.018-.053-.035-.071-.071-.071-.758.705-1.269,1.393-1.375a2.5,2.5,0,0,1,2.345,1.111,3.769,3.769,0,0,1,.635,2.8,4.136,4.136,0,0,1-4.848,3.032c-3.05-.353-5.289-4.284-4.354-7.916.811-3.808,5.183-6.117,9.2-5.8a10.251,10.251,0,0,1,8.9,7.281,12.356,12.356,0,0,1-.67,8.585,3.712,3.712,0,0,0-.864-2.891,3.422,3.422,0,0,0-2.415-1.181,2.852,2.852,0,0,0-2.838,1.728,2.379,2.379,0,0,0,.212,2.274,2.178,2.178,0,0,0,1.587.934,1.614,1.614,0,0,0,1.851-1.5,1.043,1.043,0,0,0-.881-1.093.509.509,0,0,0-.547.3.146.146,0,0,0,.088.176c.053.035.141.088.212.141a.469.469,0,0,1,.159.441.658.658,0,0,1-.37.511,1.123,1.123,0,0,1-1.058-.018,1.618,1.618,0,0,1-.582-2.115,2.526,2.526,0,0,1,3.438-.987,3.488,3.488,0,0,1,1.6,4.213c-.229.494-.494.97-.74,1.428-3.649,6.152-8.056,10.049-9.608,12.058-5.095,5.518-7.246,10.172-8.109,12.781a14.665,14.665,0,0,0-.74,2.521c-2.151,9.273,2.962,17.506,8.268,21.56a24.428,24.428,0,0,0,4.478,2.732c.317.159.635.317.952.458a21.839,21.839,0,0,0,13.116,1.41c.723-.159,1.446-.353,2.151-.582.123-.035.212-.053.264-.071a.984.984,0,0,1-.123.018,23.127,23.127,0,0,0,4.319-1.939c1.71-.74,6.822-3.6,12.323-11.3.9-1.04,2.168-3.032,3.984-5.412,5.007,1.287,8.55,5.112,8.532,9.8a9.988,9.988,0,0,1-.335,2.556,6.673,6.673,0,0,1-5.447,4.813h-.088c-.106,0-.229.018-.335.018H85.03a1.167,1.167,0,0,1-.247-.018,3.635,3.635,0,0,1-3.173-2.151,2.469,2.469,0,0,1,.229-2.574c.441-.546,1.269-.969,1.886-.511.018.035.035.053.035.088.018.071-.053.106-.106.123a1.5,1.5,0,0,0-.881,1.534,1.74,1.74,0,0,0,1.922,1.428,2.128,2.128,0,0,0,1.728-1.181,2.453,2.453,0,0,0,0-2.08,3.039,3.039,0,0,0-3.226-1.745,3.346,3.346,0,0,0-2.785,2.256,3.789,3.789,0,0,0,.529,3.455,5.01,5.01,0,0,0,4,1.992h0c.053,0,.123.018.176.018a7.158,7.158,0,0,0,6.54-5.289,10.441,10.441,0,0,0,.353-2.715c0-4.936-3.667-8.92-8.744-10.313a48.194,48.194,0,0,1,5.465-5.959c.388-.353.811-.688,1.234-1.023a3.485,3.485,0,0,1,4.443.705,2.515,2.515,0,0,1-.264,3.561,1.624,1.624,0,0,1-2.186-.141,1.086,1.086,0,0,1-.229-1.022.716.716,0,0,1,.423-.476.54.54,0,0,1,.458.071c.071.053.123.123.194.176.035.071.141.071.194.053a.472.472,0,0,0,.176-.582,1.032,1.032,0,0,0-1.252-.635,1.627,1.627,0,0,0-1.093,2.133,2.246,2.246,0,0,0,1.252,1.375,2.356,2.356,0,0,0,2.257-.247,2.837,2.837,0,0,0,1.111-3.138,3.383,3.383,0,0,0-1.639-2.133,3.7,3.7,0,0,0-3.015-.264,12.339,12.339,0,0,1,8.268-2.415,10.263,10.263,0,0,1,8.938,7.228c1.146,3.878-.229,8.621-3.79,10.19-3.35,1.675-7.651.229-8.6-2.68a4.029,4.029,0,0,1,.934-4.742,3.807,3.807,0,0,1,3.9-.529,2.491,2.491,0,0,1,1.569,2.063c.035.705-.3,1.569-1.058,1.657a.1.1,0,0,1-.088-.053c-.053-.035-.035-.123,0-.176a1.5,1.5,0,0,0-.37-1.728,1.735,1.735,0,0,0-2.38.229,2.1,2.1,0,0,0-.494,2.027,2.45,2.45,0,0,0,1.375,1.551,3.059,3.059,0,0,0,3.579-.846,3.346,3.346,0,0,0,.564-3.543,3.791,3.791,0,0,0-2.7-2.221,4.39,4.39,0,0,0-3.138.423,3.723,3.723,0,0,0-1.64,1.692c-.018.018-.018.035-.035.07-.035.071-.071.159-.106.229-.018.053-.035.088-.053.141a5.132,5.132,0,0,0,.229,4.46c1.463,3.032,6.452,4.037,9.837,1.64C109.023,1411.823,109.746,1406.482,107.877,1402.5Zm-74.2,4.9c.159-2.256,1.463-4.478,3.914-4.813a3.09,3.09,0,0,1,2.979,1.181,1.8,1.8,0,0,1-.053,2.415.149.149,0,0,1-.123,0c-.088,0-.106-.106-.106-.176a1.915,1.915,0,0,0-1.5-1.6,2.133,2.133,0,0,0-2.362,1.763,2.581,2.581,0,0,0,.776,2.45,2.38,2.38,0,0,0,.476.353,12.482,12.482,0,0,0,.018,5.236,16.083,16.083,0,0,0,3.843,7.422A22.079,22.079,0,0,1,33.676,1407.4Zm13.416,17.576a15.557,15.557,0,0,1-8.832-10.842,11.91,11.91,0,0,1-.035-4.865,3.446,3.446,0,0,0,1.41.141,3.777,3.777,0,0,0,3.226-3.173,4.112,4.112,0,0,0-1.657-4.09,4.669,4.669,0,0,0-4.266-.617,5.322,5.322,0,0,0-3.35,3.3,17.992,17.992,0,0,1,.529-3.808c1.745-8.444,12.111-16.377,21.86-12.393a14.046,14.046,0,0,1,8.6,10.948,11.416,11.416,0,0,1-5.729,11.353,9.206,9.206,0,0,1-11.247-1.375c-2.838-2.68-3.314-7-1.428-9.749a6.683,6.683,0,0,1,7.651-3.015,5.876,5.876,0,0,1,3.931,5.042,5.018,5.018,0,0,1-1.71,3.878,1.229,1.229,0,0,1-1.569-.723,1.635,1.635,0,0,0,.564-1.8,1.438,1.438,0,0,0-.917-.864,1.768,1.768,0,0,0-1.816.405,2.235,2.235,0,0,0,.335,3.385,2.674,2.674,0,0,0,3.4-.353,5.073,5.073,0,0,0,1.869-3.931,6.137,6.137,0,0,0-3.984-5.394,7.18,7.18,0,0,0-8.268,3.05c-2.1,2.909-1.657,7.669,1.357,10.613a8.019,8.019,0,0,0,1.481,1.3,6.1,6.1,0,0,0-1.41.123,3.857,3.857,0,0,0-3.332,3.314,3.6,3.6,0,0,0,.071.969,2.833,2.833,0,0,0,1.869,2.274,1.583,1.583,0,0,0,.758.018,1.676,1.676,0,0,0,1.287-1.216,1.8,1.8,0,0,0,.018-.529,1.12,1.12,0,0,0-.106-.317.811.811,0,0,0-.388-.511.874.874,0,1,0-.9,1.5.9.9,0,0,0,.458.123,1,1,0,0,1-.494.282.753.753,0,0,1-.441-.018,2.142,2.142,0,0,1-1.357-1.728,2.925,2.925,0,0,1-.053-.776,3.181,3.181,0,0,1,2.768-2.68,6.822,6.822,0,0,1,3.561.335,10.473,10.473,0,0,0,8.5-.793,12.378,12.378,0,0,0,5.8-6.893c.035-.088.071-.229.123-.406a11.924,11.924,0,0,0,.494-2.627c.511-4.055.582-11.882-2.909-23.094-.353-1.992-3.438-9.379-5.148-19.815a41.641,41.641,0,0,1-.405-4.337c2.909,3.861,5.906,7.457,8.18,10.895,2.239,3.861,3.526,7.792,3.508,11.177.018,6.54-3.455,9.714-3.72,10.013.282-.282,3.967-3.279,4.2-10.013.141-3.49-1.075-7.6-3.279-11.582-2.468-3.914-5.624-7.686-8.744-11.9-.053-.071-.123-.159-.176-.229,0-.9.053-1.816.141-2.733,7.633,9.643,18.317,24.7,21.49,39.895.212,1,.37,2.01.511,3.015a17.232,17.232,0,0,1-.582,5.712,6.578,6.578,0,0,1-4.019,4.407,4.75,4.75,0,0,1-3.526-.106c-2.133-1.252-2.362-3.173-2.979-3.032-.194-.229-1.3,2.345,2.186,4.654a5.805,5.805,0,0,0,4.284.106,7.58,7.58,0,0,0,4.8-5.289,12.229,12.229,0,0,0,.229-1.322,33,33,0,0,1-.987,8.427,16.076,16.076,0,0,0-3.156.476h0l-.053.018c-8,1.957-16.43,8.9-20.749,19.6A23.189,23.189,0,0,1,47.092,1424.975Zm12.763,1.375a20.318,20.318,0,0,1-4.407.423c4.266-10.384,12.464-17.1,20.2-19.022h.018l.053-.018a16.759,16.759,0,0,1,2.891-.476c-.264.917-.547,1.816-.9,2.715C74.347,1418.575,67.665,1424.71,59.855,1426.35Zm18.211-13.927c-.97,1.357-1.922,2.556-2.838,3.632a32.2,32.2,0,0,0,3.032-5.853,30.7,30.7,0,0,0,.987-2.962c.123,0,.229-.018.353-.018a12.13,12.13,0,0,1,2.239.194C79.829,1409.955,78.613,1411.841,78.066,1412.423Z" transform="translate(-0.193 -1052.465)" fill="#707070"/>
    <path id="Path_11" data-name="Path 11" d="M1830.9,836.97V686.5h.652V837.09h-.652Z" transform="translate(-1518.497 -559.312)" fill="#707070"/>
    <path id="Path_12" data-name="Path 12" d="M1845.4,834.587l.018-150.536,1.534-.551-.018,151.59Z" transform="translate(-1530.441 -556.837)" fill="#707070"/>
    <path id="Path_13" data-name="Path 13" d="M170.8,836.88V686.5h.652V836.88Z" transform="translate(-113.993 -559.295)" fill="#707070"/>
    <path id="Path_14" data-name="Path 14" d="M151.3,834.97V683.1l1.534.814V834.18Z" transform="translate(-97.931 -556.519)" fill="#707070"/>
    <path id="Path_15" data-name="Path 15" d="M460.4,161.352V160.7h154v.652Z" transform="translate(-352.539 -107.662)" fill="#707070"/>
    <path id="Path_16" data-name="Path 16" d="M463.7,142.734V141.2H616.519v1.534Z" transform="translate(-355.258 -91.6)" fill="#707070"/>
    <path id="Path_17" data-name="Path 17" d="M463.7,1854.452v-.652H616.519v.652Z" transform="translate(-355.258 -1499.378)" fill="#707070"/>
    <path id="Path_18" data-name="Path 18" d="M460.4,1869.851l.242-1.551h153.7l.27,1.551Z" transform="translate(-352.539 -1511.322)" fill="#707070"/>
  </g>
</svg>
