<?xml version="1.0" encoding="utf-8"?>
<!-- Generator: Adobe Illustrator 22.0.1, SVG Export Plug-In . SVG Version: 6.00 Build 0)  -->
<svg version="1.1" id="Layer_1" xmlns="http://www.w3.org/2000/svg" xmlns:xlink="http://www.w3.org/1999/xlink" x="0px" y="0px"
	 viewBox="0 0 2000 2000" style="enable-background:new 0 0 2000 2000;" xml:space="preserve">
<path d="M1953.5,1045.5c-0.1-0.7,11.3,20.8-2.5,52.5c-10.9,32.3-46.4,64.2-80.8,102.4c-3.5,3.8-6.9,7.6-10.3,11.2
	c-6-7.9-9.2-17.5-9.2-27.3c0-7.1,1.6-14.2,5.1-20.8c6.3-12,15.3-21.5,26-28.3c1.2-0.8,1.6-2.4,0.8-3.7c-0.7-1.1-2-1.5-3.2-1
	c-11-10.1-55.7-56.6-52.6-130.3c0.8-40.9,16.9-75.7,33.6-96.6c12.5-15.6,24-24.5,28.9-28.3c0.4-0.2,0.7-0.4,1-0.8
	c1-0.8,1.5-1.2,1.4-1.3c0.1,0.1-0.3,0.4-1.1,0.9c0.6-1.2,0.2-2.7-0.9-3.4c-10.7-6.7-19.7-16.3-26-28.2c-3.5-6.7-5.1-13.8-5.1-20.8
	c0-7.9,2.1-15.6,6-22.4c1.9,2.1,3.8,4.2,5.7,6.3c34.4,38.2,69.9,70,80.8,102.4c13.8,31.8,2.5,53.2,2.5,52.5
	c-0.2,0.9,13.1-20.3,0.6-53.7c-9.8-33.9-45-67.8-79.1-105.7c-2.3-2.5-4.5-5-6.8-7.4c3.8-4.8,8.7-8.9,14.5-12c4-2.1,8.3-3.1,12.5-3.1
	c9.8,0,19.3,5.3,24.1,14.6c1.2,2.4,1.8,4.9,1.8,7.4c0,5.8-3.1,11.3-8.6,14.2c-1.3,0.7-2.7,1-4.2,1c-3.3,0-6.4-1.8-8-4.8
	c-0.4-0.7-0.5-1.4-0.5-2.2c0-1.7,0.9-3.3,2.5-4.1c1.3-0.7,1.8-2.3,1.1-3.6c-0.7-1.3-2.3-1.8-3.6-1.1c-3.4,1.8-5.3,5.3-5.3,8.8
	c0,1.6,0.4,3.1,1.1,4.6c2.6,4.9,7.6,7.7,12.7,7.7c2.2,0,4.5-0.6,6.6-1.6c7.3-3.8,11.4-11.2,11.4-18.9c0-3.3-0.8-6.7-2.4-9.9
	c-5.8-11.1-17.1-17.5-28.9-17.5c-5.1,0-10.2,1.2-15,3.7c-6.3,3.3-11.5,7.7-15.7,12.8c-13.9-14.6-27.8-28.3-38.3-41.9
	c-12.7-17.9-20.4-36.7-21.9-53.3c-3.4-33.8,12.3-52.2,11.6-51.8c0.8-0.4-16.6,16.7-14.9,52c0.8,17.3,8,37.3,20.6,56.1
	c11.1,15.3,25,29.2,39,44.2c-4.9,7.9-7.5,17.1-7.5,26.5c0,7.8,1.9,15.8,5.7,23.3c6.7,12.8,16.4,23.1,27.9,30.3v0
	c0.4,0.3,0.9,0.4,1.3,0.4c-5.6,3.5-17.4,11.2-30.8,25.5c-18.6,20-37.7,56.1-38.5,98.9c-1.2,42.8,14.7,79.9,31.5,101.5
	c12.4,16.4,24,25.3,28.9,29c-0.1,0-0.2,0.1-0.4,0.1c-11.4,7.2-21.2,17.4-27.9,30.3c-3.9,7.4-5.7,15.4-5.7,23.3
	c0,11.3,3.8,22.3,10.9,31.3c-12.5,13.2-24.6,25.8-34.5,39.4c-12.7,18.8-19.9,38.9-20.6,56.1c-1.7,35.3,15.7,52.5,14.9,52.1
	c0.7,0.4-15-17.9-11.6-51.8c1.5-16.6,9.2-35.4,21.9-53.3c9.5-12.3,21.7-24.6,34.3-37.7c3.4,3.3,7.4,6.3,11.9,8.6
	c4.8,2.5,9.9,3.7,15,3.7c11.7,0,23-6.4,28.9-17.4c1.6-3.2,2.4-6.5,2.4-9.9c0-7.7-4.2-15.1-11.4-18.9c-2.1-1.1-4.4-1.6-6.6-1.6
	c-5.2,0-10.2,2.8-12.7,7.7c-0.7,1.5-1.1,3-1.1,4.6c0,3.6,1.9,7,5.3,8.8c1.3,0.7,2.9,0.2,3.6-1.1c0.7-1.3,0.2-2.9-1.1-3.6
	c-1.6-0.8-2.5-2.4-2.5-4.1c0-0.7,0.2-1.5,0.5-2.2c1.6-3.1,4.7-4.8,8-4.8c1.4,0,2.8,0.3,4.2,1c5.5,2.9,8.6,8.4,8.6,14.2
	c0,2.5-0.6,5-1.8,7.4c-4.9,9.3-14.3,14.6-24.1,14.6c-4.2,0-8.5-1-12.5-3.1c-4-2.1-7.6-4.7-10.6-7.7c3.6-3.8,7.3-7.7,10.8-11.7
	c34.2-37.9,69.3-71.7,79.1-105.7C1966.6,1065.8,1953.3,1044.6,1953.5,1045.5z"/>
<path d="M177,1255c-10-13.6-22-26.1-34.5-39.4c7-8.9,10.9-20,10.8-31.3c0-7.9-1.8-15.9-5.7-23.3c-6.7-12.8-16.5-23.1-27.9-30.3
	c-0.1-0.1-0.2-0.1-0.4-0.1c4.9-3.7,16.5-12.6,28.9-29c16.8-21.6,32.7-58.7,31.5-101.5c-0.9-42.9-19.9-78.9-38.5-98.9
	c-13.3-14.3-25.1-22-30.8-25.5c0.5,0,1-0.1,1.4-0.4v0c11.4-7.2,21.2-17.4,27.9-30.3c3.9-7.5,5.7-15.4,5.7-23.3
	c0-9.3-2.6-18.5-7.5-26.5c14.1-15.1,27.9-29,39-44.2c12.7-18.8,19.9-38.8,20.6-56.1c1.7-35.3-15.7-52.5-14.9-52
	c-0.7-0.5,15,17.9,11.6,51.8c-1.5,16.6-9.2,35.4-21.9,53.3c-10.5,13.6-24.4,27.3-38.3,41.9c-4.2-5.1-9.4-9.5-15.7-12.8
	c-4.8-2.5-9.9-3.7-15-3.7c-11.7,0-23.1,6.4-28.9,17.5c-1.7,3.2-2.4,6.5-2.4,9.9c0,7.7,4.2,15.1,11.5,18.9c2.1,1.1,4.4,1.6,6.6,1.6
	c5.2,0,10.1-2.8,12.7-7.7c0.8-1.5,1.1-3.1,1.1-4.6c0-3.6-2-7.1-5.4-8.8c-1.3-0.7-2.9-0.2-3.6,1.1c-0.7,1.3-0.2,2.9,1.1,3.6
	c1.6,0.8,2.5,2.4,2.5,4.1c0,0.7-0.2,1.5-0.5,2.2c-1.6,3.1-4.7,4.8-8,4.8c-1.4,0-2.8-0.3-4.2-1c-5.5-2.9-8.6-8.4-8.6-14.2
	c0-2.5,0.6-5,1.8-7.4c4.9-9.3,14.3-14.6,24.2-14.6c4.2,0,8.5,1,12.5,3.1c5.8,3,10.7,7.1,14.5,12c-2.3,2.4-4.6,4.9-6.8,7.4
	C89.4,839,54.3,872.9,44.5,906.8c-12.6,33.4,0.7,54.6,0.5,53.7c0.1,0.7-11.3-20.8,2.5-52.5c10.9-32.3,46.4-64.1,80.8-102.4
	c1.9-2.1,3.8-4.2,5.8-6.3c3.9,6.8,6,14.6,6,22.4c0,7-1.6,14.2-5.1,20.8c-6.3,12-15.4,21.5-26,28.2c-1.2,0.7-1.5,2.2-0.9,3.4
	c-0.8-0.5-1.2-0.8-1.1-0.9c-0.1,0.1,0.4,0.5,1.4,1.3c0.3,0.4,0.6,0.6,1,0.8c4.9,3.7,16.3,12.6,28.9,28.3
	c16.7,20.9,32.8,55.7,33.6,96.6c3,73.7-41.7,120.2-52.7,130.3c-1.2-0.5-2.5-0.1-3.2,1c-0.8,1.2-0.4,2.9,0.8,3.7
	c10.6,6.7,19.7,16.3,26,28.3c3.5,6.6,5.1,13.8,5.1,20.8c0,9.8-3.3,19.4-9.2,27.3c-3.4-3.7-6.9-7.4-10.4-11.2
	c-34.4-38.2-69.9-70-80.8-102.4c-13.8-31.8-2.5-53.3-2.5-52.5c0.2-0.9-13.1,20.2-0.5,53.7c9.8,34,44.9,67.8,79.1,105.7
	c3.6,4,7.2,7.8,10.9,11.7c-3.1,3-6.6,5.6-10.6,7.7c-4,2.1-8.3,3.1-12.5,3.1c-9.8,0-19.3-5.3-24.1-14.6c-1.2-2.4-1.8-4.9-1.8-7.4
	c0-5.8,3.1-11.3,8.6-14.2c1.3-0.7,2.8-1,4.2-1c3.2,0,6.4,1.8,8,4.8c0.4,0.7,0.5,1.5,0.5,2.2c0,1.7-0.9,3.3-2.5,4.1
	c-1.3,0.7-1.8,2.3-1.1,3.6c0.7,1.3,2.3,1.8,3.6,1.1c3.4-1.8,5.4-5.2,5.4-8.8c0-1.6-0.4-3.2-1.1-4.6c-2.5-4.9-7.5-7.7-12.7-7.7
	c-2.2,0-4.5,0.5-6.6,1.6c-7.3,3.8-11.5,11.2-11.5,18.9c0,3.3,0.8,6.7,2.4,9.9c5.8,11.1,17.1,17.4,28.9,17.4c5.1,0,10.2-1.2,15-3.7
	c4.5-2.3,8.4-5.3,11.9-8.6c12.5,13.1,24.8,25.4,34.3,37.7c12.7,17.9,20.4,36.7,21.9,53.3c3.4,33.8-12.3,52.2-11.6,51.8
	c-0.8,0.4,16.6-16.7,14.9-52.1C196.9,1293.8,189.7,1273.8,177,1255z"/>
<path d="M940.6,515.8c-3.4,3.9-5.4,5.9-5.2,6C935.2,522.2,937.2,520.1,940.6,515.8z M606.8,539.6c0-5.2-4.4-9.4-9.9-9.4
	c-5.5,0-9.9,4.2-9.9,9.4c0,5.2,4.4,9.4,9.9,9.4C602.4,549,606.8,544.8,606.8,539.6z M972.3,428.8c0,0-0.1-0.2-0.1-0.5
	c0.7-6.1,1.1-12.2,1.1-18.3c0-31.7-9.5-63.8-30.3-93.7c-1.5-2.1-3.1-4.2-4.7-6.2c-7.4-9.8-16.1-19.4-26.7-28.5
	C874,249,806.1,224.1,741.7,254c-5.9,2.5-11.7,5.6-17.3,9.2c-17.7,10.2-48.4,33.1-80.9,78.6c-12.3,14.4-34.1,52.5-73.4,88.5
	c-2.9,2.6-6,5.1-9.2,7.6c-10.6,5.9-25,5.1-33.2-5.2c-6.2-7.8-6.6-20.2,2-26.6c4.9-3.7,12.3-3.7,16.3,1.1c1.7,2.1,2.7,4.9,1.8,7.6
	c-0.5,1.6-1.6,3-3.2,3.5c-1.1,0.3-2.4,0.3-3.4-0.5c-0.5-0.4-1-0.9-1.3-1.3c-0.3-0.5-1-0.5-1.5-0.3c-1.6,0.7-1.8,2.8-1.3,4.4
	c1.2,3.9,5.5,5.6,9.3,4.8c7.2-1.5,10.2-9.5,8.2-15.9c-1.4-4.6-4.8-8.3-9.3-10.2c-5.6-2.3-11.8-1.6-16.9,1.8
	c-7.8,5.2-10.5,14.7-8.3,23.4c1.8,6.8,6.1,12.3,12.3,15.9c6.9,4,15.1,4.5,22.2,2.1c-17.4,11.9-38.5,20.4-61.4,17.9
	c-29.9-2.3-58.5-24.1-66.6-53.9c-8.5-28.9,1.8-64.2,28.3-76c25-12.4,57.2-2,64.3,19.7c3.5,8.5,3.6,16.9,1.6,24.1
	c-5,13.5-22.4,22.3-37.7,15.5c-6.4-2.8-11-8.3-11.6-15.4c-0.4-5.2,2.2-11.7,7.9-12.3c0.3,0,0.5,0.2,0.6,0.3c0.5,0.3,0.2,0.9,0,1.2
	c-1.5,4.7-1.3,9.7,2.7,13c5.5,4.5,13.1,3.3,17.7-1.7c3.9-4.1,5.1-9.9,3.6-15.1c-1.4-5.2-5.3-9.2-10.3-11.6
	c-9.3-4.2-19.8-1.4-26.6,6.3c-6.6,7.4-7.9,17.5-4.3,26.4c3.6,8.6,11.1,14.5,20.1,16.5c10.2,2.3,20.6,0.1,28.4-6.8
	c0.2-0.2,0.5-0.4,0.7-0.6c0.1-0.1,0.3-0.2,0.4-0.4c0.3-0.3,0.6-0.6,0.9-1c0.3-0.3,0.5-0.5,0.8-0.8c0.6-0.7,1.2-1.4,1.8-2.2
	c0-0.1,0.1-0.1,0.1-0.2c2.6-3.4,4.5-7.5,5.4-11.7c2.3-8.6,1.8-18.9-3.6-28.8c-10.9-22.6-47.6-29.9-72.8-12
	c-26.2,18.1-31.6,57.9-17.6,87.5c14.2,30.8,49.5,48,81.4,45.4c32.7-2.9,58.1-23.1,76.8-41.1c37.2-37.8,57.2-71.1,63.9-78.2
	c11.8-16.4,23.1-29.9,33.4-41c-25.2,39.9-32.7,93.3-2.7,138.2c22.5,33.5,62.5,52.9,100.7,49.6c38.8-2.8,70.6-31.6,80.4-65.2
	c7.1-21.8,3.5-45.3-7.3-63.4c-5.5-9.3-7.8-17.9-7.8-25.4c0-13,6.8-22,15.3-24.3c1.8-0.5,3.8-0.8,5.8-0.8c6.3,0,12.5,2.6,14.7,7.3
	c0.5,1,0.8,2.1,0.8,3.2c0,1.5-0.5,2.9-1.3,4.1c-0.2-1.2-0.7-2.3-1.6-3.2c-2.4-2.7-6.6-2.8-9.2-0.4c-2.7,2.4-2.8,6.6-0.4,9.2
	c1.2,1.3,2.8,2,4.4,2.1c0.8,0.2,1.6,0.4,2.5,0.4c1.3,0,2.6-0.3,3.9-0.9c4.4-2.2,7-6.6,7-11.3c0-1.9-0.4-3.8-1.3-5.5
	c-3.7-7.2-11.8-10.2-19.4-10.2c-2.5,0-4.9,0.3-7.2,1c-11.3,3.1-19.2,14.6-19.2,29.4c0,3.4,0.4,6.9,1.3,10.5
	c-3.6-3.4-7.5-6.4-11.8-8.9c-26-17.5-61.4-13.5-79.5,6.2c-19,18.6-21.1,47.5-9.7,64.9c11.4,17.9,31.5,23.5,45.4,20.8
	c15.5-4.3,22.5-12.7,25.8-19.6c5.2-8.1,4.5-18.5-2.7-25.4c-7.3-6.6-19.5-6.4-25.2,2.7c-2.7,4.3-2.7,9.5-0.2,13.9
	c1.7,3.1,4.3,4.4,7.8,5.3c5.6,1,9.6-2.5,12.3-6.8c7,1.2,7.6,6.5,7.7,10.3c-3.5,6.7-10.7,14.7-25.7,18.3
	c-13.4,2.2-32.6-3.8-42.8-20.9c-10.3-16.5-7.6-43.5,10.4-60.4c17.1-17.9,49.4-20.9,73.3-4.3c25.1,14.9,37.4,49.1,27.1,80
	c-9.4,30.8-38.8,56.8-74.1,59.1c-35,2.9-72.1-15.2-92.9-46.2c-44-65.1-1.8-152.8,57.2-178.4c8.9-4.3,17.9-7.4,26.9-9.6
	c-10.5,6.4-17.6,17.1-19,29.4c-1.4,11.4,2.4,22.5,10.9,30.2c8.8,7.9,21.1,10.5,32.4,5.9c11.8-4.7,19.3-15.7,18.3-28.3
	c-0.3-3.7-1.4-7.1-3.2-10.1c11.1-4.8,23.2-7.1,35.5-7.1c35,0,71.9,18.2,92.6,47.9c20.2,29.1,29.5,60.3,29.5,91.1
	c0,59.5-34.6,117.5-92.2,155.1c-25.4,16.6-53.3,27.1-82.6,32.9c3.1-1.1,6.2-2.3,9.3-3.7c17.7-7.8,29.6-26.9,31.3-43
	c2.8-16.7-5.6-28.5-7.2-31c-22.2-22-39.3-10-37.3-8.9c-0.2,4.6,14.3,3.4,26.6,17.1c2.1,3.3,8,12,6.1,25.6c-1.4,13.4-11.1,28.2-26,36
	c-14,7.4-28.8,11.1-40.7,12.9c-7.5,0.5-15.2,0.8-22.8,0.8C573,603.8,392.6,497.9,337.4,470.4c-27.9-13.9-60.2-22-91.4-22
	c-42.3,0-82.9,15.1-107.2,51.8c-9.9,15-15.3,33.4-15.3,51.3c0,22.4,8.6,44.2,27.8,56.7c8.6,5.5,20,9,31,9h0.1
	c11,0,24.5-5.9,30.3-18.5c2-4.3,2.9-9.2,2.4-14.1c-0.7-7.1-4.1-13.3-9.5-17.6c-7.1-5.5-16.9-7-24.8-1.9c-5.2,3.3-8.4,8.6-8.5,14.7
	c-0.1,4.8,1.9,9.4,5.6,12.6c5,4.5,13.6,4.9,17.8-1c2.3-3.2,2.5-7.8-0.6-10.4c-1.2-1.1-3.2-1.8-4.5-0.6c-0.4,0.3-0.6,1-0.3,1.5
	c0.2,0.5,0.5,1.1,0.7,1.8c0.4,1.3-0.2,2.4-0.9,3.4c-1.1,1.3-2.8,1.7-4.5,1.5c-2.9-0.3-5.1-2.3-6.3-4.7c-2.7-5.7,0.2-12.4,5.6-15.4
	c9.3-5.2,20.5,0.1,25.1,8.9c3.9,7.5,3.2,15.6-0.3,22.5c-5.9,9.9-17.4,13-27.4,13c-10,0-20.8-3.2-28.6-8.2
	c-17.7-11.4-25.8-31.5-25.8-52.9c0-17,5.2-34.6,14.6-48.8c23.3-35.1,62.1-49.7,103.4-49.8c30.4,0,62.1,8,89.4,21.6
	c55.1,27.3,235.8,133.7,397.9,133.7c52.1,0,102.4-11,145.8-39.4c52.8-34.4,86.8-85.9,93.2-140.4
	C972.2,428.6,972.3,428.8,972.3,428.8z M846.8,266.5c-13.3,0-26.3,2.5-38.3,7.8c-1-1.1-2.1-2.1-3.3-2.9c-5.5-3.8-12.7-4.9-19.1-2
	c-7.7,3.4-12.3,11.7-9.3,19.9c2.2,6,7.9,8.3,14,8.5c0.4-0.1,1.2-0.1,1.4,0.6c0.2,0.2,0.2,0.5,0.1,0.9c-3,6.3-11.6,6.7-17.5,4.1
	c-8-3.6-12.6-11.3-13.2-19.9c-1.4-18.4,12.9-31.4,29.1-35.9c44.6-4.4,87.7,13,115.9,35.4C888.3,272.4,867.3,266.5,846.8,266.5z
	 M657.4,526.5c0-3.6-3.1-6.6-6.9-6.6c-3.8,0-6.9,2.9-6.9,6.6c0,3.6,3.1,6.6,6.9,6.6C654.4,533,657.4,530.1,657.4,526.5z M246.8,433
	c51.6,1.5,113.7,38.4,184.3,70.3c35.5,16.3,67.8,33.6,100.1,45.7c32.5,10,64.3,12.7,89.5,6.3c49-12,65.2-43.7,66.7-45.9
	c-1.5,2-19.4,32.5-67.4,42.4c-24.7,5.3-55.4,1.8-86.9-8.6c-30.6-12.2-63.7-30.2-98.9-46.4C363.9,465.1,300,429.3,247,429.4
	c-53.8-4.5-77.9,25.5-76.4,24.9C169.3,454.7,194.3,426.7,246.8,433z M986.2,352.7c-6.9-46.6-31.1-90.4-57.8-117.8
	c-26.3-28.1-52.9-40.4-59-43.7c-59.9-26.4-93.5-15.3-92-13.9c0.1,5,32.7,2.1,86.2,26c11.6,5.6,38.7,19.4,64,47.4
	C953,278,975,319.7,980.9,363.4c13,73.9-25.8,133.7-40.3,152.4c6.1-7.1,16.8-20.3,26.7-40C983.1,445.9,993.9,399.3,986.2,352.7z
	 M687.5,509.5c0.1-0.1,0.1-0.2,0.1-0.1C687.6,509.3,687.6,509.3,687.5,509.5z M996.8,371.6c-2.9-49.6-31.1-113.4-71.2-176
	c-20-31.2-39.5-61.4-41.6-93.3c-4.4-31.4,14.9-59.6,38.6-64.4c23.9-7.3,42.7,10.1,43.2,23.6c1.1,12.6-5.7,18.2-6.3,19.1
	c0.6-0.9,7.8-6,7.3-19.2c0.4-14.1-19.2-33.8-45.1-26.9c-25.7,4-47.9,34.7-43.7,68.3c1.5,33.8,21.8,65.8,41.5,96.6
	c39.9,62.3,69,124.1,73.7,172.6c6.1,48.9-12.5,76.7-11,76.6C980.8,448.6,1001.1,421.7,996.8,371.6z M1355.2,526.5
	c0-3.6-3.1-6.6-7-6.6c-3.8,0-6.9,2.9-6.9,6.6c0,3.6,3.1,6.6,6.9,6.6C1352.1,533,1355.2,530.1,1355.2,526.5z M1411.8,539.6
	c0-5.2-4.4-9.4-9.9-9.4c-5.5,0-9.9,4.2-9.9,9.4c0,5.2,4.4,9.4,9.9,9.4C1407.4,549,1411.8,544.8,1411.8,539.6z M1465.7,543.3
	c-31.6,10.4-62.3,13.9-87,8.6c-48-9.9-65.9-40.4-67.4-42.4c1.5,2.2,17.7,33.9,66.7,45.9c25.2,6.4,57,3.7,89.5-6.3
	c32.3-12.1,64.7-29.4,100.1-45.7c70.6-31.9,132.7-68.8,184.3-70.3c52.5-6.3,77.5,21.7,76.2,21.3c1.5,0.7-22.6-29.3-76.4-24.9
	c-53-0.2-116.9,35.6-187.2,67.4C1529.4,513,1496.3,531.1,1465.7,543.3z M1311.2,509.4c0-0.1,0,0,0.1,0.1
	C1311.3,509.3,1311.2,509.3,1311.2,509.4z M1005.5,371.9c4.6-48.5,33.7-110.3,73.6-172.6c19.8-30.8,40-62.8,41.5-96.6
	c4.2-33.6-18-64.3-43.7-68.3c-25.9-6.9-45.5,12.9-45.1,26.9c-0.4,13.2,6.7,18.3,7.3,19.2c-0.6-1-7.3-6.5-6.3-19.1
	c0.5-13.5,19.3-30.9,43.2-23.6c23.8,4.9,43.1,33,38.6,64.4c-2.1,32-21.6,62.2-41.6,93.3c-40.1,62.5-68.3,126.4-71.2,176
	c-4.3,50.2,16,77.1,14.5,76.9C1018,448.6,999.4,420.8,1005.5,371.9z M1860.1,500.2c-24.3-36.6-64.8-51.8-107.2-51.8
	c-31.2,0-63.5,8.2-91.4,22c-55.3,27.5-235.6,133.3-395.9,133.3c-7.7,0-15.3-0.3-22.8-0.8c-11.8-1.8-26.7-5.5-40.7-12.9
	c-14.9-7.8-24.6-22.6-26-36c-1.9-13.6,3.9-22.3,6.1-25.6c12.4-13.7,26.8-12.5,26.6-17.1c2-1.1-15.1-13.1-37.3,8.9
	c-1.6,2.5-10,14.3-7.2,31c1.7,16.1,13.6,35.2,31.2,43c3.1,1.4,6.2,2.6,9.3,3.7c-29.3-5.8-57.2-16.4-82.6-32.9
	c-57.6-37.6-92.2-95.6-92.2-155.1c0-30.8,9.2-62,29.4-91.1c20.6-29.8,57.6-47.9,92.6-47.9c12.4,0,24.5,2.3,35.5,7.1
	c-1.8,3-2.8,6.5-3.2,10.1c-1,12.6,6.5,23.6,18.3,28.3c11.3,4.6,23.6,2,32.4-5.9c8.5-7.7,12.3-18.9,10.9-30.2
	c-1.4-12.3-8.4-23.1-19-29.4c9,2.2,18,5.3,26.9,9.6c58.9,25.6,101.1,113.2,57.2,178.4c-20.8,31-58,49.1-92.9,46.2
	c-35.3-2.3-64.7-28.3-74.1-59.1c-10.3-30.9,2-65.1,27.1-80c23.9-16.6,56.2-13.5,73.3,4.3c18,16.9,20.7,43.9,10.4,60.4
	c-10.2,17.2-29.4,23.1-42.8,20.9c-15-3.6-22.1-11.6-25.7-18.3c0.1-3.7,0.6-9,7.7-10.3c2.7,4.3,6.6,7.7,12.3,6.8
	c3.5-0.9,6.1-2.3,7.8-5.3c2.5-4.4,2.4-9.6-0.2-13.9c-5.8-9-18-9.3-25.3-2.7c-7.1,6.9-7.8,17.4-2.7,25.4c3.3,6.9,10.3,15.3,25.9,19.6
	c13.9,2.6,34-2.9,45.4-20.8c11.4-17.4,9.3-46.3-9.7-64.9c-18.1-19.7-53.4-23.8-79.5-6.2c-4.3,2.4-8.2,5.5-11.8,8.9
	c0.8-3.7,1.2-7.2,1.2-10.5c0-14.8-7.9-26.3-19.2-29.4c-2.3-0.6-4.7-1-7.2-1c-7.6,0-15.7,3-19.4,10.2c-0.9,1.8-1.3,3.7-1.3,5.5
	c0,4.6,2.6,9,7,11.3c1.2,0.6,2.6,0.9,3.9,0.9c0.8,0,1.7-0.1,2.5-0.4c1.6-0.1,3.2-0.8,4.4-2.1c2.4-2.6,2.3-6.7-0.3-9.2
	c-2.7-2.4-6.8-2.3-9.2,0.4c-0.9,0.9-1.4,2-1.6,3.2c-0.8-1.2-1.3-2.6-1.3-4.1c0-1.1,0.2-2.2,0.8-3.2c2.2-4.7,8.4-7.3,14.7-7.3
	c2,0,4,0.3,5.8,0.8c8.5,2.3,15.3,11.3,15.3,24.3c0,7.4-2.3,16-7.7,25.3c-10.8,18.1-14.4,41.7-7.3,63.4c9.8,33.6,41.6,62.4,80.3,65.2
	c38.2,3.4,78.2-16,100.7-49.6c30-44.9,22.6-98.3-2.7-138.2c10.3,11.1,21.6,24.6,33.4,41c6.7,7.1,26.7,40.4,63.9,78.2
	c18.7,18,44.1,38.2,76.8,41.1c31.9,2.6,67.2-14.6,81.4-45.4c14.1-29.6,8.6-69.4-17.6-87.5c-25.2-17.9-62-10.6-72.9,12
	c-5.4,9.9-5.9,20.2-3.6,28.8c0.9,4.2,2.9,8.3,5.5,11.8c0,0,0,0.1,0.1,0.1c0.6,0.8,1.2,1.5,1.8,2.3c0.2,0.3,0.5,0.5,0.7,0.7
	c0.3,0.3,0.6,0.7,1,1c0.1,0.1,0.3,0.3,0.5,0.4c0.2,0.2,0.4,0.4,0.6,0.5c7.8,6.9,18.3,9.1,28.4,6.8c9-2,16.6-7.9,20.1-16.5
	c3.7-8.8,2.3-18.9-4.3-26.4c-6.8-7.7-17.2-10.5-26.6-6.3c-5,2.3-8.9,6.3-10.3,11.6c-1.4,5.2-0.3,11,3.7,15.1
	c4.7,5,12.2,6.2,17.7,1.7c4-3.3,4.2-8.3,2.7-13c-0.2-0.3-0.4-0.9,0-1.2c0.1-0.2,0.3-0.3,0.6-0.3c5.6,0.6,8.2,7,7.9,12.3
	c-0.6,7.1-5.3,12.7-11.6,15.4c-15.3,6.7-32.7-2.1-37.7-15.5c-2-7.2-1.9-15.6,1.6-24.1c7.2-21.7,39.3-32.1,64.4-19.7
	c26.5,11.7,36.8,47.1,28.3,76c-8.1,29.8-36.7,51.6-66.6,53.9c-22.9,2.5-44.1-6-61.4-17.9c7.1,2.4,15.4,1.9,22.3-2.1
	c6.2-3.6,10.5-9.1,12.2-15.9c2.2-8.7-0.4-18.2-8.3-23.4c-5.1-3.4-11.3-4.2-16.9-1.8c-4.5,1.9-7.9,5.6-9.3,10.2
	c-2.1,6.4,1,14.4,8.2,15.9c3.8,0.8,8.1-0.9,9.3-4.8c0.5-1.6,0.3-3.6-1.3-4.4c-0.5-0.2-1.2-0.1-1.5,0.3c-0.4,0.4-0.8,0.9-1.4,1.3
	c-1,0.8-2.3,0.8-3.4,0.5c-1.6-0.5-2.7-1.9-3.2-3.5c-0.9-2.7,0-5.6,1.8-7.6c4.1-4.8,11.4-4.8,16.3-1.1c8.5,6.3,8.2,18.8,2,26.6
	c-8.2,10.3-22.5,11.2-33.1,5.2c-3.2-2.5-6.3-5-9.2-7.6c-39.4-36-61.2-74.1-73.4-88.5c-32.5-45.5-63.3-68.3-81-78.6
	c-5.6-3.6-11.4-6.7-17.3-9.2c-64.4-29.8-132.3-4.9-170,27.6c-10.6,9.1-19.3,18.7-26.7,28.5c-1.6,2-3.2,4.1-4.7,6.2
	c-20.7,29.8-30.3,62-30.3,93.7c0,6.1,0.4,12.2,1.1,18.3c0,0.3,0,0.5-0.1,0.5c0,0,0.1-0.2,0.1-0.4c6.3,54.6,40.4,106,93.1,140.5
	c43.5,28.4,93.7,39.4,145.8,39.4c162,0,342.8-106.4,397.8-133.7c27.3-13.6,59-21.6,89.4-21.6c41.4,0,80.1,14.6,103.4,49.8
	c9.4,14.2,14.6,31.8,14.6,48.8c0,21.4-8.1,41.5-25.8,52.9c-7.7,5-18.6,8.2-28.5,8.2c-10,0-21.5-3.1-27.4-13
	c-3.5-6.9-4.2-15-0.3-22.5c4.6-8.8,15.9-14.2,25.1-8.9c5.4,3,8.3,9.7,5.6,15.4c-1.2,2.4-3.4,4.4-6.2,4.7c-1.7,0.2-3.4-0.2-4.5-1.5
	c-0.7-0.9-1.2-2.1-0.9-3.4c0.2-0.7,0.5-1.3,0.7-1.8c0.3-0.5,0.1-1.1-0.3-1.5c-1.4-1.2-3.3-0.5-4.5,0.6c-3.1,2.6-2.9,7.2-0.6,10.4
	c4.2,5.9,12.8,5.5,17.8,1c3.7-3.2,5.6-7.8,5.5-12.6c-0.1-6-3.3-11.4-8.5-14.7c-7.9-5-17.7-3.6-24.8,1.9c-5.5,4.4-8.8,10.5-9.5,17.6
	c-0.5,5,0.4,10,2.5,14.4c5.8,12.4,19.2,18.3,30.2,18.3h0.1c10.9,0,22.4-3.4,31-9c19.2-12.5,27.8-34.2,27.8-56.7
	C1875.4,533.6,1870,515.1,1860.1,500.2z M1208.1,247.7c16.2,4.5,30.5,17.4,29.1,35.9c-0.6,8.6-5.1,16.3-13.2,19.9
	c-6,2.6-14.5,2.2-17.6-4.1c0-0.3,0-0.6,0.1-0.9c0.2-0.7,1-0.6,1.4-0.6c6-0.2,11.8-2.5,13.9-8.5c3-8.2-1.6-16.6-9.3-19.9
	c-6.4-2.9-13.6-1.9-19.1,2c-1.2,0.8-2.3,1.8-3.3,2.9c-11.9-5.4-25-7.9-38.3-7.8c-20.5,0-41.6,6-59.9,16.7
	C1120.3,260.7,1163.4,243.3,1208.1,247.7z M1017.9,363.4c5.9-43.7,27.9-85.3,53.4-112.6c25.3-27.9,52.4-41.8,64-47.4
	c53.5-24,86.1-21,86.2-26c1.4-1.4-32.1-12.5-92,13.9c-6.1,3.4-32.7,15.6-59,43.7c-26.7,27.3-50.9,71.1-57.8,117.8
	c-7.7,46.6,3.1,93.2,19,123c9.9,19.7,20.5,32.9,26.7,40C1043.7,497.1,1004.9,437.3,1017.9,363.4z M1063.4,521.7
	c0.2-0.1-1.8-2.1-5.2-6C1061.6,520.1,1063.7,522.2,1063.4,521.7z"/>
<path d="M1058.2,1490.3c3.4-3.9,5.4-5.9,5.2-6C1063.7,1483.8,1061.6,1485.9,1058.2,1490.3z M1079.2,1806.7
	c-39.9-62.3-69-124.1-73.6-172.6c-6.1-48.9,12.5-76.7,11-76.6c1.5-0.1-18.8,26.8-14.5,77c2.9,49.6,31.1,113.4,71.2,176
	c20,31.2,39.5,61.4,41.6,93.3c4.4,31.4-14.9,59.6-38.6,64.4c-23.9,7.3-42.7-10.1-43.2-23.6c-1-12.6,5.7-18.2,6.3-19.1
	c-0.6,0.9-7.8,6.1-7.3,19.2c-0.4,14,19.2,33.8,45.1,26.9c25.7-4,47.9-34.7,43.7-68.3C1119.1,1869.5,1098.9,1837.5,1079.2,1806.7z
	 M1311.3,1496.5c-0.1,0.1-0.1,0.2-0.1,0.1C1311.2,1496.7,1311.3,1496.7,1311.3,1496.5z M1135.3,1802.6c-11.6-5.6-38.7-19.4-64-47.4
	c-25.5-27.3-47.5-69-53.4-112.6c-13-73.9,25.8-133.7,40.3-152.4c-6.2,7-16.8,20.3-26.7,40c-15.8,29.8-26.7,76.4-19,123.1
	c6.9,46.6,31.1,90.4,57.8,117.7c26.3,28.1,52.9,40.4,59,43.8c59.9,26.4,93.4,15.3,92,13.9
	C1221.4,1823.7,1188.8,1826.6,1135.3,1802.6z M1752,1573c-51.6-1.5-113.7-38.4-184.3-70.3c-35.5-16.3-67.8-33.6-100.1-45.7
	c-32.5-10-64.3-12.7-89.5-6.4c-49,12-65.2,43.7-66.7,45.9c1.5-2.1,19.4-32.5,67.4-42.4c24.7-5.3,55.4-1.8,87,8.6
	c30.5,12.2,63.7,30.2,98.9,46.5c70.3,31.7,134.2,67.5,187.2,67.4c53.8,4.5,77.9-25.5,76.4-24.9
	C1829.5,1551.3,1804.5,1579.3,1752,1573z M1847.6,1397.9c-8.6-5.6-20-9-31-9h-0.1c-11,0-24.5,5.9-30.2,18.4c-2,4.4-3,9.3-2.5,14.2
	c0.7,7.1,4.1,13.3,9.5,17.6c7.1,5.5,16.9,7,24.8,1.9c5.2-3.3,8.3-8.6,8.5-14.7c0.1-4.9-1.9-9.4-5.5-12.6c-5-4.4-13.6-4.9-17.8,1
	c-2.3,3.2-2.5,7.8,0.6,10.5c1.2,1.1,3.2,1.7,4.5,0.6c0.3-0.3,0.6-1,0.3-1.5c-0.2-0.5-0.5-1.1-0.7-1.8c-0.4-1.3,0.2-2.4,0.9-3.3
	c1.1-1.3,2.8-1.7,4.5-1.5c2.8,0.3,5.1,2.3,6.2,4.7c2.7,5.7-0.2,12.4-5.6,15.4c-9.2,5.3-20.5-0.1-25.1-8.9
	c-3.9-7.5-3.2-15.6,0.3-22.5c5.9-9.9,17.4-13.1,27.4-13.1c10,0,20.8,3.2,28.5,8.2c17.7,11.4,25.7,31.5,25.8,52.9
	c0,17-5.2,34.6-14.6,48.8c-23.3,35.1-62.1,49.7-103.4,49.8c-30.4,0-62.1-8-89.4-21.6c-55.1-27.3-235.8-133.7-397.8-133.8
	c-52.1,0-102.4,11-145.8,39.4c-52.8,34.4-86.8,85.9-93.1,140.5c0-0.3,0-0.4-0.1-0.4c0,0,0.1,0.2,0.1,0.5c-0.7,6.1-1.1,12.2-1.1,18.3
	c0,31.7,9.5,63.8,30.3,93.6c1.5,2.2,3.1,4.2,4.7,6.2c7.3,9.8,16.1,19.4,26.7,28.5c37.7,32.5,105.5,57.4,170,27.6
	c5.9-2.5,11.7-5.6,17.3-9.2c17.6-10.3,48.4-33.1,81-78.6c12.2-14.4,34-52.5,73.4-88.5c2.9-2.6,6-5.1,9.2-7.6
	c10.6-5.9,25-5.1,33.1,5.2c6.2,7.8,6.6,20.2-2,26.6c-4.9,3.7-12.3,3.7-16.3-1.1c-1.7-2.1-2.7-4.9-1.8-7.7c0.5-1.6,1.5-3,3.2-3.5
	c1.1-0.3,2.4-0.3,3.4,0.5c0.5,0.5,1,1,1.4,1.4c0.3,0.5,1,0.5,1.5,0.3c1.6-0.7,1.8-2.8,1.3-4.4c-1.2-3.9-5.5-5.6-9.3-4.8
	c-7.2,1.5-10.2,9.5-8.2,15.9c1.4,4.6,4.8,8.3,9.3,10.2c5.6,2.3,11.8,1.6,16.9-1.8c7.8-5.2,10.5-14.7,8.3-23.4
	c-1.8-6.8-6.1-12.3-12.2-15.9c-6.9-4-15.1-4.5-22.3-2.1c17.4-11.8,38.5-20.4,61.5-17.9c29.9,2.3,58.5,24.1,66.6,53.9
	c8.5,28.9-1.8,64.2-28.3,76c-25,12.4-57.2,2-64.3-19.7c-3.5-8.5-3.5-16.9-1.6-24.1c5-13.5,22.4-22.3,37.7-15.6
	c6.4,2.8,11.1,8.3,11.6,15.4c0.3,5.3-2.3,11.7-7.9,12.3c-0.3,0-0.5-0.1-0.6-0.3c-0.5-0.3-0.2-0.9,0-1.2c1.5-4.7,1.3-9.7-2.7-13
	c-5.5-4.5-13.1-3.3-17.7,1.7c-3.9,4.1-5.1,9.9-3.7,15.1c1.4,5.2,5.3,9.2,10.3,11.6c9.3,4.1,19.8,1.4,26.6-6.3
	c6.6-7.4,7.9-17.5,4.3-26.4c-3.6-8.6-11.1-14.5-20.1-16.5c-10.2-2.3-20.6-0.1-28.4,6.8c-0.2,0.2-0.4,0.4-0.7,0.5
	c-0.1,0.1-0.3,0.2-0.4,0.4c-0.3,0.3-0.6,0.7-0.9,1c-0.3,0.2-0.5,0.5-0.8,0.8c-0.6,0.7-1.2,1.5-1.8,2.2c0,0.1-0.1,0.1-0.1,0.2
	c-2.6,3.5-4.6,7.5-5.4,11.7c-2.3,8.7-1.8,18.9,3.6,28.9c10.9,22.6,47.6,29.9,72.9,11.9c26.2-18,31.6-57.9,17.6-87.5
	c-14.2-30.8-49.5-48-81.4-45.3c-32.7,2.9-58.1,23.1-76.8,41.1c-37.2,37.8-57.3,71.1-63.9,78.2c-11.8,16.4-23.1,29.9-33.4,41
	c25.2-39.9,32.7-93.3,2.7-138.2c-22.5-33.5-62.6-52.9-100.7-49.5c-38.8,2.8-70.6,31.6-80.4,65.2c-7.1,21.8-3.5,45.3,7.3,63.4
	c5.5,9.2,7.8,17.9,7.8,25.3c0,13-6.8,22-15.3,24.3c-1.8,0.5-3.8,0.8-5.8,0.8c-6.3,0-12.5-2.6-14.7-7.3c-0.5-1-0.8-2.1-0.8-3.2
	c0-1.5,0.5-2.9,1.3-4.1c0.2,1.2,0.7,2.3,1.6,3.2c2.5,2.7,6.6,2.8,9.2,0.4c2.6-2.4,2.8-6.6,0.3-9.2c-1.2-1.3-2.8-2-4.4-2.1
	c-0.8-0.2-1.6-0.4-2.5-0.4c-1.3,0-2.6,0.3-3.9,0.9c-4.4,2.2-7,6.6-7,11.3c0,1.9,0.4,3.8,1.3,5.6c3.7,7.2,11.8,10.2,19.4,10.2
	c2.5,0,4.9-0.3,7.2-0.9c11.3-3.1,19.2-14.6,19.2-29.4c0-3.4-0.4-6.9-1.2-10.5c3.6,3.4,7.5,6.4,11.8,8.8
	c26.1,17.6,61.4,13.5,79.5-6.2c19-18.6,21.1-47.5,9.7-64.9c-11.4-17.9-31.5-23.5-45.4-20.8c-15.5,4.3-22.5,12.7-25.8,19.6
	c-5.2,8-4.5,18.5,2.6,25.4c7.3,6.6,19.5,6.4,25.3-2.7c2.7-4.3,2.7-9.5,0.2-13.9c-1.7-3.1-4.3-4.4-7.8-5.3c-5.6-1-9.6,2.5-12.3,6.8
	c-7-1.2-7.6-6.6-7.7-10.3c3.5-6.7,10.7-14.7,25.7-18.3c13.4-2.1,32.6,3.8,42.8,20.9c10.3,16.5,7.6,43.5-10.4,60.4
	c-17.1,17.9-49.4,20.9-73.3,4.3c-25.1-14.9-37.4-49.1-27.1-80c9.4-30.8,38.8-56.8,74.1-59.1c35-2.9,72.2,15.2,92.9,46.2
	c44,65.1,1.8,152.8-57.2,178.4c-8.9,4.3-17.9,7.4-26.9,9.6c10.6-6.3,17.6-17.1,19-29.4c1.4-11.4-2.4-22.5-10.9-30.2
	c-8.8-7.9-21.1-10.5-32.4-5.9c-11.8,4.7-19.3,15.8-18.3,28.3c0.3,3.7,1.4,7.1,3.2,10.1c-11.1,4.8-23.2,7.1-35.5,7.1
	c-35,0-72-18.2-92.6-47.9c-20.2-29.1-29.4-60.3-29.4-91.1c0-59.5,34.6-117.5,92.2-155.1c25.5-16.6,53.3-27.1,82.6-33
	c-3.1,1.1-6.2,2.3-9.3,3.7c-17.6,7.8-29.6,26.9-31.2,43c-2.8,16.7,5.6,28.6,7.2,31c22.2,22,39.3,10,37.3,8.9
	c0.2-4.6-14.3-3.4-26.6-17.1c-2.2-3.2-8-12-6.1-25.6c1.4-13.4,11.1-28.2,26-36c14-7.4,28.8-11.1,40.7-12.9
	c7.6-0.5,15.2-0.8,22.8-0.8c160.3,0,340.6,105.8,395.9,133.3c28,13.9,60.2,22,91.4,22c42.3,0,82.9-15.1,107.2-51.8
	c9.9-15,15.3-33.4,15.3-51.3C1875.4,1432.1,1866.9,1410.4,1847.6,1397.9z M1152,1739.6c13.3,0,26.3-2.5,38.3-7.8
	c1,1.1,2.1,2,3.3,2.9c5.5,3.8,12.7,4.9,19.1,2c7.7-3.4,12.3-11.7,9.3-19.9c-2.1-6-7.9-8.3-13.9-8.5c-0.5,0.1-1.3,0.1-1.4-0.6
	c-0.2-0.2-0.2-0.5-0.1-0.9c3-6.3,11.6-6.7,17.6-4.1c8,3.6,12.6,11.3,13.2,19.9c1.4,18.4-12.9,31.3-29.1,35.9
	c-44.7,4.4-87.8-13-115.9-35.4C1110.5,1733.6,1131.5,1739.6,1152,1739.6z M1341.4,1479.6c0,3.6,3.1,6.6,6.9,6.6c3.8,0,7-2.9,7-6.6
	c0-3.6-3.1-6.6-7-6.6C1344.5,1473,1341.4,1475.9,1341.4,1479.6z M1392,1466.4c0,5.2,4.4,9.4,9.9,9.4c5.5,0,9.9-4.2,9.9-9.4
	c0-5.2-4.4-9.4-9.9-9.4C1396.5,1457.1,1392,1461.3,1392,1466.4z M587,1466.4c0,5.2,4.4,9.4,9.9,9.4c5.4,0,9.9-4.2,9.9-9.4
	c0-5.2-4.4-9.4-9.9-9.4C591.4,1457.1,587,1461.3,587,1466.4z M982.3,1557.5c-1.4-0.1,17.1,27.7,11,76.6
	c-4.6,48.5-33.8,110.3-73.7,172.6c-19.8,30.8-40,62.8-41.5,96.6c-4.2,33.6,18,64.3,43.7,68.3c25.9,6.9,45.5-12.9,45.1-26.9
	c0.4-13.2-6.7-18.3-7.3-19.2c0.6,1,7.3,6.5,6.3,19.1c-0.5,13.5-19.3,30.9-43.2,23.6c-23.7-4.8-43.1-33-38.6-64.4
	c2.1-32,21.6-62.2,41.6-93.3c40.1-62.5,68.3-126.4,71.2-176C1001.1,1584.3,980.8,1557.4,982.3,1557.5z M687.6,1496.6
	c0,0.1,0,0-0.1-0.1C687.6,1496.7,687.6,1496.7,687.6,1496.6z M533.1,1462.8c31.6-10.4,62.3-13.9,87-8.6c48,9.9,65.9,40.3,67.4,42.4
	c-1.5-2.2-17.7-33.9-66.7-45.9c-25.2-6.3-57-3.7-89.5,6.4c-32.3,12.1-64.7,29.4-100.1,45.7c-70.6,31.9-132.7,68.8-184.3,70.3
	c-52.5,6.3-77.5-21.8-76.2-21.3c-1.5-0.7,22.6,29.3,76.4,24.9c53,0.2,116.9-35.6,187.2-67.4C469.4,1493,502.6,1474.9,533.1,1462.8z
	 M643.6,1479.6c0,3.6,3.1,6.6,6.9,6.6c3.8,0,6.9-2.9,6.9-6.6c0-3.6-3.1-6.6-6.9-6.6C646.7,1473,643.6,1475.9,643.6,1479.6z
	 M928.4,1771c26.7-27.3,50.9-71.1,57.8-117.7c7.7-46.6-3.1-93.2-19-123.1c-9.9-19.7-20.5-33-26.7-40c14.5,18.6,53.3,78.5,40.3,152.4
	c-5.9,43.7-27.9,85.3-53.4,112.6c-25.3,27.9-52.4,41.8-63.9,47.4c-53.5,24-86.1,21-86.2,26c-1.4,1.4,32.1,12.5,92-13.9
	C875.5,1811.4,902.1,1799.2,928.4,1771z M935.4,1484.3c-0.2,0.1,1.8,2.1,5.2,6C937.2,1485.9,935.2,1483.8,935.4,1484.3z
	 M911.6,1724.5c10.5-9.1,19.3-18.7,26.7-28.5c1.7-2,3.2-4.1,4.7-6.2c20.7-29.8,30.3-62,30.3-93.6c0-6.1-0.4-12.2-1.1-18.3
	c0-0.2,0-0.3,0-0.4c0,0.1,0,0.2,0,0.3c-6.3-54.6-40.4-106-93.2-140.5c-43.4-28.4-93.7-39.4-145.8-39.4
	c-162.1,0-342.8,106.4-397.9,133.8c-27.3,13.6-59,21.6-89.4,21.6c-41.3,0-80.1-14.6-103.4-49.8c-9.4-14.2-14.6-31.8-14.6-48.8
	c0-21.4,8.1-41.5,25.8-52.9c7.8-5,18.6-8.3,28.6-8.2c10,0,21.5,3.1,27.4,13c3.5,6.8,4.2,15,0.3,22.5c-4.6,8.8-15.8,14.2-25.1,8.9
	c-5.4-3-8.3-9.7-5.6-15.4c1.2-2.4,3.4-4.4,6.3-4.7c1.7-0.2,3.4,0.2,4.5,1.5c0.7,0.9,1.2,2.1,0.9,3.3c-0.2,0.7-0.5,1.3-0.7,1.8
	c-0.3,0.5-0.1,1.1,0.3,1.5c1.3,1.2,3.3,0.5,4.5-0.6c3.1-2.6,2.9-7.3,0.6-10.5c-4.2-5.9-12.8-5.5-17.8-1c-3.7,3.2-5.6,7.8-5.6,12.6
	c0.1,6.1,3.3,11.4,8.5,14.7c7.9,5,17.7,3.6,24.8-1.9c5.5-4.4,8.8-10.5,9.5-17.6c0.5-5-0.4-9.9-2.5-14.3
	c-5.8-12.5-19.2-18.4-30.2-18.3h-0.1c-10.9,0-22.4,3.4-31,9c-19.3,12.5-27.8,34.2-27.8,56.7c0,17.9,5.4,36.3,15.3,51.3
	c24.3,36.6,64.9,51.8,107.2,51.8c31.2,0,63.5-8.2,91.4-22c55.3-27.5,235.6-133.3,395.9-133.3c7.7,0,15.3,0.3,22.8,0.8
	c11.9,1.8,26.7,5.5,40.7,12.9c14.9,7.8,24.6,22.6,26,36c1.9,13.6-3.9,22.3-6.1,25.6c-12.4,13.7-26.8,12.5-26.6,17.1
	c-2,1.1,15.1,13.1,37.3-8.9c1.6-2.5,10-14.3,7.2-31c-1.7-16.1-13.6-35.2-31.3-43c-3.1-1.4-6.2-2.6-9.3-3.7
	c29.3,5.8,57.2,16.4,82.6,33c57.6,37.6,92.2,95.6,92.2,155.1c0,30.8-9.3,62-29.5,91.1c-20.6,29.8-57.6,48-92.6,47.9
	c-12.4,0-24.5-2.3-35.5-7.1c1.8-3,2.8-6.4,3.2-10.1c1-12.6-6.5-23.6-18.3-28.3c-11.3-4.6-23.6-2-32.4,5.9
	c-8.5,7.7-12.3,18.9-10.9,30.2c1.5,12.3,8.5,23.1,19,29.4c-9-2.2-18-5.3-26.9-9.6c-59-25.6-101.2-113.2-57.2-178.4
	c20.8-31,58-49.1,92.9-46.2c35.3,2.2,64.6,28.2,74.1,59.1c10.3,30.9-2,65.1-27.1,80c-23.9,16.6-56.2,13.5-73.3-4.3
	c-18-16.9-20.7-43.9-10.4-60.4c10.2-17.1,29.4-23.1,42.8-20.9c15,3.6,22.1,11.6,25.7,18.3c-0.1,3.7-0.6,9-7.7,10.3
	c-2.7-4.3-6.6-7.7-12.3-6.8c-3.5,0.9-6.1,2.3-7.8,5.3c-2.5,4.4-2.5,9.6,0.2,13.9c5.8,9.1,17.9,9.3,25.2,2.7
	c7.1-6.9,7.8-17.4,2.6-25.4c-3.3-6.9-10.3-15.3-25.8-19.6c-13.9-2.6-34,2.9-45.4,20.8c-11.4,17.4-9.3,46.3,9.7,64.9
	c18.1,19.7,53.4,23.8,79.5,6.2c4.3-2.4,8.2-5.4,11.8-8.9c-0.9,3.7-1.2,7.2-1.3,10.5c0,14.8,7.9,26.3,19.2,29.4
	c2.3,0.6,4.8,0.9,7.2,0.9c7.6,0,15.7-3,19.4-10.2c0.9-1.8,1.3-3.7,1.3-5.6c0-4.6-2.5-9-7-11.3c-1.3-0.6-2.6-0.9-3.9-0.9
	c-0.8,0-1.7,0.1-2.5,0.4c-1.6,0.1-3.2,0.8-4.4,2.1c-2.4,2.6-2.3,6.7,0.4,9.2c2.6,2.4,6.7,2.3,9.2-0.4c0.9-0.9,1.4-2,1.6-3.2
	c0.8,1.2,1.3,2.6,1.3,4.1c0,1.1-0.2,2.2-0.8,3.2c-2.2,4.7-8.4,7.3-14.7,7.3c-2,0-4-0.3-5.8-0.8c-8.5-2.3-15.3-11.3-15.3-24.3
	c0-7.4,2.3-16.1,7.8-25.4c10.8-18.1,14.3-41.6,7.2-63.3c-9.8-33.6-41.6-62.4-80.4-65.2c-38.1-3.4-78.1,16-100.7,49.5
	c-30,44.9-22.6,98.3,2.7,138.2c-10.3-11.1-21.6-24.6-33.4-41c-6.7-7.1-26.7-40.4-63.9-78.2c-18.7-18-44.1-38.2-76.8-41.1
	c-31.9-2.6-67.2,14.5-81.4,45.3c-14,29.6-8.6,69.5,17.6,87.5c25.2,17.9,61.9,10.6,72.8-11.9c5.4-9.9,5.9-20.2,3.6-28.9
	c-0.9-4.2-2.9-8.3-5.5-11.8c0,0,0-0.1-0.1-0.1c-0.6-0.8-1.2-1.5-1.8-2.3c-0.2-0.3-0.5-0.5-0.7-0.7c-0.3-0.3-0.7-0.7-1-1
	c-0.1-0.1-0.3-0.2-0.5-0.4c-0.2-0.2-0.4-0.4-0.6-0.5c-7.8-6.9-18.3-9.1-28.5-6.8c-9.1,2.1-16.5,7.9-20.1,16.5
	c-3.7,8.8-2.3,18.9,4.3,26.4c6.8,7.8,17.3,10.5,26.6,6.3c5-2.3,8.8-6.3,10.3-11.6c1.5-5.2,0.3-11-3.6-15.1c-4.7-5-12.3-6.2-17.7-1.7
	c-4.1,3.3-4.2,8.3-2.7,13c0.2,0.3,0.4,0.9,0,1.2c-0.1,0.2-0.4,0.3-0.6,0.3c-5.6-0.6-8.2-7-7.9-12.3c0.6-7.1,5.2-12.6,11.6-15.4
	c15.3-6.8,32.7,2.1,37.7,15.6c2,7.2,1.9,15.5-1.6,24.1c-7.2,21.7-39.4,32.1-64.4,19.7c-26.5-11.7-36.8-47.1-28.3-76
	c8.1-29.8,36.7-51.6,66.6-53.9c22.9-2.5,44.1,6,61.5,17.9c-7.2-2.4-15.4-1.9-22.3,2.1c-6.2,3.6-10.5,9.1-12.3,15.9
	c-2.2,8.7,0.5,18.2,8.3,23.4c5.1,3.4,11.3,4.1,16.9,1.8c4.4-1.9,7.9-5.5,9.3-10.2c2-6.4-1-14.4-8.2-15.9c-3.9-0.8-8.1,0.9-9.3,4.8
	c-0.5,1.6-0.3,3.7,1.3,4.4c0.5,0.2,1.2,0.1,1.5-0.3c0.4-0.4,0.8-0.9,1.3-1.4c1-0.8,2.3-0.8,3.4-0.5c1.6,0.5,2.7,1.9,3.2,3.5
	c0.9,2.7,0,5.6-1.8,7.7c-4.1,4.7-11.4,4.8-16.3,1.1c-8.6-6.3-8.2-18.8-2-26.6c8.2-10.3,22.5-11.2,33.1-5.2c3.2,2.5,6.3,5,9.2,7.6
	c39.3,36,61.2,74.1,73.4,88.5c32.5,45.5,63.3,68.4,81,78.6c5.6,3.6,11.3,6.7,17.3,9.2C806.1,1781.9,874,1757,911.6,1724.5z
	 M761.7,1722.5c0.6-8.6,5.1-16.3,13.2-19.9c6-2.6,14.5-2.2,17.5,4.1c0.1,0.4,0,0.6-0.1,0.9c-0.2,0.7-1,0.7-1.4,0.6
	c-6,0.2-11.8,2.5-14,8.5c-3,8.2,1.6,16.5,9.3,19.9c6.4,2.9,13.6,1.9,19.1-2c1.2-0.9,2.3-1.8,3.3-2.9c11.9,5.4,25,7.9,38.3,7.9
	c20.5,0,41.5-6,59.9-16.6c-28.1,22.4-71.2,39.8-115.9,35.4C774.6,1753.8,760.3,1740.9,761.7,1722.5z"/>
</svg>
