<svg xmlns="http://www.w3.org/2000/svg" width="374" height="143" viewBox="0 0 374 143">
  <g id="ImprovedCommunication" transform="translate(0 -407)">
    <text id="Intentions" transform="translate(6 531)" fill="#303030" font-size="18" font-family="Lora-Bold, Lora" font-weight="700"><tspan x="0" y="0">Intentions</tspan></text>
    <text id="Outcomes" transform="translate(370 531)" fill="#303030" font-size="18" font-family="Lora-Bold, Lora" font-weight="700"><tspan x="-86.81" y="0">Outcomes</tspan></text>
    <text id="Improved_Thought_and_Communication" data-name="Improved Thought
and Communication" transform="translate(116 422)" fill="#303030" font-size="16" font-family="Lora-Regular, Lora"><tspan x="0" y="0">Improved Thought</tspan><tspan x="0" y="19">and Communication</tspan></text>
    <path id="Path_4" data-name="Path 4" d="M109.3,504c0-38.832,228-39.777,228,0" transform="translate(-32.303 -20)" fill="none" stroke="#707070" stroke-width="2"/>
    <path id="Polygon_1" data-name="Polygon 1" d="M6.634,1.5a1,1,0,0,1,1.732,0l5.769,10a1,1,0,0,1-.866,1.5H1.731a1,1,0,0,1-.866-1.5Z" transform="translate(313 497) rotate(180)" fill="#004d4d"/>
    <line id="Line_7" data-name="Line 7" x2="102" transform="translate(0 501.5)" fill="none" stroke="#707070" stroke-width="1"/>
    <line id="Line_8" data-name="Line 8" y1="48" transform="translate(101.5 501.5)" fill="none" stroke="#707070" stroke-width="1"/>
    <line id="Line_9" data-name="Line 9" y1="48" transform="translate(276.5 501.5)" fill="none" stroke="#707070" stroke-width="1"/>
    <path id="Path_5" data-name="Path 5" d="M98,0H0" transform="translate(276 501.5)" fill="none" stroke="#707070" stroke-width="1"/>
    <path id="Path_6" data-name="Path 6" d="M176,0H0" transform="translate(101 549.5)" fill="none" stroke="#707070" stroke-width="1"/>
  </g>
</svg>
