<svg xmlns="http://www.w3.org/2000/svg" width="120" height="41.998" viewBox="0 0 120 41.998">
  <path id="linedivider" d="M131.942,574.266h0c-.3-9.042-7.369-16.137-16.691-19.082a27.034,27.034,0,0,0-8.2-1.284c-15.437.036-29.6,13.119-47.176,25.916l-.006-.006a62.6,62.6,0,0,1-13.5,8c-4.734,1.923-10.442,3.195-15.188.511,4.661,2.848,10.521,1.765,15.371-.03a63.374,63.374,0,0,0,13.916-7.649l-.006-.006c17.616-12.876,31.757-25.751,46.574-25.721a25.967,25.967,0,0,1,7.886,1.235c9.042,2.866,15.717,9.663,15.973,18.145l-.006.012a18.483,18.483,0,0,1-12.206,18.808C126.7,590.86,132.283,582.7,131.942,574.266ZM97.35,561.5a63.55,63.55,0,0,0-13.922,7.649l.006.006h0c-17.616,12.876-31.757,25.751-46.574,25.721a25.967,25.967,0,0,1-7.886-1.235c-9.042-2.866-15.717-9.663-15.973-18.151l.006-.006a18.471,18.471,0,0,1,12.206-18.808c-8,2.257-13.582,10.423-13.241,18.857h.006c.292,9.042,7.363,16.137,16.685,19.082a27.025,27.025,0,0,0,8.19,1.284c15.437-.03,29.6-13.119,47.176-25.916l.006.006a62.7,62.7,0,0,1,13.5-8c4.734-1.923,10.442-3.195,15.188-.511C108.065,558.616,102.205,559.705,97.35,561.5Z" transform="translate(-11.957 -553.9)" fill="#707070"/>
</svg>
