<svg xmlns="http://www.w3.org/2000/svg" width="100" height="56.077" viewBox="0 0 100 56.077">
  <path id="Vintage_Ornaments_07_SVG" data-name="Vintage Ornaments 07 SVG" d="M100.144,384.361a15.593,15.593,0,0,0,9.9-6.1h0c3.912-5.5,1.761-14.2-4.443-16.223,6.027,2.5,7.059,10.96,3.33,15.353h-.005A14.1,14.1,0,0,1,97.3,383.171c-4.205.01-8.8-1.533-13.364-3.831.111-.091.223-.192.329-.278,4.266-3.1,8.729-5.111,12.706-5.506,7.681-.84,11.876,2.844,12.251,3.117-.369-.309-4.326-4.316-12.317-3.82-4.144.228-8.865,2.156-13.334,5.232-.273.213-.536.435-.81.653a80.832,80.832,0,0,1-7.236-4.392c-2.945-1.979-5.946-3.947-8.992-5.809,4.1-3.608,8.005-6.523,11.932-7.914,7.616-3.5,12.767-.5,12.549-.5.268.03-4.822-3.4-12.807-.167-4.215,1.3-8.415,4.246-12.762,7.914-10.1-6.082-20.62-10.859-30.786-10.874a28.129,28.129,0,0,0-15.348,4.4c-4.468,2.849-7,7.322-7.008,11.76-.015,5.45,3.891,10.647,12.145,12.544a15.6,15.6,0,0,0-9.893,6.1l.005.005c-3.8,5.354-1.893,13.668,3.927,16.041-5.612-2.824-6.452-10.9-2.819-15.171l.005.005A14.081,14.081,0,0,1,27.3,386.9c4.165-.01,8.724,1.508,13.248,3.775-.1.081-.192.167-.288.243-4.266,3.1-8.729,5.111-12.706,5.506-7.676.84-11.876-2.839-12.251-3.112.369.309,4.326,4.316,12.317,3.82,4.149-.233,8.865-2.156,13.334-5.232.258-.2.511-.415.764-.617a80.283,80.283,0,0,1,7.352,4.453c2.91,1.958,5.875,3.9,8.881,5.743-4.084,3.593-7.98,6.5-11.9,7.884-7.616,3.5-12.767.5-12.549.5-.268-.03,4.822,3.4,12.807.167,4.205-1.3,8.395-4.23,12.731-7.884,10.141,6.108,20.7,10.92,30.9,10.935h.025a28.154,28.154,0,0,0,15.327-4.4c4.463-2.854,7-7.322,7.008-11.765C112.309,391.455,108.4,386.258,100.144,384.361Zm-66.6,2.029c7.272-.5,14.654-3.36,16.147-9.407a8.744,8.744,0,0,0,.233-1.958,7.469,7.469,0,0,0-3.957-6.462,14.733,14.733,0,0,0-7.358-1.958c-.071,0-.142,0-.213.005v.005a10.063,10.063,0,0,0-6.432,2.738c-1.741,1.665-1.857,4.853.177,6.168a3.7,3.7,0,0,1,.324-5.662,9.04,9.04,0,0,1,5.956-1.827h.187a13.367,13.367,0,0,1,6.619,1.756A6.018,6.018,0,0,1,48.5,375.03a7.151,7.151,0,0,1-.2,1.634c-1.164,5.45-9.3,8.415-16.972,8.385-.779,0-1.553-.03-2.307-.086-10.91-.891-15.277-6.31-15.3-11.8,0-3.886,2.247-7.945,6.346-10.561a26.688,26.688,0,0,1,14.589-4.18c9.579-.015,19.755,4.524,29.648,10.419-3.628,3.142-7.363,6.735-11.31,10.277-4,3.643-7.707,7.444-11.274,10.551A42.692,42.692,0,0,0,33.547,386.39Zm16.319,8.162c-2.247-1.513-4.585-2.97-6.953-4.256,3.633-3.061,7.155-6.588,11.057-10.136,4.079-3.664,7.853-7.388,11.461-10.642,3.142,1.908,6.254,3.942,9.3,6,2.211,1.488,4.509,2.92,6.841,4.19-3.618,3.056-7.13,6.568-11.016,10.105-4.094,3.674-7.874,7.413-11.492,10.672C55.954,398.595,52.877,396.586,49.866,394.552Zm54.66,12.914a26.688,26.688,0,0,1-14.589,4.18c-9.614.01-19.831-4.559-29.759-10.485,3.638-3.147,7.383-6.755,11.345-10.308,3.987-3.628,7.681-7.418,11.234-10.52a42.439,42.439,0,0,0,8.3,3.34c-7.277.5-14.659,3.36-16.152,9.407a8.387,8.387,0,0,0-.233,1.953,7.453,7.453,0,0,0,3.957,6.462,14.8,14.8,0,0,0,7.358,1.958h.207a10.077,10.077,0,0,0,6.437-2.738c1.741-1.66,1.857-4.848-.177-6.163a3.7,3.7,0,0,1-.324,5.662,9.063,9.063,0,0,1-5.951,1.827v-.005h-.187a13.347,13.347,0,0,1-6.624-1.756,6.04,6.04,0,0,1-3.269-5.242,7.109,7.109,0,0,1,.2-1.629c1.164-5.455,9.3-8.42,16.972-8.385.779,0,1.553.03,2.313.086,10.915.886,15.282,6.31,15.3,11.8C110.872,400.791,108.625,404.844,104.527,407.465Zm-66.1-39.429Z" transform="translate(-12.299 -357)" fill="#303030"/>
</svg>
