<svg xmlns="http://www.w3.org/2000/svg" width="450" height="130.806" viewBox="0 0 450 130.806">
  <path id="sectiondivider" d="M487.251,688.077c-.911-29.173-23.123-53.161-54.1-61.78a85.1,85.1,0,0,0-22.983-3.083c-22.1.023-44.215,7.965-64.746,19.386a41.835,41.835,0,0,0-26.277-8.829c-15.789.023-32.093,7.521-44.5,18.358-.981-.607-1.939-1.214-2.92-1.8,9.74-8.549,19.013-15.486,28.332-18.732,17.845-8.1,29.827-.981,29.313-1,.607.07-11.281-7.848-29.8-.234-9.88,3.083-19.69,10.067-29.9,18.732-23.591-14.2-48.092-25.342-71.73-25.366a65.272,65.272,0,0,0-35.573,10.207c-8.665,5.536-14.154,13.687-15.7,22.213-7.1-18.335-25.693-31.6-43.164-32.747a55.646,55.646,0,0,0-23.871,3.13l-.023-.023c-37.6,13.384-42.346,46.527-42.323,60.028,0,.934.023,1.8.07,2.546.911,29.173,23.124,53.161,54.1,61.78a85.108,85.108,0,0,0,22.983,3.083c22.1-.047,44.215-7.964,64.746-19.363a41.992,41.992,0,0,0,26.3,8.829c15.743-.023,32.023-7.5,44.4-18.289.981.607,1.962,1.214,2.92,1.8-9.693,8.525-18.943,15.416-28.262,18.662-17.845,8.1-29.85.981-29.337,1-.607-.07,11.281,7.848,29.8.234,9.857-3.083,19.643-10.02,29.827-18.663,23.661,14.271,48.279,25.506,71.963,25.529a65.27,65.27,0,0,0,35.573-10.207c8.6-5.489,14.084-13.594,15.649-22.049,7.194,18.125,25.669,31.229,43.024,32.35a56.057,56.057,0,0,0,23.871-3.106l.023.023c37.6-13.407,42.346-46.551,42.323-60.028A23.294,23.294,0,0,0,487.251,688.077Zm-121.2-50.5c6.517,3.76,10.044,11.492,10.044,19.316a23.1,23.1,0,0,1-4.625,14.2c-7.778,9.857-17.121,13.641-27.445,13.664-10.044.023-20.975-3.69-31.789-9.179.4-.35.817-.7,1.238-1.028,10-7.217,20.461-11.889,29.78-12.776,17.985-1.892,27.725,6.8,28.566,7.427-.864-.724-10.137-9.973-28.706-8.735-9.623.584-20.578,5.069-30.948,12.262-.7.561-1.425,1.144-2.125,1.728-1.215-.654-2.429-1.308-3.644-2.009,17-13.734,36.554-27.118,57.085-35.993A12.2,12.2,0,0,1,366.051,637.579Zm-46.9-1.308a39.5,39.5,0,0,1,23.918,7.661,292.383,292.383,0,0,0-38.96,27.141c-3.737-2.2-7.451-4.555-11.048-6.984-5.325-3.574-10.721-7.124-16.163-10.557C288.786,643.278,304.388,636.247,319.15,636.271Zm-69.487,85.7c-5.559-3.48-11.048-7.1-16.467-10.744-3.48-2.336-7.031-4.6-10.651-6.75,23.918-19.714,42.37-39.66,51.012-47.952.444-.42.911-.841,1.378-1.262,5.629,3.527,11.211,7.218,16.7,10.908,3.387,2.289,6.867,4.508,10.394,6.587-23.871,19.69-42.3,39.613-50.942,47.882C250.644,721.08,250.153,721.524,249.663,721.968Zm23.077-68.086-.911.841c-8.736,8.478-27.491,28.659-51.6,48.4-1.215-.7-2.429-1.354-3.644-2.009,8.572-7.217,16.934-15.626,26.16-24.034,9.6-8.619,18.5-17.378,27.024-25.016C270.777,652.667,271.758,653.252,272.739,653.882ZM158.78,739.79c-6.517-3.761-10.044-11.515-10.044-19.317a23,23,0,0,1,4.625-14.2c7.778-9.88,17.121-13.64,27.445-13.664,9.95-.023,20.788,3.644,31.509,9.063-.374.3-.747.631-1.121.958-10,7.217-20.461,11.889-29.78,12.776-17.962,1.892-27.7-6.773-28.566-7.427.864.724,10.137,9.973,28.706,8.759,9.623-.584,20.578-5.092,30.948-12.262.677-.537,1.355-1.1,2.032-1.635,1.215.654,2.429,1.308,3.644,1.985-17.144,13.827-36.834,27.281-57.529,36.157l.093-.233A19.249,19.249,0,0,1,158.78,739.79Zm-10.02-78.784c0-9.226,5.325-18.8,15-24.969A62.634,62.634,0,0,1,198,626.227c22.586-.023,46.5,10.7,69.721,24.572-8.549,7.427-17.378,15.953-26.744,24.338-9.436,8.6-18.125,17.495-26.58,24.805a94.281,94.281,0,0,0-21.792-8.362c17.728-.584,36.507-7.217,40.034-21.746a20.537,20.537,0,0,0,.537-4.461c.023-6.727-3.924-11.655-9.016-14.715a33.912,33.912,0,0,0-16.934-4.508h-.49c-5.419.537-11.025,2.079-14.855,6.12-4.041,3.784-4.415,11.095.28,14.225-4.368-3.6-3.293-10.207.607-13.36,3.784-3.41,9.039-4.391,14.014-4.508l-.023-1.495.023,1.495h.42a31.547,31.547,0,0,1,15.649,4.158c4.625,2.826,7.8,6.867,7.825,12.566a16.886,16.886,0,0,1-.467,3.9c-2.85,13.057-22.026,19.924-39.987,19.877-1.822,0-3.644-.07-5.419-.21-22.283-1.8-33.074-11.772-35.5-22.937-.047-.4-.14-.771-.187-1.145A23.358,23.358,0,0,1,148.76,661.006ZM92.166,748.431c-30.154-8.408-51.409-31.579-52.273-59.467-.047-.724-.07-1.541-.07-2.429.023-7.288,1.4-20.321,8.852-32.677a62.842,62.842,0,0,1,25.856-22.586c1.8-.818,3.667-1.588,5.652-2.312a53.059,53.059,0,0,1,23.053-2.779c23.871,1.8,49.4,27.561,41.809,55.824-3.48,13.453-14.458,24.291-27.118,27.445-12.636,3.6-26.207-2.126-33.12-11.842-7.521-9.623-7.1-23.147-.07-31.392,6.423-8.736,18.242-11.375,26.37-7.171,8.385,3.854,12.449,13.127,10.768,20.157a16.255,16.255,0,0,1-12.753,12.356c-9.646.747-12.87-5.536-13.524-6.68.631,1.168,3.6,7.638,13.594,7.194a16.935,16.935,0,0,0,13.687-12.613c1.985-7.474-2.079-17.518-11.048-21.886-8.712-4.788-21.769-2.125-28.869,7.241-7.825,8.782-8.5,23.941-.444,34.428,7.4,10.721,22.236,17.144,36.2,13.29,13.851-3.387,25.74-15.042,29.523-29.663a43.468,43.468,0,0,0,1.378-9.133c4.414,7.708,13.267,13.991,26.931,16.583-9.343.958-18.055,5.325-25.156,14.388a25.467,25.467,0,0,0-5.162,15.743c0,8.525,3.807,17.121,11.281,21.489.093.07.234.094.327.164-14.2,5.792-28.846,9.343-43.374,9.319A82.747,82.747,0,0,1,92.166,748.431Zm113.375-7.567a39.5,39.5,0,0,1-23.918-7.661,290.98,290.98,0,0,0,38.866-27.071c3.831,2.242,7.638,4.648,11.328,7.124,5.232,3.527,10.534,7.03,15.906,10.417C235.812,733.88,220.233,740.887,205.541,740.864Zm46.317-17.518c.327-.3.677-.607.981-.911,8.712-8.455,27.421-28.613,51.5-48.326q1.822,1.051,3.644,2.032c-8.549,7.194-16.864,15.579-26.09,23.941-9.646,8.642-18.546,17.448-27.094,25.085Zm124.236-6.984c0,9.226-5.325,18.8-15,24.969a62.636,62.636,0,0,1-34.241,9.81c-22.68.023-46.691-10.791-69.978-24.735,8.572-7.428,17.448-16,26.814-24.408,9.39-8.549,18.078-17.448,26.487-24.712a94.736,94.736,0,0,0,22.072,8.5c-17.751.584-36.531,7.217-40.057,21.745a19.046,19.046,0,0,0-.537,4.461c-.023,6.727,3.924,11.655,9.016,14.715a33.913,33.913,0,0,0,16.934,4.508h.467v-1.051l.023,1.051c5.419-.537,11.025-2.079,14.855-6.12,4.041-3.76,4.415-11.071-.257-14.224,4.368,3.6,3.293,10.23-.607,13.36-3.784,3.41-9.039,4.391-14.014,4.508h-.444a31.484,31.484,0,0,1-15.649-4.157c-4.625-2.826-7.8-6.89-7.825-12.566a16.881,16.881,0,0,1,.467-3.9c2.85-13.057,22.026-19.947,39.987-19.877,1.822,0,3.644.07,5.419.21,21.652,1.728,32.443,11.211,35.269,22a38.838,38.838,0,0,0,.7,4.064C376.048,715.125,376.095,715.732,376.095,716.362Zm99.781,7.1a63.239,63.239,0,0,1-24.455,21.792c-.21.093-.4.21-.607.3-.117.07-.257.117-.4.187-1.939.887-3.971,1.728-6.143,2.523a53.252,53.252,0,0,1-22.843,2.686c-23.848-1.8-49.4-27.562-41.809-55.824,3.48-13.454,14.458-24.291,27.118-27.445,12.636-3.6,26.207,2.126,33.12,11.842,7.521,9.623,7.1,23.147.07,31.392-6.423,8.736-18.242,11.375-26.37,7.171-8.385-3.854-12.426-13.127-10.768-20.157a16.289,16.289,0,0,1,12.753-12.356c9.693-.747,12.893,5.582,13.547,6.7-.607-1.121-3.574-7.638-13.617-7.217a16.97,16.97,0,0,0-13.687,12.613c-1.985,7.474,2.079,17.518,11.048,21.886,8.712,4.765,21.769,2.125,28.869-7.241,7.825-8.759,8.5-23.941.42-34.428-7.4-10.721-22.236-17.144-36.2-13.29-13.851,3.387-25.74,15.042-29.523,29.664a44.2,44.2,0,0,0-1.378,9.016c-4.485-7.568-13.29-13.711-26.791-16.28,9.343-.958,18.078-5.325,25.179-14.388a25.516,25.516,0,0,0,5.162-15.743c0-8.525-3.807-17.144-11.282-21.465-.21-.117-.444-.21-.654-.327,14.248-5.816,28.939-9.413,43.514-9.389a82.922,82.922,0,0,1,22.329,2.99c30.154,8.408,51.409,31.579,52.273,59.467.047.724.047,1.542.047,2.429C484.8,697.934,483.42,711.06,475.876,723.463Z" transform="translate(-37.3 -623.188)" fill="#707070"/>
</svg>
