<svg xmlns="http://www.w3.org/2000/svg" width="400" height="41.2" viewBox="0 0 400 41.2">
  <g id="titledivider" transform="translate(-26 -1362)">
    <path id="titledivider-2" data-name="titledivider" d="M52.012,643.775c.437,0,.873.031,1.31.071a4.006,4.006,0,0,0,.041,1.513,4.484,4.484,0,0,0,4.133,3.433,4.9,4.9,0,0,0,4.641-2.448,5.527,5.527,0,0,0,.213-5.118,6.322,6.322,0,0,0-4.3-3.565,21.506,21.506,0,0,1,4.55.172c10.176,1.066,20.789,12.38,17.214,24.374A16.714,16.714,0,0,1,67.9,673.664,13.546,13.546,0,0,1,53.81,668.23c-3.047-4.2-2.8-9.993.295-13.456,2.833-3.656,7.891-4.743,11.344-2.844,3.555,1.716,5.25,5.687,4.469,8.693a6.947,6.947,0,0,1-5.5,5.23,5.862,5.862,0,0,1-4.773-1.554,1.432,1.432,0,0,1,.67-1.93,1.926,1.926,0,0,0,2.194.447,1.787,1.787,0,0,0,.924-1.178,2.132,2.132,0,0,0-.691-2.1,2.638,2.638,0,0,0-3.961.8,3.184,3.184,0,0,0,.812,3.991,6.025,6.025,0,0,0,4.865,1.747,7.262,7.262,0,0,0,5.9-5.332c.9-3.189-.792-7.475-4.58-9.4-3.687-2.133-9.252-1.056-12.38,2.854a9.785,9.785,0,0,0-1.371,1.909c-.254-3.169-2.265-5.21-4.509-5.21h-.132c-1.544.071-3.3,1.006-3.6,2.681a1.654,1.654,0,0,0-.03.315,2,2,0,0,0,1.686,1.97,1.865,1.865,0,0,0,.213.02,1.4,1.4,0,0,0,.762-.234,1.05,1.05,0,0,0,.579-.528,1.036,1.036,0,1,0-1.869-.894,1.047,1.047,0,0,0-.091.548,1.12,1.12,0,0,1-.447-.894,1.1,1.1,0,0,1,.01-.183c.132-1.087,1.554-1.95,2.8-1.98h.1c1.808,0,3.687,1.808,3.687,5.027a9.471,9.471,0,0,1-.284,2.224,12.449,12.449,0,0,0,1.94,9.922,14.715,14.715,0,0,0,15.325,6.063,17.929,17.929,0,0,0,12.938-12.339c2.417-8.277-1.28-16.056-7.048-20.9a64.841,64.841,0,0,1,7.079,4.661c2.519,1.574,7.708,6.286,15.7,9.9,3.92,1.716,9.16,2.854,13.893.691a12.952,12.952,0,0,0,7.84-12.187c-.152-5.037-3.676-10.095-8.51-10.572-4.611-.66-9.1,2.681-9.089,6.449a6.081,6.081,0,0,0,.975,3.788,5.146,5.146,0,0,0,2.112,1.93,5.038,5.038,0,0,0,4.854-.244,4.486,4.486,0,0,0,2.275-3.473,3.979,3.979,0,0,0-1.909-3.808,3.631,3.631,0,0,0-4.347.3,2.869,2.869,0,0,0-1.005,2.244,2.51,2.51,0,0,0,1.28,2.123,2.071,2.071,0,0,0,2.783-.589,1.813,1.813,0,0,0-.2-2.1c-.041-.041-.112-.122-.051-.193a.157.157,0,0,1,.081-.081c.884-.183,1.594.68,1.787,1.493a2.966,2.966,0,0,1-1.026,2.9,4.579,4.579,0,0,1-6.489-.579,6.06,6.06,0,0,1-.782-4.509c.609-3.808,5.728-6.479,10.186-4.956,4.59,1.473,7.109,7.089,6.347,11.984-.721,5.068-5.1,9.039-9.77,10.034a15.81,15.81,0,0,1-7.911-.559A4.351,4.351,0,0,0,103.5,655a4.071,4.071,0,0,0,1.107-3,3.421,3.421,0,0,0-2.376-3.169,2.829,2.829,0,0,0-2.651.528,2.56,2.56,0,0,0-.924,1.99,1.942,1.942,0,0,0,2,2.021,1.235,1.235,0,0,0,1.188-1.168c0-.264-.132-.569-.416-.6a.18.18,0,0,0-.2.122,2.3,2.3,0,0,1-.142.264.606.606,0,0,1-.487.244.811.811,0,0,1-.65-.376,1.279,1.279,0,0,1-.091-1.249,1.928,1.928,0,0,1,2.427-.945,2.984,2.984,0,0,1,1.574,3.94,4.155,4.155,0,0,1-4.844,2.366,33.465,33.465,0,0,1-3.89-1.737c-7.221-3.961-11.842-8.145-13.2-8.917-7.617-5.7-13.538-7.607-16.554-8.2a17.439,17.439,0,0,0-2.569-.447c-11.232-1.442-20.032,5.45-24.206,12.194C38.432,649.128,45.2,643.755,52.012,643.775Zm3.016-5.7c2.671-.091,5.464,1.2,6.134,4.062a3.643,3.643,0,0,1-1.046,3.646c-.782.67-2.112,1.026-2.864.213a.179.179,0,0,1-.02-.142c-.01-.112.122-.142.193-.152a2.221,2.221,0,0,0,1.706-1.96,2.551,2.551,0,0,0-2.366-2.59,3.087,3.087,0,0,0-2.8,1.209,4.991,4.991,0,0,0-.274.427,13.249,13.249,0,0,0-1.676-.1,17.957,17.957,0,0,0-12.248,5.372A26.416,26.416,0,0,1,55.028,638.078Z" transform="translate(307.41 727.875)" fill="#707070"/>
    <path id="Path_24" data-name="Path 24" d="M463.7,1854.8v-1H706.13v1Z" transform="translate(-358.898 -477.948)" fill="#707070"/>
    <path id="titledivider-3" data-name="titledivider" d="M105.166,643.776c-.437,0-.873.03-1.31.071a4.006,4.006,0,0,1-.041,1.513,4.484,4.484,0,0,1-4.133,3.433,4.9,4.9,0,0,1-4.641-2.448,5.527,5.527,0,0,1-.213-5.118,6.322,6.322,0,0,1,4.3-3.565,21.506,21.506,0,0,0-4.55.172C84.4,638.9,73.785,650.214,77.36,662.208a16.714,16.714,0,0,0,11.923,11.456,13.546,13.546,0,0,0,14.086-5.433c3.047-4.2,2.8-9.993-.295-13.456-2.833-3.656-7.891-4.743-11.344-2.844-3.554,1.716-5.25,5.687-4.468,8.693a6.947,6.947,0,0,0,5.5,5.23,5.862,5.862,0,0,0,4.773-1.554,1.432,1.432,0,0,0-.67-1.93,1.926,1.926,0,0,1-2.194.447,1.787,1.787,0,0,1-.924-1.178,2.132,2.132,0,0,1,.691-2.1,2.638,2.638,0,0,1,3.961.8,3.184,3.184,0,0,1-.812,3.991,6.024,6.024,0,0,1-4.865,1.747,7.262,7.262,0,0,1-5.9-5.332c-.9-3.189.792-7.475,4.58-9.4,3.687-2.133,9.252-1.056,12.38,2.854a9.783,9.783,0,0,1,1.371,1.909c.254-3.169,2.265-5.21,4.509-5.21h.132c1.544.071,3.3,1.006,3.6,2.681a1.655,1.655,0,0,1,.03.315,2,2,0,0,1-1.686,1.97,1.865,1.865,0,0,1-.213.02,1.4,1.4,0,0,1-.762-.234,1.05,1.05,0,0,1-.579-.528,1.036,1.036,0,0,1,1.869-.894,1.047,1.047,0,0,1,.091.548,1.121,1.121,0,0,0,.447-.894,1.1,1.1,0,0,0-.01-.183c-.132-1.087-1.554-1.95-2.8-1.98h-.1c-1.808,0-3.687,1.808-3.687,5.027a9.47,9.47,0,0,0,.284,2.224,12.449,12.449,0,0,1-1.94,9.922,14.715,14.715,0,0,1-15.325,6.063A17.929,17.929,0,0,1,76.07,662.614c-2.417-8.277,1.28-16.056,7.048-20.9a64.858,64.858,0,0,0-7.079,4.661c-2.519,1.574-7.708,6.286-15.7,9.9-3.92,1.716-9.16,2.854-13.893.691a12.952,12.952,0,0,1-7.84-12.187c.152-5.037,3.676-10.095,8.51-10.572,4.611-.66,9.1,2.681,9.089,6.449a6.082,6.082,0,0,1-.975,3.788,5.145,5.145,0,0,1-2.112,1.93,5.038,5.038,0,0,1-4.854-.244,4.486,4.486,0,0,1-2.275-3.473A3.979,3.979,0,0,1,47.9,638.85a3.631,3.631,0,0,1,4.347.3A2.869,2.869,0,0,1,53.25,641.4a2.51,2.51,0,0,1-1.28,2.123,2.071,2.071,0,0,1-2.783-.589,1.813,1.813,0,0,1,.2-2.1c.041-.041.112-.122.051-.193a.157.157,0,0,0-.081-.081c-.884-.183-1.594.68-1.787,1.493a2.966,2.966,0,0,0,1.026,2.9,4.579,4.579,0,0,0,6.489-.579,6.06,6.06,0,0,0,.782-4.509c-.609-3.808-5.728-6.479-10.186-4.956-4.59,1.473-7.109,7.089-6.347,11.984.721,5.068,5.1,9.039,9.77,10.034a15.811,15.811,0,0,0,7.911-.559A4.351,4.351,0,0,1,53.677,655a4.071,4.071,0,0,1-1.107-3,3.421,3.421,0,0,1,2.376-3.169,2.829,2.829,0,0,1,2.651.528,2.56,2.56,0,0,1,.924,1.99,1.942,1.942,0,0,1-2,2.021,1.235,1.235,0,0,1-1.188-1.168c0-.264.132-.569.416-.6a.18.18,0,0,1,.2.122,2.3,2.3,0,0,0,.142.264.605.605,0,0,0,.487.244.811.811,0,0,0,.65-.376,1.279,1.279,0,0,0,.091-1.249,1.928,1.928,0,0,0-2.427-.945,2.984,2.984,0,0,0-1.574,3.94,4.155,4.155,0,0,0,4.844,2.366,33.476,33.476,0,0,0,3.89-1.737c7.221-3.961,11.842-8.145,13.2-8.917,7.617-5.7,13.538-7.607,16.554-8.2a17.446,17.446,0,0,1,2.569-.447c11.232-1.442,20.032,5.45,24.206,12.194C118.746,649.128,111.981,643.755,105.166,643.776Zm-3.016-5.7c-2.671-.091-5.464,1.2-6.134,4.062a3.643,3.643,0,0,0,1.046,3.646c.782.67,2.112,1.026,2.864.213a.178.178,0,0,0,.02-.142c.01-.112-.122-.142-.193-.152a2.221,2.221,0,0,1-1.706-1.96,2.551,2.551,0,0,1,2.366-2.59,3.087,3.087,0,0,1,2.8,1.209,4.994,4.994,0,0,1,.274.427,13.249,13.249,0,0,1,1.676-.1,17.957,17.957,0,0,1,12.248,5.372A26.415,26.415,0,0,0,102.15,638.078Z" transform="translate(-12.588 727.875)" fill="#707070"/>
    <path id="Path_25" data-name="Path 25" d="M460.4,1868.3l.38,1.539H702.405l.425-1.539Z" transform="translate(-355.598 -495.211)" fill="#707070"/>
  </g>
</svg>
