<svg xmlns="http://www.w3.org/2000/svg" xmlns:xlink="http://www.w3.org/1999/xlink" width="375" height="619" viewBox="0 0 375 619">
  <defs>
    <clipPath id="clip-path">
      <rect width="172" height="333" fill="none"/>
    </clipPath>
    <clipPath id="clip-path-2">
      <rect width="171" height="135" fill="none"/>
    </clipPath>
    <clipPath id="clip-toolkit1">
      <rect width="375" height="619"/>
    </clipPath>
  </defs>
  <g id="toolkit1" clip-path="url(#clip-toolkit1)">
    <rect width="375" height="619" fill="#fff"/>
    <g id="Planning" transform="translate(0 -401)">
      <rect id="Rectangle_40" data-name="Rectangle 40" width="375" height="608" transform="translate(0 401)" fill="#fcfcfc"/>
      <g id="Plan" transform="translate(0 641.5)">
        <g id="Repeat_Grid_10" data-name="Repeat Grid 10" transform="translate(203 34.5)" clip-path="url(#clip-path)">
          <g transform="translate(-16 -33.833)">
            <text id="_2._Planning" data-name="2. Planning" transform="translate(16 50.833)" fill="#404040" font-size="16" font-family="OpenSans, Open Sans"><tspan x="0" y="0">Backcasting</tspan></text>
          </g>
          <g transform="translate(-16 4.167)">
            <text id="_1._Discover" data-name="1. Discover" transform="translate(16 50.833)" fill="#404040" font-size="16" font-family="OpenSans, Open Sans"><tspan x="0" y="0">Backlog Planning</tspan></text>
          </g>
          <g transform="translate(-16 42.167)">
            <text id="Design_Audit" data-name="Design Audit" transform="translate(16 50.833)" fill="#404040" font-size="16" font-family="OpenSans, Open Sans"><tspan x="0" y="0">Design Sprint Planning</tspan></text>
          </g>
          <g transform="translate(-16 80.167)">
            <text id="Design_Audit-2" data-name="Design Audit" transform="translate(16 50.833)" fill="#404040" font-size="16" font-family="OpenSans, Open Sans"><tspan x="0" y="0">Gather Requirements</tspan></text>
          </g>
          <g transform="translate(-16 118.167)">
            <text id="Design_Audit-3" data-name="Design Audit" transform="translate(16 50.833)" fill="#404040" font-size="16" font-family="OpenSans, Open Sans"><tspan x="0" y="0">Product Roadmap</tspan></text>
          </g>
          <g transform="translate(-16 156.167)">
            <text id="Design_Audit-4" data-name="Design Audit" transform="translate(16 50.833)" fill="#404040" font-size="16" font-family="OpenSans, Open Sans"><tspan x="0" y="0">Sprint Planning</tspan></text>
          </g>
          <g transform="translate(-16 194.167)">
            <text id="Design_Audit-5" data-name="Design Audit" transform="translate(16 50.833)" fill="#404040" font-size="16" font-family="OpenSans, Open Sans"><tspan x="0" y="0">Stakeholder Interviews</tspan></text>
          </g>
          <g transform="translate(-16 232.167)">
            <text id="Design_Audit-6" data-name="Design Audit" transform="translate(16 50.833)" fill="#404040" font-size="16" font-family="OpenSans, Open Sans"><tspan x="0" y="0">User Stories</tspan></text>
          </g>
          <g transform="translate(-16 270.167)">
            <text id="Design_Audit-7" data-name="Design Audit" transform="translate(16 50.833)" fill="#404040" font-size="16" font-family="OpenSans, Open Sans"><tspan x="0" y="0">UX Roadmap</tspan></text>
          </g>
        </g>
        <g id="_8px_Dark_Grey" data-name="8px Dark Grey" transform="translate(188 42.5)">
          <circle id="All" cx="4" cy="4" r="4" fill="#404040"/>
        </g>
        <g id="_8px_Bright_Red" data-name="8px Bright Red" transform="translate(188 232.5)">
          <circle id="PM" cx="4" cy="4" r="4" fill="#e53c2f"/>
        </g>
        <g id="_8px_Royal_Blue" data-name="8px Royal Blue" transform="translate(188 80.5)">
          <circle id="DM" cx="4" cy="4" r="4" fill="#118cc1"/>
        </g>
        <g id="_8px_Dark_Grey-2" data-name="8px Dark Grey" transform="translate(188 270.5)">
          <circle id="All-2" data-name="All" cx="4" cy="4" r="4" fill="#404040"/>
        </g>
        <g id="_8px_Bright_Red-2" data-name="8px Bright Red" transform="translate(188 308.5)">
          <circle id="PM-2" data-name="PM" cx="4" cy="4" r="4" fill="#e53c2f"/>
        </g>
        <g id="_8px_Bright_Red-3" data-name="8px Bright Red" transform="translate(188 118.5)">
          <circle id="PM-3" data-name="PM" cx="4" cy="4" r="4" fill="#e53c2f"/>
        </g>
        <g id="_8px_Dark_Grey-3" data-name="8px Dark Grey" transform="translate(188 156.5)">
          <circle id="All-3" data-name="All" cx="4" cy="4" r="4" fill="#404040"/>
        </g>
        <g id="_8px_Dark_Grey-4" data-name="8px Dark Grey" transform="translate(188 346.5)">
          <circle id="All-4" data-name="All" cx="4" cy="4" r="4" fill="#404040"/>
        </g>
        <g id="_8px_Royal_Blue-2" data-name="8px Royal Blue" transform="translate(188 194.5)">
          <circle id="DM-2" data-name="DM" cx="4" cy="4" r="4" fill="#118cc1"/>
        </g>
        <g id="Tile" transform="translate(20 34.5)">
          <g id="Rectangle_13" data-name="Rectangle 13" fill="#fff" stroke="#707070" stroke-width="3">
            <rect width="130" height="110" rx="10" stroke="none"/>
            <rect x="1.5" y="1.5" width="127" height="107" rx="8.5" fill="none"/>
          </g>
          <text id="Plan-2" data-name="Plan" transform="translate(65 95)" fill="#404040" font-size="20" font-family="Sanchez-Regular, Sanchez "><tspan x="-21.49" y="0">Plan</tspan></text>
        </g>
        <g id="Plan-3" data-name="Plan" transform="translate(49 44.5)">
          <g id="Group_2" data-name="Group 2" transform="translate(-541 -1007)">
            <g id="Rectangle_41" data-name="Rectangle 41" transform="translate(541 1010)" fill="gray" stroke="#404040" stroke-width="1">
              <rect width="16" height="16" rx="2" stroke="none"/>
              <rect x="0.5" y="0.5" width="15" height="15" rx="1.5" fill="none"/>
            </g>
            <text id="_1" data-name="1" transform="translate(545 1024)" fill="#fff" font-size="16" font-family="OpenSans, Open Sans"><tspan x="0" y="0">1</tspan></text>
          </g>
          <g id="Group_3" data-name="Group 3" transform="translate(-525 -988)">
            <g id="Rectangle_41-2" data-name="Rectangle 41" transform="translate(541 1010)" fill="gray" stroke="#404040" stroke-width="1">
              <rect width="16" height="16" rx="2" stroke="none"/>
              <rect x="0.5" y="0.5" width="15" height="15" rx="1.5" fill="none"/>
            </g>
            <text id="_2" data-name="2" transform="translate(545 1024)" fill="#fff" font-size="16" font-family="OpenSans, Open Sans"><tspan x="0" y="0">2</tspan></text>
          </g>
          <g id="Group_4" data-name="Group 4" transform="matrix(0.921, 0.391, -0.391, 0.921, -47.593, -1134.585)">
            <g id="Rectangle_41-3" data-name="Rectangle 41" transform="translate(541 1010)" fill="gray" stroke="#404040" stroke-width="1">
              <rect width="16" height="16" rx="2" stroke="none"/>
              <rect x="0.5" y="0.5" width="15" height="15" rx="1.5" fill="none"/>
            </g>
            <text id="_4" data-name="4" transform="translate(545 1024)" fill="#fff" font-size="16" font-family="OpenSans, Open Sans"><tspan x="0" y="0">4</tspan></text>
          </g>
          <g id="Group_5" data-name="Group 5" transform="translate(-509 -966)">
            <g id="Rectangle_41-4" data-name="Rectangle 41" transform="translate(541 1010)" fill="gray" stroke="#404040" stroke-width="1">
              <rect width="16" height="16" rx="2" stroke="none"/>
              <rect x="0.5" y="0.5" width="15" height="15" rx="1.5" fill="none"/>
            </g>
            <text id="_3" data-name="3" transform="translate(545 1024)" fill="#fff" font-size="16" font-family="OpenSans, Open Sans"><tspan x="0" y="0">3</tspan></text>
          </g>
          <path id="Path_57" data-name="Path 57" d="M-303.582,1029.312s-.964,6.5,0,7.478c1.835,1.87,7.342,0,7.342,0" transform="translate(309 -1007)" fill="none" stroke="#707070" stroke-width="1" stroke-dasharray="2"/>
          <path id="Path_58" data-name="Path 58" d="M-303.582,1029.312s-.964,6.5,0,7.478c1.835,1.87,7.342,0,7.342,0" transform="translate(326 -987)" fill="none" stroke="#707070" stroke-width="1" stroke-dasharray="2"/>
        </g>
      </g>
      <g id="Discover" transform="translate(0 452.167)">
        <g id="Repeat_Grid_9" data-name="Repeat Grid 9" transform="translate(204 33.833)" clip-path="url(#clip-path-2)">
          <g transform="translate(-16 -33.833)">
            <text id="_1._Discover-2" data-name="1. Discover" transform="translate(16 50.833)" fill="#404040" font-size="16" font-family="OpenSans, Open Sans"><tspan x="0" y="0">Design Audit</tspan></text>
          </g>
          <g transform="translate(-16 4.167)">
            <text id="_1._Discover-3" data-name="1. Discover" transform="translate(16 50.833)" fill="#404040" font-size="16" font-family="OpenSans, Open Sans"><tspan x="0" y="0">User Feedback</tspan></text>
          </g>
          <g transform="translate(-16 42.167)">
            <text id="_1._Discover-4" data-name="1. Discover" transform="translate(16 50.833)" fill="#404040" font-size="16" font-family="OpenSans, Open Sans"><tspan x="0" y="0">User Observance</tspan></text>
          </g>
          <g transform="translate(-16 80.167)">
            <text id="_1._Discover-5" data-name="1. Discover" transform="translate(16 50.833)" fill="#404040" font-size="16" font-family="OpenSans, Open Sans"><tspan x="0" y="0">Web Analytics</tspan></text>
          </g>
        </g>
        <g id="_8px_Hollow_Baby_Blue" data-name="8px Hollow Baby Blue" transform="translate(188 41.833)">
          <g id="UXD" fill="none" stroke="#15a7e6" stroke-width="2">
            <circle cx="4" cy="4" r="4" stroke="none"/>
            <circle cx="4" cy="4" r="3" fill="none"/>
          </g>
        </g>
        <g id="_8px_Dark_Grey-5" data-name="8px Dark Grey" transform="translate(188 117.833)">
          <circle id="All-5" data-name="All" cx="4" cy="4" r="4" fill="#404040"/>
        </g>
        <g id="_8px_Hollow_Baby_Blue-2" data-name="8px Hollow Baby Blue" transform="translate(188 79.833)">
          <g id="UXD-2" data-name="UXD" fill="none" stroke="#15a7e6" stroke-width="2">
            <circle cx="4" cy="4" r="4" stroke="none"/>
            <circle cx="4" cy="4" r="3" fill="none"/>
          </g>
        </g>
        <g id="_8px_Dark_Grey-6" data-name="8px Dark Grey" transform="translate(188 155.833)">
          <circle id="All-6" data-name="All" cx="4" cy="4" r="4" fill="#404040"/>
        </g>
        <g id="Tile-2" data-name="Tile" transform="translate(20 33.833)">
          <g id="Rectangle_13-2" data-name="Rectangle 13" fill="#fff" stroke="#707070" stroke-width="3">
            <rect width="130" height="110" rx="10" stroke="none"/>
            <rect x="1.5" y="1.5" width="127" height="107" rx="8.5" fill="none"/>
          </g>
          <text id="Discover-2" data-name="Discover" transform="translate(65 95)" fill="#404040" font-size="20" font-family="Sanchez-Regular, Sanchez "><tspan x="-41.29" y="0">Discover</tspan></text>
        </g>
        <g id="Discover-3" data-name="Discover" transform="translate(59 48.833)">
          <line id="Line_23" data-name="Line 23" x1="24.41" transform="translate(30.078 29.467) rotate(45)" fill="none" stroke="gray" stroke-width="4"/>
          <g id="Path_55" data-name="Path 55" fill="none">
            <path d="M18,0A18,18,0,1,1,0,18,18,18,0,0,1,18,0Z" stroke="none"/>
            <path d="M 18 4 C 14.26046943664551 4 10.74476051330566 5.456249237060547 8.100509643554688 8.100509643554688 C 5.456249237060547 10.74476051330566 4 14.26046943664551 4 18 C 4 21.73952865600586 5.456249237060547 25.25524139404297 8.100509643554688 27.89949035644531 C 10.74476051330566 30.54375076293945 14.26046943664551 32 18 32 C 21.73952865600586 32 25.25524139404297 30.54375076293945 27.89949035644531 27.89949035644531 C 30.54375076293945 25.25524139404297 32 21.73952865600586 32 18 C 32 14.26046943664551 30.54375076293945 10.74476051330566 27.89949035644531 8.100509643554688 C 25.25524139404297 5.456249237060547 21.73952865600586 4 18 4 M 18 0 C 27.94112014770508 0 36 8.058879852294922 36 18 C 36 27.94112014770508 27.94112014770508 36 18 36 C 8.058879852294922 36 0 27.94112014770508 0 18 C 0 8.058879852294922 8.058879852294922 0 18 0 Z" stroke="none" fill="#404040"/>
          </g>
          <line id="Line_24" data-name="Line 24" x1="24.41" transform="translate(34.35 33.739) rotate(45)" fill="none" stroke="#404040" stroke-linecap="round" stroke-width="8"/>
          <g id="Path_56" data-name="Path 56" transform="translate(7.912 8.186)" fill="none">
            <path d="M8.313,0A14.59,14.59,0,0,0,0,8.313,8.313,8.313,0,0,1,8.313,0Z" stroke="none"/>
            <path d="M 8.312759399414062 0 C 4.448449611663818 1.539389610290527 1.737029552459717 4.239079475402832 0 8.312759399414062 C 0 3.721749782562256 3.721749782562256 0 8.312759399414062 0 Z" stroke="none" fill="gray"/>
          </g>
        </g>
      </g>
      <text id="My_Tools_for_Planning" data-name="My Tools for
Planning" transform="translate(0 416)" fill="gray" font-size="20" font-family="Sanchez-RegularItalic, Sanchez " font-style="italic"><tspan x="0" y="0">My Tools for</tspan><tspan fill="#404040" font-size="30" font-family="Sanchez-Regular, Sanchez " font-style="normal"><tspan x="0" y="32">Planning</tspan></tspan></text>
    </g>
  </g>
</svg>
